<?xml version="1.0" encoding="UTF-8"?>
<svg width="588px" height="337px" viewBox="0 0 588 337" version="1.1" xmlns="http://www.w3.org/2000/svg" xmlns:xlink="http://www.w3.org/1999/xlink">
    <title>Group 2</title>
    <defs>
        <linearGradient x1="50%" y1="0%" x2="50%" y2="100%" id="linearGradient-1">
            <stop stop-color="#0042FF" offset="0%"></stop>
            <stop stop-color="#00ADFF" offset="100%"></stop>
        </linearGradient>
        <rect id="path-2" x="0" y="0" width="206" height="120.5"></rect>
        <filter x="-1.0%" y="-0.8%" width="101.9%" height="103.3%" filterUnits="objectBoundingBox" id="filter-4">
            <feOffset dx="0" dy="1" in="SourceAlpha" result="shadowOffsetOuter1"></feOffset>
            <feGaussianBlur stdDeviation="0.5" in="shadowOffsetOuter1" result="shadowBlurOuter1"></feGaussianBlur>
            <feColorMatrix values="0 0 0 0 0   0 0 0 0 0   0 0 0 0 0  0 0 0 0.0617357337 0" type="matrix" in="shadowBlurOuter1"></feColorMatrix>
        </filter>
        <rect id="path-5" x="0" y="0" width="206" height="120.5"></rect>
        <filter x="-1.0%" y="-0.8%" width="101.9%" height="103.3%" filterUnits="objectBoundingBox" id="filter-6">
            <feOffset dx="0" dy="1" in="SourceAlpha" result="shadowOffsetOuter1"></feOffset>
            <feGaussianBlur stdDeviation="0.5" in="shadowOffsetOuter1" result="shadowBlurOuter1"></feGaussianBlur>
            <feColorMatrix values="0 0 0 0 0   0 0 0 0 0   0 0 0 0 0  0 0 0 0.0617357337 0" type="matrix" in="shadowBlurOuter1"></feColorMatrix>
        </filter>
    </defs>
    <g id="Marketing-2.0" stroke="none" stroke-width="1" fill="none" fill-rule="evenodd">
        <g id="Group-2" transform="translate(5.000000, 0.000000)">
            <ellipse id="Oval" fill="#F1F5FF" cx="473.5" cy="74" rx="109.5" ry="74"></ellipse>
            <g id="Group" transform="translate(0.000000, 53.000000)">
                <path d="M512.244,-2.187 L6.804,-2.187 C4.32120391,-2.187 2.07345391,-1.18064805 0.44640293,0.44640293 C-1.18064805,2.07345391 -2.187,4.32120391 -2.187,6.804 L-2.187,272.196 C-2.187,274.678796 -1.18064805,276.926546 0.44640293,278.553597 C2.07345391,280.180648 4.32120391,281.187 6.804,281.187 L512.244,281.187 C514.726796,281.187 516.974546,280.180648 518.601597,278.553597 C520.228648,276.926546 521.235,274.678796 521.235,272.196 L521.235,6.804 C521.235,4.32120391 520.228648,2.07345391 518.601597,0.44640293 C516.974546,-1.18064805 514.726796,-2.187 512.244,-2.187 Z" id="Mask" stroke="#E6EEF1" stroke-width="4.374" fill="#FFFFFF"></path>
                <rect id="Rectangle" stroke="#0042FF" stroke-width="2" fill="#FFFFFF" x="23.6594271" y="31" width="373" height="27" rx="3"></rect>
                <g id="Group-33" transform="translate(409.659427, 31.000000)">
                    <rect id="Rectangle" fill="#0042FF" x="0" y="0" width="75" height="28" rx="3.888"></rect>
                    <path d="M22.844,18.168 C23.4226667,18.168 23.95,18.0536667 24.426,17.825 C24.902,17.5963333 25.3266667,17.2673333 25.7,16.838 L25.7,16.838 L24.79,15.844 C24.5286667,16.1333333 24.2463333,16.3573333 23.943,16.516 C23.6396667,16.6746667 23.2826667,16.754 22.872,16.754 C22.0973333,16.754 21.4836667,16.4576667 21.031,15.865 C20.5783333,15.2723333 20.352,14.4533333 20.352,13.408 C20.352,12.8946667 20.415,12.4326667 20.541,12.022 C20.667,11.6113333 20.8443333,11.2636667 21.073,10.979 C21.3016667,10.6943333 21.5723333,10.475 21.885,10.321 C22.1976667,10.167 22.5453333,10.09 22.928,10.09 C23.2826667,10.09 23.593,10.1576667 23.859,10.293 C24.125,10.4283333 24.3746667,10.6126667 24.608,10.846 L24.608,10.846 L25.518,9.838 C25.2286667,9.53 24.8623333,9.25933333 24.419,9.026 C23.9756667,8.79266667 23.474,8.676 22.914,8.676 C22.326,8.676 21.7753333,8.78333333 21.262,8.998 C20.7486667,9.21266667 20.3006667,9.52533333 19.918,9.936 C19.5353333,10.3466667 19.2343333,10.8483333 19.015,11.441 C18.7956667,12.0336667 18.686,12.7033333 18.686,13.45 C18.686,14.206 18.7933333,14.878 19.008,15.466 C19.2226667,16.054 19.5166667,16.5486667 19.89,16.95 C20.2633333,17.3513333 20.702,17.6546667 21.206,17.86 C21.71,18.0653333 22.256,18.168 22.844,18.168 Z M28.696,18 L28.696,13.8 C28.9106667,13.2773333 29.1673333,12.911 29.466,12.701 C29.7646667,12.491 30.0493333,12.386 30.32,12.386 C30.4693333,12.386 30.5953333,12.3953333 30.698,12.414 C30.8006667,12.4326667 30.9126667,12.4606667 31.034,12.498 L31.034,12.498 L31.314,11.098 C31.118,11.0046667 30.8566667,10.958 30.53,10.958 C30.166,10.958 29.8113333,11.077 29.466,11.315 C29.1206667,11.553 28.8266667,11.896 28.584,12.344 L28.584,12.344 L28.528,12.344 L28.416,11.126 L27.086,11.126 L27.086,18 L28.696,18 Z M35.248,18.168 C35.6866667,18.168 36.1066667,18.098 36.508,17.958 C36.9093333,17.818 37.2733333,17.6406667 37.6,17.426 L37.6,17.426 L37.054,16.418 C36.802,16.5766667 36.5476667,16.7003333 36.291,16.789 C36.0343333,16.8776667 35.7566667,16.922 35.458,16.922 C34.898,16.922 34.4383333,16.754 34.079,16.418 C33.7196667,16.082 33.5026667,15.6013333 33.428,14.976 L33.428,14.976 L37.796,14.976 C37.8426667,14.7893333 37.866,14.5373333 37.866,14.22 C37.866,13.744 37.8053333,13.3053333 37.684,12.904 C37.5626667,12.5026667 37.383,12.1573333 37.145,11.868 C36.907,11.5786667 36.6106667,11.3546667 36.256,11.196 C35.9013333,11.0373333 35.4906667,10.958 35.024,10.958 C34.6226667,10.958 34.2306667,11.042 33.848,11.21 C33.4653333,11.378 33.127,11.616 32.833,11.924 C32.539,12.232 32.3033333,12.61 32.126,13.058 C31.9486667,13.506 31.86,14.01 31.86,14.57 C31.86,15.1393333 31.9463333,15.6456667 32.119,16.089 C32.2916667,16.5323333 32.532,16.908 32.84,17.216 C33.148,17.524 33.5073333,17.7596667 33.918,17.923 C34.3286667,18.0863333 34.772,18.168 35.248,18.168 Z M36.466,13.954 L33.414,13.954 C33.4886667,13.3753333 33.68,12.939 33.988,12.645 C34.296,12.351 34.6553333,12.204 35.066,12.204 C35.542,12.204 35.8943333,12.358 36.123,12.666 C36.3516667,12.974 36.466,13.4033333 36.466,13.954 L36.466,13.954 Z M41.156,18.168 C41.5666667,18.168 41.947,18.0793333 42.297,17.902 C42.647,17.7246667 42.976,17.5053333 43.284,17.244 L43.284,17.244 L43.326,17.244 L43.452,18 L44.768,18 L44.768,13.926 C44.768,12.9646667 44.558,12.2296667 44.138,11.721 C43.718,11.2123333 43.074,10.958 42.206,10.958 C41.6553333,10.958 41.1443333,11.0466667 40.673,11.224 C40.2016667,11.4013333 39.7746667,11.6113333 39.392,11.854 L39.392,11.854 L39.98,12.932 C40.2786667,12.7453333 40.589,12.5866667 40.911,12.456 C41.233,12.3253333 41.5666667,12.26 41.912,12.26 C42.1453333,12.26 42.339,12.295 42.493,12.365 C42.647,12.435 42.773,12.533 42.871,12.659 C42.969,12.785 43.0413333,12.9296667 43.088,13.093 C43.1346667,13.2563333 43.158,13.4266667 43.158,13.604 C41.7486667,13.7626667 40.722,14.0426667 40.078,14.444 C39.434,14.8453333 39.112,15.4146667 39.112,16.152 C39.112,16.7586667 39.301,17.2463333 39.679,17.615 C40.057,17.9836667 40.5493333,18.168 41.156,18.168 Z M41.66,16.908 C41.3706667,16.908 41.135,16.838 40.953,16.698 C40.771,16.558 40.68,16.334 40.68,16.026 C40.68,15.858 40.722,15.6993333 40.806,15.55 C40.89,15.4006667 41.0276667,15.2676667 41.219,15.151 C41.4103333,15.0343333 41.6646667,14.9293333 41.982,14.836 C42.2993333,14.7426667 42.6913333,14.668 43.158,14.612 L43.158,14.612 L43.158,16.152 C42.906,16.3946667 42.6633333,16.5813333 42.43,16.712 C42.1966667,16.8426667 41.94,16.908 41.66,16.908 Z M49.15,18.168 C49.4206667,18.168 49.675,18.1423333 49.913,18.091 C50.151,18.0396667 50.3633333,17.9813333 50.55,17.916 L50.55,17.916 L50.27,16.726 C50.1673333,16.7726667 50.053,16.81 49.927,16.838 C49.801,16.866 49.6773333,16.88 49.556,16.88 C48.912,16.88 48.59,16.4786667 48.59,15.676 L48.59,15.676 L48.59,12.4 L50.34,12.4 L50.34,11.126 L48.59,11.126 L48.59,9.25 L47.246,9.25 L47.05,11.126 L45.986,11.196 L45.986,12.4 L46.966,12.4 L46.966,15.676 C46.966,16.0493333 47.0056667,16.3876667 47.085,16.691 C47.1643333,16.9943333 47.2903333,17.2556667 47.463,17.475 C47.6356667,17.6943333 47.8596667,17.8646667 48.135,17.986 C48.4103333,18.1073333 48.7486667,18.168 49.15,18.168 Z M54.722,18.168 C55.1606667,18.168 55.5806667,18.098 55.982,17.958 C56.3833333,17.818 56.7473333,17.6406667 57.074,17.426 L57.074,17.426 L56.528,16.418 C56.276,16.5766667 56.0216667,16.7003333 55.765,16.789 C55.5083333,16.8776667 55.2306667,16.922 54.932,16.922 C54.372,16.922 53.9123333,16.754 53.553,16.418 C53.1936667,16.082 52.9766667,15.6013333 52.902,14.976 L52.902,14.976 L57.27,14.976 C57.3166667,14.7893333 57.34,14.5373333 57.34,14.22 C57.34,13.744 57.2793333,13.3053333 57.158,12.904 C57.0366667,12.5026667 56.857,12.1573333 56.619,11.868 C56.381,11.5786667 56.0846667,11.3546667 55.73,11.196 C55.3753333,11.0373333 54.9646667,10.958 54.498,10.958 C54.0966667,10.958 53.7046667,11.042 53.322,11.21 C52.9393333,11.378 52.601,11.616 52.307,11.924 C52.013,12.232 51.7773333,12.61 51.6,13.058 C51.4226667,13.506 51.334,14.01 51.334,14.57 C51.334,15.1393333 51.4203333,15.6456667 51.593,16.089 C51.7656667,16.5323333 52.006,16.908 52.314,17.216 C52.622,17.524 52.9813333,17.7596667 53.392,17.923 C53.8026667,18.0863333 54.246,18.168 54.722,18.168 Z M55.94,13.954 L52.888,13.954 C52.9626667,13.3753333 53.154,12.939 53.462,12.645 C53.77,12.351 54.1293333,12.204 54.54,12.204 C55.016,12.204 55.3683333,12.358 55.597,12.666 C55.8256667,12.974 55.94,13.4033333 55.94,13.954 L55.94,13.954 Z" id="Create" fill="#FFFFFF" fill-rule="nonzero"></path>
                </g>
                <path d="M34.8314271,50 L34.8314271,44.224 C34.8314271,43.7546667 34.8100938,43.2373333 34.7674271,42.672 C34.7247604,42.1066667 34.6874271,41.5893333 34.6554271,41.12 L34.6554271,41.12 L34.7194271,41.12 L35.5514271,43.456 L37.5834271,48.944 L38.3354271,48.944 L40.3514271,43.456 L41.1994271,41.12 L41.2634271,41.12 C41.2207604,41.5893333 41.1807604,42.1066667 41.1434271,42.672 C41.1060938,43.2373333 41.0874271,43.7546667 41.0874271,44.224 L41.0874271,44.224 L41.0874271,50 L42.3514271,50 L42.3514271,39.504 L40.7834271,39.504 L38.7674271,45.136 L38.0314271,47.28 L37.9674271,47.28 L37.1994271,45.136 L35.1674271,39.504 L33.5994271,39.504 L33.5994271,50 L34.8314271,50 Z M45.2314271,53.344 C45.6260938,53.344 45.9727604,53.2746667 46.2714271,53.136 C46.5700938,52.9973333 46.8367604,52.808 47.0714271,52.568 C47.3060938,52.328 47.5087604,52.0426667 47.6794271,51.712 C47.8500938,51.3813333 48.0047604,51.024 48.1434271,50.64 L48.1434271,50.64 L51.0714271,42.224 L49.7914271,42.224 L48.3994271,46.528 C48.2927604,46.8693333 48.1860938,47.232 48.0794271,47.616 C47.9727604,48 47.8607604,48.368 47.7434271,48.72 L47.7434271,48.72 L47.6794271,48.72 C47.5620938,48.3573333 47.4367604,47.9866667 47.3034271,47.608 C47.1700938,47.2293333 47.0447604,46.8693333 46.9274271,46.528 L46.9274271,46.528 L45.3434271,42.224 L43.9834271,42.224 L47.1034271,50.016 L46.9274271,50.592 C46.7674271,51.072 46.5460938,51.4693333 46.2634271,51.784 C45.9807604,52.0986667 45.6154271,52.256 45.1674271,52.256 C45.0714271,52.256 44.9700938,52.2426667 44.8634271,52.216 L44.8634271,52.216 L44.5754271,52.144 L44.3194271,53.184 C44.4474271,53.2373333 44.5860938,53.2773333 44.7354271,53.304 C44.8847604,53.3306667 45.0500938,53.344 45.2314271,53.344 Z M58.5754271,50 L59.6634271,45.84 C59.7700938,45.4666667 59.8660938,45.096 59.9514271,44.728 C60.0367604,44.36 60.1220938,43.9786667 60.2074271,43.584 L60.2074271,43.584 L60.2714271,43.584 C60.3674271,43.9786667 60.4554271,44.3573333 60.5354271,44.72 C60.6154271,45.0826667 60.7034271,45.4506667 60.7994271,45.824 L60.7994271,45.824 L61.9194271,50 L63.5194271,50 L65.5994271,42.224 L64.3514271,42.224 L63.2154271,46.72 C63.1300938,47.0933333 63.0500938,47.456 62.9754271,47.808 C62.9007604,48.16 62.8207604,48.5173333 62.7354271,48.88 L62.7354271,48.88 L62.6714271,48.88 C62.5860938,48.5173333 62.4980938,48.16 62.4074271,47.808 C62.3167604,47.456 62.2234271,47.0933333 62.1274271,46.72 L62.1274271,46.72 L60.9114271,42.224 L59.6314271,42.224 L58.4314271,46.72 C58.3354271,47.0826667 58.2447604,47.4426667 58.1594271,47.8 C58.0740938,48.1573333 57.9887604,48.5173333 57.9034271,48.88 L57.9034271,48.88 L57.8394271,48.88 C57.7647604,48.5173333 57.6900938,48.16 57.6154271,47.808 C57.5407604,47.456 57.4607604,47.0933333 57.3754271,46.72 L57.3754271,46.72 L56.2234271,42.224 L54.8794271,42.224 L57.0394271,50 L58.5754271,50 Z M70.4474271,50.192 C70.9807604,50.192 71.4554271,50.112 71.8714271,49.952 C72.2874271,49.792 72.6660938,49.6053333 73.0074271,49.392 L73.0074271,49.392 L72.5434271,48.528 C72.2554271,48.7093333 71.9540938,48.856 71.6394271,48.968 C71.3247604,49.08 70.9807604,49.136 70.6074271,49.136 C69.8607604,49.136 69.2554271,48.8906667 68.7914271,48.4 C68.3274271,47.9093333 68.0687604,47.2426667 68.0154271,46.4 L68.0154271,46.4 L73.2634271,46.4 C73.2954271,46.208 73.3114271,45.968 73.3114271,45.68 C73.3114271,45.1253333 73.2420938,44.624 73.1034271,44.176 C72.9647604,43.728 72.7647604,43.344 72.5034271,43.024 C72.2420938,42.704 71.9167604,42.4586667 71.5274271,42.288 C71.1380938,42.1173333 70.6980938,42.032 70.2074271,42.032 C69.7594271,42.032 69.3274271,42.1253333 68.9114271,42.312 C68.4954271,42.4986667 68.1247604,42.768 67.7994271,43.12 C67.4740938,43.472 67.2127604,43.9013333 67.0154271,44.408 C66.8180938,44.9146667 66.7194271,45.488 66.7194271,46.128 C66.7194271,46.768 66.8154271,47.3386667 67.0074271,47.84 C67.1994271,48.3413333 67.4634271,48.7653333 67.7994271,49.112 C68.1354271,49.4586667 68.5300938,49.7253333 68.9834271,49.912 C69.4367604,50.0986667 69.9247604,50.192 70.4474271,50.192 Z M72.1594271,45.536 L67.9994271,45.536 C68.0420938,45.1413333 68.1300938,44.792 68.2634271,44.488 C68.3967604,44.184 68.5647604,43.928 68.7674271,43.72 C68.9700938,43.512 69.1967604,43.352 69.4474271,43.24 C69.6980938,43.128 69.9620938,43.072 70.2394271,43.072 C70.8474271,43.072 71.3194271,43.2826667 71.6554271,43.704 C71.9914271,44.1253333 72.1594271,44.736 72.1594271,45.536 L72.1594271,45.536 Z M78.6714271,50.192 C79.1194271,50.192 79.5460938,50.0986667 79.9514271,49.912 C80.3567604,49.7253333 80.7140938,49.4506667 81.0234271,49.088 C81.3327604,48.7253333 81.5780938,48.2826667 81.7594271,47.76 C81.9407604,47.2373333 82.0314271,46.6453333 82.0314271,45.984 C82.0314271,45.3866667 81.9647604,44.8453333 81.8314271,44.36 C81.6980938,43.8746667 81.5007604,43.4586667 81.2394271,43.112 C80.9780938,42.7653333 80.6554271,42.4986667 80.2714271,42.312 C79.8874271,42.1253333 79.4447604,42.032 78.9434271,42.032 C78.5060938,42.032 78.0794271,42.136 77.6634271,42.344 C77.2474271,42.552 76.8634271,42.8106667 76.5114271,43.12 L76.5114271,43.12 L76.5434271,41.712 L76.5434271,38.608 L75.2314271,38.608 L75.2314271,50 L76.2874271,50 L76.3994271,49.232 L76.4474271,49.232 C76.7887604,49.5413333 77.1540938,49.7786667 77.5434271,49.944 C77.9327604,50.1093333 78.3087604,50.192 78.6714271,50.192 Z M78.4474271,49.088 C78.1914271,49.088 77.8954271,49.0266667 77.5594271,48.904 C77.2234271,48.7813333 76.8847604,48.5706667 76.5434271,48.272 L76.5434271,48.272 L76.5434271,44.192 C77.3007604,43.488 77.9940938,43.136 78.6234271,43.136 C78.9860938,43.136 79.2980938,43.2053333 79.5594271,43.344 C79.8207604,43.4826667 80.0340938,43.6773333 80.1994271,43.928 C80.3647604,44.1786667 80.4847604,44.48 80.5594271,44.832 C80.6340938,45.184 80.6714271,45.5733333 80.6714271,46 C80.6714271,46.48 80.6154271,46.912 80.5034271,47.296 C80.3914271,47.68 80.2367604,48.0026667 80.0394271,48.264 C79.8420938,48.5253333 79.6074271,48.728 79.3354271,48.872 C79.0634271,49.016 78.7674271,49.088 78.4474271,49.088 Z M86.1434271,50.192 C86.6020938,50.192 87.0100938,50.1306667 87.3674271,50.008 C87.7247604,49.8853333 88.0234271,49.7173333 88.2634271,49.504 C88.5034271,49.2906667 88.6847604,49.0453333 88.8074271,48.768 C88.9300938,48.4906667 88.9914271,48.192 88.9914271,47.872 C88.9914271,47.5093333 88.9194271,47.2 88.7754271,46.944 C88.6314271,46.688 88.4474271,46.472 88.2234271,46.296 C87.9994271,46.12 87.7460938,45.9733333 87.4634271,45.856 C87.1807604,45.7386667 86.9007604,45.6266667 86.6234271,45.52 C86.3994271,45.4346667 86.1834271,45.352 85.9754271,45.272 C85.7674271,45.192 85.5834271,45.1013333 85.4234271,45 C85.2634271,44.8986667 85.1354271,44.7813333 85.0394271,44.648 C84.9434271,44.5146667 84.8954271,44.3573333 84.8954271,44.176 C84.8954271,43.8773333 85.0100938,43.616 85.2394271,43.392 C85.4687604,43.168 85.8287604,43.056 86.3194271,43.056 C86.6607604,43.056 86.9754271,43.12 87.2634271,43.248 C87.5514271,43.376 87.8287604,43.5413333 88.0954271,43.744 L88.0954271,43.744 L88.7194271,42.912 C88.4207604,42.6666667 88.0660938,42.4586667 87.6554271,42.288 C87.2447604,42.1173333 86.7940938,42.032 86.3034271,42.032 C85.8874271,42.032 85.5140938,42.088 85.1834271,42.2 C84.8527604,42.312 84.5727604,42.4666667 84.3434271,42.664 C84.1140938,42.8613333 83.9380938,43.096 83.8154271,43.368 C83.6927604,43.64 83.6314271,43.9306667 83.6314271,44.24 C83.6314271,44.5706667 83.7007604,44.8533333 83.8394271,45.088 C83.9780938,45.3226667 84.1567604,45.528 84.3754271,45.704 C84.5940938,45.88 84.8420938,46.0293333 85.1194271,46.152 C85.3967604,46.2746667 85.6740938,46.384 85.9514271,46.48 C86.1647604,46.5653333 86.3780938,46.6506667 86.5914271,46.736 C86.8047604,46.8213333 86.9940938,46.92 87.1594271,47.032 C87.3247604,47.144 87.4607604,47.2746667 87.5674271,47.424 C87.6740938,47.5733333 87.7274271,47.7493333 87.7274271,47.952 C87.7274271,48.2933333 87.5994271,48.5813333 87.3434271,48.816 C87.0874271,49.0506667 86.7034271,49.168 86.1914271,49.168 C85.7220938,49.168 85.3087604,49.0826667 84.9514271,48.912 C84.5940938,48.7413333 84.2447604,48.5173333 83.9034271,48.24 L83.9034271,48.24 L83.2474271,49.12 C83.6207604,49.4293333 84.0580938,49.6853333 84.5594271,49.888 C85.0607604,50.0906667 85.5887604,50.192 86.1434271,50.192 Z M91.4874271,40.624 C91.7434271,40.624 91.9594271,40.544 92.1354271,40.384 C92.3114271,40.224 92.3994271,40.0213333 92.3994271,39.776 C92.3994271,39.52 92.3114271,39.3146667 92.1354271,39.16 C91.9594271,39.0053333 91.7434271,38.928 91.4874271,38.928 C91.2314271,38.928 91.0154271,39.0053333 90.8394271,39.16 C90.6634271,39.3146667 90.5754271,39.52 90.5754271,39.776 C90.5754271,40.0213333 90.6634271,40.224 90.8394271,40.384 C91.0154271,40.544 91.2314271,40.624 91.4874271,40.624 Z M92.1274271,50 L92.1274271,42.224 L90.8154271,42.224 L90.8154271,50 L92.1274271,50 Z M97.1994271,50.192 C97.4447604,50.192 97.6927604,50.1626667 97.9434271,50.104 C98.1940938,50.0453333 98.4260938,49.9786667 98.6394271,49.904 L98.6394271,49.904 L98.3834271,48.912 C98.2554271,48.9653333 98.1114271,49.0133333 97.9514271,49.056 C97.7914271,49.0986667 97.6420938,49.12 97.5034271,49.12 C97.0554271,49.12 96.7434271,48.9893333 96.5674271,48.728 C96.3914271,48.4666667 96.3034271,48.096 96.3034271,47.616 L96.3034271,47.616 L96.3034271,43.296 L98.3994271,43.296 L98.3994271,42.224 L96.3034271,42.224 L96.3034271,40.048 L95.1994271,40.048 L95.0394271,42.224 L93.8234271,42.304 L93.8234271,43.296 L94.9754271,43.296 L94.9754271,47.6 C94.9754271,47.984 95.0127604,48.336 95.0874271,48.656 C95.1620938,48.976 95.2874271,49.248 95.4634271,49.472 C95.6394271,49.696 95.8687604,49.872 96.1514271,50 C96.4340938,50.128 96.7834271,50.192 97.1994271,50.192 Z M103.311427,50.192 C103.84476,50.192 104.319427,50.112 104.735427,49.952 C105.151427,49.792 105.530094,49.6053333 105.871427,49.392 L105.871427,49.392 L105.407427,48.528 C105.119427,48.7093333 104.818094,48.856 104.503427,48.968 C104.18876,49.08 103.84476,49.136 103.471427,49.136 C102.72476,49.136 102.119427,48.8906667 101.655427,48.4 C101.191427,47.9093333 100.93276,47.2426667 100.879427,46.4 L100.879427,46.4 L106.127427,46.4 C106.159427,46.208 106.175427,45.968 106.175427,45.68 C106.175427,45.1253333 106.106094,44.624 105.967427,44.176 C105.82876,43.728 105.62876,43.344 105.367427,43.024 C105.106094,42.704 104.78076,42.4586667 104.391427,42.288 C104.002094,42.1173333 103.562094,42.032 103.071427,42.032 C102.623427,42.032 102.191427,42.1253333 101.775427,42.312 C101.359427,42.4986667 100.98876,42.768 100.663427,43.12 C100.338094,43.472 100.07676,43.9013333 99.8794271,44.408 C99.6820938,44.9146667 99.5834271,45.488 99.5834271,46.128 C99.5834271,46.768 99.6794271,47.3386667 99.8714271,47.84 C100.063427,48.3413333 100.327427,48.7653333 100.663427,49.112 C100.999427,49.4586667 101.394094,49.7253333 101.847427,49.912 C102.30076,50.0986667 102.78876,50.192 103.311427,50.192 Z M105.023427,45.536 L100.863427,45.536 C100.906094,45.1413333 100.994094,44.792 101.127427,44.488 C101.26076,44.184 101.42876,43.928 101.631427,43.72 C101.834094,43.512 102.06076,43.352 102.311427,43.24 C102.562094,43.128 102.826094,43.072 103.103427,43.072 C103.711427,43.072 104.183427,43.2826667 104.519427,43.704 C104.855427,44.1253333 105.023427,44.736 105.023427,45.536 L105.023427,45.536 Z" id="Mywebsite" fill="#3C3845" fill-rule="nonzero"></path>
                <g id="Group-35" transform="translate(263.659427, 86.000000)">
                    <g id="Group-7">
                        <g id="Group-3" transform="translate(0.138672, 0.000000)" fill="#FFFFFF" stroke="#E6EAEE">
                            <g id="Group-12">
                                <rect id="Rectangle" x="0.5" y="0.5" width="228.5" height="156"></rect>
                            </g>
                        </g>
                        <g id="Group-4" transform="translate(12.138672, 10.000000)">
                            <mask id="mask-3" fill="white">
                                <use xlink:href="#path-2"></use>
                            </mask>
                            <g id="Mask">
                                <use fill="black" fill-opacity="1" filter="url(#filter-4)" xlink:href="#path-2"></use>
                                <use fill="url(#linearGradient-1)" fill-rule="evenodd" xlink:href="#path-2"></use>
                            </g>
                        </g>
                        <g id="Group-6" transform="translate(0.000000, 115.500000)">
                            <rect id="Rectangle" stroke="#E6EAEE" fill="#FFFFFF" x="0.5" y="0.5" width="228.5" height="40.5"></rect>
                            <path d="M205.888672,21.4638672 C206.076823,21.4638672 206.242839,21.3919271 206.386719,21.2480469 C206.530599,21.1041667 206.602539,20.938151 206.602539,20.75 C206.602539,20.561849 206.530599,20.3958333 206.386719,20.2519531 C206.242839,20.1080729 206.076823,20.0361328 205.888672,20.0361328 C205.700521,20.0361328 205.534505,20.1080729 205.390625,20.2519531 C205.246745,20.3958333 205.174805,20.561849 205.174805,20.75 C205.174805,20.938151 205.246745,21.1041667 205.390625,21.2480469 C205.534505,21.3919271 205.700521,21.4638672 205.888672,21.4638672 Z M208.013672,21.4638672 C208.201823,21.4638672 208.367839,21.3919271 208.511719,21.2480469 C208.655599,21.1041667 208.727539,20.938151 208.727539,20.75 C208.727539,20.561849 208.655599,20.3958333 208.511719,20.2519531 C208.367839,20.1080729 208.201823,20.0361328 208.013672,20.0361328 C207.825521,20.0361328 207.659505,20.1080729 207.515625,20.2519531 C207.371745,20.3958333 207.299805,20.561849 207.299805,20.75 C207.299805,20.938151 207.371745,21.1041667 207.515625,21.2480469 C207.659505,21.3919271 207.825521,21.4638672 208.013672,21.4638672 Z M203.763672,21.4638672 C203.951823,21.4638672 204.117839,21.3919271 204.261719,21.2480469 C204.405599,21.1041667 204.477539,20.938151 204.477539,20.75 C204.477539,20.561849 204.405599,20.3958333 204.261719,20.2519531 C204.117839,20.1080729 203.951823,20.0361328 203.763672,20.0361328 C203.575521,20.0361328 203.409505,20.1080729 203.265625,20.2519531 C203.121745,20.3958333 203.049805,20.561849 203.049805,20.75 C203.049805,20.938151 203.121745,21.1041667 203.265625,21.2480469 C203.409505,21.3919271 203.575521,21.4638672 203.763672,21.4638672 Z" id="m" fill="#000000" fill-rule="nonzero"></path>
                        </g>
                    </g>
                    <rect id="Rectangle" fill="#CBD6DA" x="14" y="130" width="49" height="6"></rect>
                    <g id="Group-34" transform="translate(42.000000, 22.000000)" fill="#FFFFFF">
                        <rect id="Rectangle" fill-opacity="0.198563156" x="0" y="0" width="135" height="82" rx="5.4432"></rect>
                        <g id="Group-18" transform="translate(5.000000, 4.000000)">
                            <g id="Group-17">
                                <rect id="Rectangle" fill-opacity="0.587385271" x="0.1197504" y="0.0784896" width="17.7666048" height="5.3372928"></rect>
                                <rect id="Rectangle" fill-opacity="0.456375656" x="3.4758592" y="45.0726528" width="37.01376" height="27.22608" rx="2"></rect>
                                <rect id="Rectangle" fill-opacity="0.456375656" x="44.8441792" y="45.0726528" width="37.01376" height="27.22608" rx="2"></rect>
                                <rect id="Rectangle" fill-opacity="0.456375656" x="86.2124992" y="45.0726528" width="37.01376" height="27.22608" rx="2"></rect>
                                <rect id="Rectangle" fill-opacity="0.587385271" x="56.8192192" y="15.305472" width="17.7666048" height="2.354688"></rect>
                                <rect id="Rectangle" fill-opacity="0.587385271" x="47.2391872" y="21.2706816" width="36.9266688" height="2.354688"></rect>
                                <rect id="Rectangle" fill-opacity="0.587385271" x="84.7396928" y="1.96224" width="17.7666048" height="1.569792"></rect>
                                <rect id="Rectangle" fill-opacity="0.587385271" x="104.770669" y="1.96224" width="17.7666048" height="1.569792"></rect>
                            </g>
                        </g>
                    </g>
                </g>
                <g id="Group-35" transform="translate(22.659427, 86.000000)">
                    <g id="Group-7">
                        <g id="Group-3" transform="translate(0.138672, 0.000000)" fill="#FFFFFF" stroke="#E6EAEE">
                            <g id="Group-12">
                                <rect id="Rectangle" x="0.5" y="0.5" width="228.5" height="156"></rect>
                            </g>
                        </g>
                        <g id="Group-4" transform="translate(12.138672, 10.000000)">
                            <g id="Mask">
                                <use fill="black" fill-opacity="1" filter="url(#filter-6)" xlink:href="#path-5"></use>
                                <use fill="url(#linearGradient-1)" fill-rule="evenodd" xlink:href="#path-5"></use>
                            </g>
                        </g>
                        <g id="Group-6" transform="translate(0.000000, 115.500000)">
                            <rect id="Rectangle" stroke="#E6EAEE" fill="#FFFFFF" x="0.5" y="0.5" width="228.5" height="40.5"></rect>
                            <path d="M205.888672,21.4638672 C206.076823,21.4638672 206.242839,21.3919271 206.386719,21.2480469 C206.530599,21.1041667 206.602539,20.938151 206.602539,20.75 C206.602539,20.561849 206.530599,20.3958333 206.386719,20.2519531 C206.242839,20.1080729 206.076823,20.0361328 205.888672,20.0361328 C205.700521,20.0361328 205.534505,20.1080729 205.390625,20.2519531 C205.246745,20.3958333 205.174805,20.561849 205.174805,20.75 C205.174805,20.938151 205.246745,21.1041667 205.390625,21.2480469 C205.534505,21.3919271 205.700521,21.4638672 205.888672,21.4638672 Z M208.013672,21.4638672 C208.201823,21.4638672 208.367839,21.3919271 208.511719,21.2480469 C208.655599,21.1041667 208.727539,20.938151 208.727539,20.75 C208.727539,20.561849 208.655599,20.3958333 208.511719,20.2519531 C208.367839,20.1080729 208.201823,20.0361328 208.013672,20.0361328 C207.825521,20.0361328 207.659505,20.1080729 207.515625,20.2519531 C207.371745,20.3958333 207.299805,20.561849 207.299805,20.75 C207.299805,20.938151 207.371745,21.1041667 207.515625,21.2480469 C207.659505,21.3919271 207.825521,21.4638672 208.013672,21.4638672 Z M203.763672,21.4638672 C203.951823,21.4638672 204.117839,21.3919271 204.261719,21.2480469 C204.405599,21.1041667 204.477539,20.938151 204.477539,20.75 C204.477539,20.561849 204.405599,20.3958333 204.261719,20.2519531 C204.117839,20.1080729 203.951823,20.0361328 203.763672,20.0361328 C203.575521,20.0361328 203.409505,20.1080729 203.265625,20.2519531 C203.121745,20.3958333 203.049805,20.561849 203.049805,20.75 C203.049805,20.938151 203.121745,21.1041667 203.265625,21.2480469 C203.409505,21.3919271 203.575521,21.4638672 203.763672,21.4638672 Z" id="m" fill="#000000" fill-rule="nonzero"></path>
                        </g>
                    </g>
                    <rect id="Rectangle" fill="#CBD6DA" x="14" y="130" width="49" height="6"></rect>
                    <g id="Group-34" transform="translate(42.000000, 22.000000)" fill="#FFFFFF">
                        <rect id="Rectangle" fill-opacity="0.198563156" x="0" y="0" width="135" height="82" rx="5.4432"></rect>
                        <g id="Group-18" transform="translate(5.000000, 4.000000)">
                            <g id="Group-17">
                                <rect id="Rectangle" fill-opacity="0.587385271" x="0.1197504" y="0.0784896" width="17.7666048" height="5.3372928"></rect>
                                <rect id="Rectangle" fill-opacity="0.456375656" x="3.4758592" y="45.0726528" width="37.01376" height="27.22608" rx="2"></rect>
                                <rect id="Rectangle" fill-opacity="0.456375656" x="44.8441792" y="45.0726528" width="37.01376" height="27.22608" rx="2"></rect>
                                <rect id="Rectangle" fill-opacity="0.456375656" x="86.2124992" y="45.0726528" width="37.01376" height="27.22608" rx="2"></rect>
                                <rect id="Rectangle" fill-opacity="0.587385271" x="56.8192192" y="15.305472" width="17.7666048" height="2.354688"></rect>
                                <rect id="Rectangle" fill-opacity="0.587385271" x="47.2391872" y="21.2706816" width="36.9266688" height="2.354688"></rect>
                                <rect id="Rectangle" fill-opacity="0.587385271" x="84.7396928" y="1.96224" width="17.7666048" height="1.569792"></rect>
                                <rect id="Rectangle" fill-opacity="0.587385271" x="104.770669" y="1.96224" width="17.7666048" height="1.569792"></rect>
                            </g>
                        </g>
                    </g>
                </g>
            </g>
        </g>
    </g>
</svg>