<?xml version="1.0" encoding="UTF-8"?>
<svg width="630px" height="466px" viewBox="0 0 630 466" version="1.1" xmlns="http://www.w3.org/2000/svg" xmlns:xlink="http://www.w3.org/1999/xlink">
    <title>Group 36</title>
    <defs>
        <path d="M6.4,0 L499.84,0 C503.374622,-6.49299601e-16 506.24,2.8653776 506.24,6.4 L506.24,30.08 L506.24,30.08 L0,30.08 L0,6.4 C-4.32866401e-16,2.8653776 2.8653776,2.42565644e-15 6.4,0 Z" id="path-1"></path>
        <filter x="-0.1%" y="-1.7%" width="100.2%" height="106.6%" filterUnits="objectBoundingBox" id="filter-2">
            <feOffset dx="0" dy="1" in="SourceAlpha" result="shadowOffsetOuter1"></feOffset>
            <feColorMatrix values="0 0 0 0 0.705882353   0 0 0 0 0.733333333   0 0 0 0 0.776470588  0 0 0 1 0" type="matrix" in="shadowOffsetOuter1"></feColorMatrix>
        </filter>
        <path d="M41.0811745,1.624 L49.005,8.792 L347.008,8.792 C348.775311,8.792 350.208,10.2246888 350.208,11.992 L350.208,202.2 C350.208,203.967311 348.775311,205.4 347.008,205.4 L3.2,205.4 C1.4326888,205.4 -1.0885797e-14,203.967311 0,202.2 L0,11.992 C-2.164332e-16,10.2246888 1.4326888,8.792 3.2,8.792 L33.896,8.792 L41.0811745,1.624 Z" id="path-3"></path>
        <filter x="-11.4%" y="-15.7%" width="122.8%" height="139.3%" filterUnits="objectBoundingBox" id="filter-4">
            <feOffset dx="0" dy="8" in="SourceAlpha" result="shadowOffsetOuter1"></feOffset>
            <feGaussianBlur stdDeviation="12" in="shadowOffsetOuter1" result="shadowBlurOuter1"></feGaussianBlur>
            <feComposite in="shadowBlurOuter1" in2="SourceAlpha" operator="out" result="shadowBlurOuter1"></feComposite>
            <feColorMatrix values="0 0 0 0 0   0 0 0 0 0   0 0 0 0 0  0 0 0 0.173978365 0" type="matrix" in="shadowBlurOuter1"></feColorMatrix>
        </filter>
        <filter x="-18.0%" y="-18.0%" width="136.0%" height="136.0%" filterUnits="objectBoundingBox" id="filter-5">
            <feOffset dx="0" dy="4" in="SourceAlpha" result="shadowOffsetOuter1"></feOffset>
            <feGaussianBlur stdDeviation="2" in="shadowOffsetOuter1" result="shadowBlurOuter1"></feGaussianBlur>
            <feColorMatrix values="0 0 0 0 0   0 0 0 0 0   0 0 0 0 0  0 0 0 0.286741395 0" type="matrix" in="shadowBlurOuter1" result="shadowMatrixOuter1"></feColorMatrix>
            <feMerge>
                <feMergeNode in="shadowMatrixOuter1"></feMergeNode>
                <feMergeNode in="SourceGraphic"></feMergeNode>
            </feMerge>
        </filter>
    </defs>
    <g id="Marketing-2.0" stroke="none" stroke-width="1" fill="none" fill-rule="evenodd">
        <g id="Group-36">
            <g id="Group-27">
                <ellipse id="Oval" fill="#F1F5FF" cx="109.5" cy="69" rx="109.5" ry="69"></ellipse>
                <g id="Group-9" transform="translate(66.000000, 45.000000)">
                    <g id="Group-8">
                        <rect id="Rectangle" stroke="#E6EEF1" stroke-width="5.4" fill="#FFFFFF" x="-2.7" y="-2.7" width="511.64" height="333.4" rx="6.4"></rect>
                        <g id="Group-7">
                            <g id="Rectangle">
                                <use fill="black" fill-opacity="1" filter="url(#filter-2)" xlink:href="#path-1"></use>
                                <use fill="#FFFFFF" fill-rule="evenodd" xlink:href="#path-1"></use>
                            </g>
                            <rect id="Rectangle" fill="#F1F3F4" x="39.68" y="5.44" width="407.04" height="19.2" rx="9.6"></rect>
                            <path d="M55.2416,17.6 L55.80736,15.4368 C55.8628267,15.2426667 55.9127467,15.04992 55.95712,14.85856 C56.0014933,14.6672 56.0458667,14.4689067 56.09024,14.26368 L56.09024,14.26368 L56.12352,14.26368 C56.17344,14.4689067 56.2192,14.6658133 56.2608,14.8544 C56.3024,15.0429867 56.34816,15.2343467 56.39808,15.42848 L56.39808,15.42848 L56.98048,17.6 L57.81248,17.6 L58.89408,13.55648 L58.24512,13.55648 L57.6544,15.8944 C57.6100267,16.0885333 57.5684267,16.27712 57.5296,16.46016 C57.4907733,16.6432 57.4491733,16.8290133 57.4048,17.0176 L57.4048,17.0176 L57.37152,17.0176 C57.3271467,16.8290133 57.2813867,16.6432 57.23424,16.46016 C57.1870933,16.27712 57.13856,16.0885333 57.08864,15.8944 L57.08864,15.8944 L56.45632,13.55648 L55.79072,13.55648 L55.16672,15.8944 C55.1168,16.0829867 55.0696533,16.2701867 55.02528,16.456 C54.9809067,16.6418133 54.9365333,16.8290133 54.89216,17.0176 L54.89216,17.0176 L54.85888,17.0176 C54.8200533,16.8290133 54.7812267,16.6432 54.7424,16.46016 C54.7035733,16.27712 54.6619733,16.0885333 54.6176,15.8944 L54.6176,15.8944 L54.01856,13.55648 L53.31968,13.55648 L54.44288,17.6 L55.2416,17.6 Z M61.21536,17.6 L61.78112,15.4368 C61.8365867,15.2426667 61.8865067,15.04992 61.93088,14.85856 C61.9752533,14.6672 62.0196267,14.4689067 62.064,14.26368 L62.064,14.26368 L62.09728,14.26368 C62.1472,14.4689067 62.19296,14.6658133 62.23456,14.8544 C62.27616,15.0429867 62.32192,15.2343467 62.37184,15.42848 L62.37184,15.42848 L62.95424,17.6 L63.78624,17.6 L64.86784,13.55648 L64.21888,13.55648 L63.62816,15.8944 C63.5837867,16.0885333 63.5421867,16.27712 63.50336,16.46016 C63.4645333,16.6432 63.4229333,16.8290133 63.37856,17.0176 L63.37856,17.0176 L63.34528,17.0176 C63.3009067,16.8290133 63.2551467,16.6432 63.208,16.46016 C63.1608533,16.27712 63.11232,16.0885333 63.0624,15.8944 L63.0624,15.8944 L62.43008,13.55648 L61.76448,13.55648 L61.14048,15.8944 C61.09056,16.0829867 61.0434133,16.2701867 60.99904,16.456 C60.9546667,16.6418133 60.9102933,16.8290133 60.86592,17.0176 L60.86592,17.0176 L60.83264,17.0176 C60.7938133,16.8290133 60.7549867,16.6432 60.71616,16.46016 C60.6773333,16.27712 60.6357333,16.0885333 60.59136,15.8944 L60.59136,15.8944 L59.99232,13.55648 L59.29344,13.55648 L60.41664,17.6 L61.21536,17.6 Z M67.18912,17.6 L67.75488,15.4368 C67.8103467,15.2426667 67.8602667,15.04992 67.90464,14.85856 C67.9490133,14.6672 67.9933867,14.4689067 68.03776,14.26368 L68.03776,14.26368 L68.07104,14.26368 C68.12096,14.4689067 68.16672,14.6658133 68.20832,14.8544 C68.24992,15.0429867 68.29568,15.2343467 68.3456,15.42848 L68.3456,15.42848 L68.928,17.6 L69.76,17.6 L70.8416,13.55648 L70.19264,13.55648 L69.60192,15.8944 C69.5575467,16.0885333 69.5159467,16.27712 69.47712,16.46016 C69.4382933,16.6432 69.3966933,16.8290133 69.35232,17.0176 L69.35232,17.0176 L69.31904,17.0176 C69.2746667,16.8290133 69.2289067,16.6432 69.18176,16.46016 C69.1346133,16.27712 69.08608,16.0885333 69.03616,15.8944 L69.03616,15.8944 L68.40384,13.55648 L67.73824,13.55648 L67.11424,15.8944 C67.06432,16.0829867 67.0171733,16.2701867 66.9728,16.456 C66.9284267,16.6418133 66.8840533,16.8290133 66.83968,17.0176 L66.83968,17.0176 L66.8064,17.0176 C66.7675733,16.8290133 66.7287467,16.6432 66.68992,16.46016 C66.6510933,16.27712 66.6094933,16.0885333 66.56512,15.8944 L66.56512,15.8944 L65.96608,13.55648 L65.2672,13.55648 L66.3904,17.6 L67.18912,17.6 Z M72.08128,17.69984 C72.2144,17.69984 72.3294933,17.6513067 72.42656,17.55424 C72.5236267,17.4571733 72.57216,17.33376 72.57216,17.184 C72.57216,17.0231467 72.5236267,16.8941867 72.42656,16.79712 C72.3294933,16.7000533 72.2144,16.65152 72.08128,16.65152 C71.9426133,16.65152 71.8247467,16.7000533 71.72768,16.79712 C71.6306133,16.8941867 71.58208,17.0231467 71.58208,17.184 C71.58208,17.33376 71.6306133,17.4571733 71.72768,17.55424 C71.8247467,17.6513067 71.9426133,17.69984 72.08128,17.69984 Z M73.86176,19.33888 C74.0669867,19.33888 74.2472533,19.3028267 74.40256,19.23072 C74.5578667,19.1586133 74.6965333,19.06016 74.81856,18.93536 C74.9405867,18.81056 75.0459733,18.6621867 75.13472,18.49024 C75.2234667,18.3182933 75.3038933,18.13248 75.376,17.9328 L75.376,17.9328 L76.89856,13.55648 L76.23296,13.55648 L75.50912,15.79456 C75.4536533,15.9720533 75.3981867,16.16064 75.34272,16.36032 C75.2872533,16.56 75.2290133,16.75136 75.168,16.9344 L75.168,16.9344 L75.13472,16.9344 C75.0737067,16.7458133 75.0085333,16.5530667 74.9392,16.35616 C74.8698667,16.1592533 74.8046933,15.9720533 74.74368,15.79456 L74.74368,15.79456 L73.92,13.55648 L73.2128,13.55648 L74.8352,17.60832 L74.74368,17.90784 C74.66048,18.15744 74.5453867,18.3640533 74.3984,18.52768 C74.2514133,18.6913067 74.06144,18.77312 73.82848,18.77312 C73.77856,18.77312 73.7258667,18.7661867 73.6704,18.75232 C73.6149333,18.7384533 73.5650133,18.7259733 73.52064,18.71488 L73.52064,18.71488 L73.38752,19.25568 C73.45408,19.2834133 73.5261867,19.3042133 73.60384,19.31808 C73.6814933,19.3319467 73.7674667,19.33888 73.86176,19.33888 Z M79.25312,17.69984 C79.50272,17.69984 79.73984,17.6526933 79.96448,17.5584 C80.18912,17.4641067 80.3874133,17.3268267 80.55936,17.14656 C80.7313067,16.9662933 80.8685867,16.7444267 80.9712,16.48096 C81.0738133,16.2174933 81.12512,15.91936 81.12512,15.58656 C81.12512,15.2482133 81.0738133,14.9473067 80.9712,14.68384 C80.8685867,14.4203733 80.7313067,14.19712 80.55936,14.01408 C80.3874133,13.83104 80.18912,13.6923733 79.96448,13.59808 C79.73984,13.5037867 79.50272,13.45664 79.25312,13.45664 C79.00352,13.45664 78.7664,13.5037867 78.54176,13.59808 C78.31712,13.6923733 78.1188267,13.83104 77.94688,14.01408 C77.7749333,14.19712 77.6376533,14.4203733 77.53504,14.68384 C77.4324267,14.9473067 77.38112,15.2482133 77.38112,15.58656 C77.38112,15.91936 77.4324267,16.2174933 77.53504,16.48096 C77.6376533,16.7444267 77.7749333,16.9662933 77.94688,17.14656 C78.1188267,17.3268267 78.31712,17.4641067 78.54176,17.5584 C78.7664,17.6526933 79.00352,17.69984 79.25312,17.69984 Z M79.25312,17.13408 C79.0811733,17.13408 78.9230933,17.09664 78.77888,17.02176 C78.6346667,16.94688 78.5112533,16.8414933 78.40864,16.7056 C78.3060267,16.5697067 78.2269867,16.4074667 78.17152,16.21888 C78.1160533,16.0302933 78.08832,15.81952 78.08832,15.58656 C78.08832,15.3536 78.1160533,15.14144 78.17152,14.95008 C78.2269867,14.75872 78.3060267,14.5937067 78.40864,14.45504 C78.5112533,14.3163733 78.6346667,14.2096 78.77888,14.13472 C78.9230933,14.05984 79.0811733,14.0224 79.25312,14.0224 C79.4250667,14.0224 79.5831467,14.05984 79.72736,14.13472 C79.8715733,14.2096 79.9949867,14.3163733 80.0976,14.45504 C80.2002133,14.5937067 80.2792533,14.75872 80.33472,14.95008 C80.3901867,15.14144 80.41792,15.3536 80.41792,15.58656 C80.41792,15.81952 80.3901867,16.0302933 80.33472,16.21888 C80.2792533,16.4074667 80.2002133,16.5697067 80.0976,16.7056 C79.9949867,16.8414933 79.8715733,16.94688 79.72736,17.02176 C79.5831467,17.09664 79.4250667,17.13408 79.25312,17.13408 Z M83.37152,17.69984 C83.6544,17.69984 83.89984,17.63328 84.10784,17.50016 C84.31584,17.36704 84.5141333,17.1895467 84.70272,16.96768 L84.70272,16.96768 L84.72768,16.96768 L84.78592,17.6 L85.35168,17.6 L85.35168,13.55648 L84.66944,13.55648 L84.66944,16.42688 C84.4753067,16.6653867 84.2978133,16.83872 84.13696,16.94688 C83.9761067,17.05504 83.7902933,17.10912 83.57952,17.10912 C83.31328,17.10912 83.1205333,17.0245333 83.00128,16.85536 C82.8820267,16.6861867 82.8224,16.41024 82.8224,16.02752 L82.8224,16.02752 L82.8224,13.55648 L82.13184,13.55648 L82.13184,16.11904 C82.13184,16.6404267 82.2302933,17.03424 82.4272,17.30048 C82.6241067,17.56672 82.93888,17.69984 83.37152,17.69984 Z M87.3984,17.6 L87.3984,15.00416 C87.5370667,14.6602667 87.6993067,14.4189867 87.88512,14.28032 C88.0709333,14.1416533 88.2498133,14.07232 88.42176,14.07232 C88.50496,14.07232 88.5742933,14.0778667 88.62976,14.08896 C88.6852267,14.1000533 88.74624,14.1166933 88.8128,14.13888 L88.8128,14.13888 L88.94592,13.53984 C88.8183467,13.4843733 88.6741333,13.45664 88.51328,13.45664 C88.28032,13.45664 88.0653867,13.53152 87.86848,13.68128 C87.6715733,13.83104 87.5037867,14.0334933 87.36512,14.28864 L87.36512,14.28864 L87.34016,14.28864 L87.28192,13.55648 L86.71616,13.55648 L86.71616,17.6 L87.3984,17.6 Z M91.04256,17.6 L91.60832,15.4368 C91.6637867,15.2426667 91.7137067,15.04992 91.75808,14.85856 C91.8024533,14.6672 91.8468267,14.4689067 91.8912,14.26368 L91.8912,14.26368 L91.92448,14.26368 C91.9744,14.4689067 92.02016,14.6658133 92.06176,14.8544 C92.10336,15.0429867 92.14912,15.2343467 92.19904,15.42848 L92.19904,15.42848 L92.78144,17.6 L93.61344,17.6 L94.69504,13.55648 L94.04608,13.55648 L93.45536,15.8944 C93.4109867,16.0885333 93.3693867,16.27712 93.33056,16.46016 C93.2917333,16.6432 93.2501333,16.8290133 93.20576,17.0176 L93.20576,17.0176 L93.17248,17.0176 C93.1281067,16.8290133 93.0823467,16.6432 93.0352,16.46016 C92.9880533,16.27712 92.93952,16.0885333 92.8896,15.8944 L92.8896,15.8944 L92.25728,13.55648 L91.59168,13.55648 L90.96768,15.8944 C90.91776,16.0829867 90.8706133,16.2701867 90.82624,16.456 C90.7818667,16.6418133 90.7374933,16.8290133 90.69312,17.0176 L90.69312,17.0176 L90.65984,17.0176 C90.6210133,16.8290133 90.5821867,16.6432 90.54336,16.46016 C90.5045333,16.27712 90.4629333,16.0885333 90.41856,15.8944 L90.41856,15.8944 L89.81952,13.55648 L89.12064,13.55648 L90.24384,17.6 L91.04256,17.6 Z M97.216,17.69984 C97.4933333,17.69984 97.74016,17.65824 97.95648,17.57504 C98.1728,17.49184 98.3697067,17.3947733 98.5472,17.28384 L98.5472,17.28384 L98.30592,16.83456 C98.15616,16.9288533 97.9994667,17.00512 97.83584,17.06336 C97.6722133,17.1216 97.4933333,17.15072 97.2992,17.15072 C96.9109333,17.15072 96.59616,17.0231467 96.35488,16.768 C96.1136,16.5128533 95.9790933,16.1661867 95.95136,15.728 L95.95136,15.728 L98.68032,15.728 C98.69696,15.62816 98.70528,15.50336 98.70528,15.3536 C98.70528,15.0651733 98.6692267,14.80448 98.59712,14.57152 C98.5250133,14.33856 98.4210133,14.13888 98.28512,13.97248 C98.1492267,13.80608 97.9800533,13.6785067 97.7776,13.58976 C97.5751467,13.5010133 97.3463467,13.45664 97.0912,13.45664 C96.85824,13.45664 96.6336,13.5051733 96.41728,13.60224 C96.20096,13.6993067 96.0082133,13.83936 95.83904,14.0224 C95.6698667,14.20544 95.5339733,14.4286933 95.43136,14.69216 C95.3287467,14.9556267 95.27744,15.25376 95.27744,15.58656 C95.27744,15.91936 95.32736,16.2161067 95.4272,16.4768 C95.52704,16.7374933 95.66432,16.9579733 95.83904,17.13824 C96.01376,17.3185067 96.2189867,17.4571733 96.45472,17.55424 C96.6904533,17.6513067 96.9442133,17.69984 97.216,17.69984 Z M98.10624,15.27872 L95.94304,15.27872 C95.9652267,15.0734933 96.0109867,14.89184 96.08032,14.73376 C96.1496533,14.57568 96.2370133,14.44256 96.3424,14.3344 C96.4477867,14.22624 96.5656533,14.14304 96.696,14.0848 C96.8263467,14.02656 96.9636267,13.99744 97.10784,13.99744 C97.424,13.99744 97.66944,14.1069867 97.84416,14.32608 C98.01888,14.5451733 98.10624,14.86272 98.10624,15.27872 L98.10624,15.27872 Z M101.49248,17.69984 C101.72544,17.69984 101.947307,17.6513067 102.15808,17.55424 C102.368853,17.4571733 102.554667,17.3143467 102.71552,17.12576 C102.876373,16.9371733 103.003947,16.7069867 103.09824,16.4352 C103.192533,16.1634133 103.23968,15.8555733 103.23968,15.51168 C103.23968,15.2010667 103.205013,14.9195733 103.13568,14.6672 C103.066347,14.4148267 102.963733,14.1985067 102.82784,14.01824 C102.691947,13.8379733 102.52416,13.6993067 102.32448,13.60224 C102.1248,13.5051733 101.894613,13.45664 101.63392,13.45664 C101.406507,13.45664 101.18464,13.51072 100.96832,13.61888 C100.752,13.72704 100.55232,13.8615467 100.36928,14.0224 L100.36928,14.0224 L100.38592,13.29024 L100.38592,11.67616 L99.70368,11.67616 L99.70368,17.6 L100.2528,17.6 L100.31104,17.20064 L100.336,17.20064 C100.513493,17.3614933 100.703467,17.4849067 100.90592,17.57088 C101.108373,17.6568533 101.303893,17.69984 101.49248,17.69984 Z M101.376,17.12576 C101.24288,17.12576 101.08896,17.0938667 100.91424,17.03008 C100.73952,16.9662933 100.563413,16.8567467 100.38592,16.70144 L100.38592,16.70144 L100.38592,14.57984 C100.779733,14.21376 101.140267,14.03072 101.46752,14.03072 C101.656107,14.03072 101.818347,14.0667733 101.95424,14.13888 C102.090133,14.2109867 102.201067,14.3122133 102.28704,14.44256 C102.373013,14.5729067 102.435413,14.7296 102.47424,14.91264 C102.513067,15.09568 102.53248,15.2981333 102.53248,15.52 C102.53248,15.7696 102.50336,15.99424 102.44512,16.19392 C102.38688,16.3936 102.306453,16.5613867 102.20384,16.69728 C102.101227,16.8331733 101.9792,16.93856 101.83776,17.01344 C101.69632,17.08832 101.5424,17.12576 101.376,17.12576 Z M105.37792,17.69984 C105.616427,17.69984 105.828587,17.6679467 106.0144,17.60416 C106.200213,17.5403733 106.35552,17.4530133 106.48032,17.34208 C106.60512,17.2311467 106.699413,17.1035733 106.7632,16.95936 C106.826987,16.8151467 106.85888,16.65984 106.85888,16.49344 C106.85888,16.3048533 106.82144,16.144 106.74656,16.01088 C106.67168,15.87776 106.576,15.76544 106.45952,15.67392 C106.34304,15.5824 106.211307,15.5061333 106.06432,15.44512 C105.917333,15.3841067 105.771733,15.3258667 105.62752,15.2704 C105.51104,15.2260267 105.39872,15.18304 105.29056,15.14144 C105.1824,15.09984 105.08672,15.0526933 105.00352,15 C104.92032,14.9473067 104.85376,14.8862933 104.80384,14.81696 C104.75392,14.7476267 104.72896,14.6658133 104.72896,14.57152 C104.72896,14.4162133 104.788587,14.28032 104.90784,14.16384 C105.027093,14.04736 105.214293,13.98912 105.46944,13.98912 C105.646933,13.98912 105.81056,14.0224 105.96032,14.08896 C106.11008,14.15552 106.254293,14.2414933 106.39296,14.34688 L106.39296,14.34688 L106.71744,13.91424 C106.562133,13.7866667 106.377707,13.6785067 106.16416,13.58976 C105.950613,13.5010133 105.716267,13.45664 105.46112,13.45664 C105.2448,13.45664 105.050667,13.48576 104.87872,13.544 C104.706773,13.60224 104.561173,13.6826667 104.44192,13.78528 C104.322667,13.8878933 104.231147,14.00992 104.16736,14.15136 C104.103573,14.2928 104.07168,14.4439467 104.07168,14.6048 C104.07168,14.7767467 104.107733,14.9237333 104.17984,15.04576 C104.251947,15.1677867 104.344853,15.27456 104.45856,15.36608 C104.572267,15.4576 104.701227,15.5352533 104.84544,15.59904 C104.989653,15.6628267 105.133867,15.71968 105.27808,15.7696 L105.27808,15.7696 L105.61088,15.90272 C105.721813,15.9470933 105.820267,15.9984 105.90624,16.05664 C105.992213,16.11488 106.062933,16.1828267 106.1184,16.26048 C106.173867,16.3381333 106.2016,16.4296533 106.2016,16.53504 C106.2016,16.7125333 106.13504,16.8622933 106.00192,16.98432 C105.8688,17.1063467 105.66912,17.16736 105.40288,17.16736 C105.158827,17.16736 104.943893,17.1229867 104.75808,17.03424 C104.572267,16.9454933 104.390613,16.8290133 104.21312,16.6848 L104.21312,16.6848 L103.872,17.1424 C104.066133,17.3032533 104.293547,17.4363733 104.55424,17.54176 C104.814933,17.6471467 105.089493,17.69984 105.37792,17.69984 Z M108.1568,12.72448 C108.28992,12.72448 108.40224,12.68288 108.49376,12.59968 C108.58528,12.51648 108.63104,12.4110933 108.63104,12.28352 C108.63104,12.1504 108.58528,12.0436267 108.49376,11.9632 C108.40224,11.8827733 108.28992,11.84256 108.1568,11.84256 C108.02368,11.84256 107.91136,11.8827733 107.81984,11.9632 C107.72832,12.0436267 107.68256,12.1504 107.68256,12.28352 C107.68256,12.4110933 107.72832,12.51648 107.81984,12.59968 C107.91136,12.68288 108.02368,12.72448 108.1568,12.72448 Z M108.4896,17.6 L108.4896,13.55648 L107.80736,13.55648 L107.80736,17.6 L108.4896,17.6 Z M111.12704,17.69984 C111.254613,17.69984 111.383573,17.6845867 111.51392,17.65408 C111.644267,17.6235733 111.764907,17.5889067 111.87584,17.55008 L111.87584,17.55008 L111.74272,17.03424 C111.67616,17.0619733 111.60128,17.0869333 111.51808,17.10912 C111.43488,17.1313067 111.357227,17.1424 111.28512,17.1424 C111.05216,17.1424 110.88992,17.0744533 110.7984,16.93856 C110.70688,16.8026667 110.66112,16.60992 110.66112,16.36032 L110.66112,16.36032 L110.66112,14.11392 L111.75104,14.11392 L111.75104,13.55648 L110.66112,13.55648 L110.66112,12.42496 L110.08704,12.42496 L110.00384,13.55648 L109.37152,13.59808 L109.37152,14.11392 L109.97056,14.11392 L109.97056,16.352 C109.97056,16.55168 109.989973,16.73472 110.0288,16.90112 C110.067627,17.06752 110.1328,17.20896 110.22432,17.32544 C110.31584,17.44192 110.435093,17.53344 110.58208,17.6 C110.729067,17.66656 110.91072,17.69984 111.12704,17.69984 Z M114.30528,17.69984 C114.582613,17.69984 114.82944,17.65824 115.04576,17.57504 C115.26208,17.49184 115.458987,17.3947733 115.63648,17.28384 L115.63648,17.28384 L115.3952,16.83456 C115.24544,16.9288533 115.088747,17.00512 114.92512,17.06336 C114.761493,17.1216 114.582613,17.15072 114.38848,17.15072 C114.000213,17.15072 113.68544,17.0231467 113.44416,16.768 C113.20288,16.5128533 113.068373,16.1661867 113.04064,15.728 L113.04064,15.728 L115.7696,15.728 C115.78624,15.62816 115.79456,15.50336 115.79456,15.3536 C115.79456,15.0651733 115.758507,14.80448 115.6864,14.57152 C115.614293,14.33856 115.510293,14.13888 115.3744,13.97248 C115.238507,13.80608 115.069333,13.6785067 114.86688,13.58976 C114.664427,13.5010133 114.435627,13.45664 114.18048,13.45664 C113.94752,13.45664 113.72288,13.5051733 113.50656,13.60224 C113.29024,13.6993067 113.097493,13.83936 112.92832,14.0224 C112.759147,14.20544 112.623253,14.4286933 112.52064,14.69216 C112.418027,14.9556267 112.36672,15.25376 112.36672,15.58656 C112.36672,15.91936 112.41664,16.2161067 112.51648,16.4768 C112.61632,16.7374933 112.7536,16.9579733 112.92832,17.13824 C113.10304,17.3185067 113.308267,17.4571733 113.544,17.55424 C113.779733,17.6513067 114.033493,17.69984 114.30528,17.69984 Z M115.19552,15.27872 L113.03232,15.27872 C113.054507,15.0734933 113.100267,14.89184 113.1696,14.73376 C113.238933,14.57568 113.326293,14.44256 113.43168,14.3344 C113.537067,14.22624 113.654933,14.14304 113.78528,14.0848 C113.915627,14.02656 114.052907,13.99744 114.19712,13.99744 C114.51328,13.99744 114.75872,14.1069867 114.93344,14.32608 C115.10816,14.5451733 115.19552,14.86272 115.19552,15.27872 L115.19552,15.27872 Z M117.15072,17.69984 C117.28384,17.69984 117.398933,17.6513067 117.496,17.55424 C117.593067,17.4571733 117.6416,17.33376 117.6416,17.184 C117.6416,17.0231467 117.593067,16.8941867 117.496,16.79712 C117.398933,16.7000533 117.28384,16.65152 117.15072,16.65152 C117.012053,16.65152 116.894187,16.7000533 116.79712,16.79712 C116.700053,16.8941867 116.65152,17.0231467 116.65152,17.184 C116.65152,17.33376 116.700053,17.4571733 116.79712,17.55424 C116.894187,17.6513067 117.012053,17.69984 117.15072,17.69984 Z M120.46208,17.69984 C120.706133,17.69984 120.94048,17.6526933 121.16512,17.5584 C121.38976,17.4641067 121.5936,17.3365333 121.77664,17.17568 L121.77664,17.17568 L121.4688,16.7264 C121.346773,16.8373333 121.20672,16.9330133 121.04864,17.01344 C120.89056,17.0938667 120.714453,17.13408 120.52032,17.13408 C120.33728,17.13408 120.168107,17.09664 120.0128,17.02176 C119.857493,16.94688 119.72576,16.8414933 119.6176,16.7056 C119.50944,16.5697067 119.424853,16.4074667 119.36384,16.21888 C119.302827,16.0302933 119.27232,15.81952 119.27232,15.58656 C119.27232,15.3536 119.304213,15.14144 119.368,14.95008 C119.431787,14.75872 119.519147,14.5937067 119.63008,14.45504 C119.741013,14.3163733 119.874133,14.2096 120.02944,14.13472 C120.184747,14.05984 120.35392,14.0224 120.53696,14.0224 C120.697813,14.0224 120.843413,14.05568 120.97376,14.12224 C121.104107,14.1888 121.230293,14.2747733 121.35232,14.38016 L121.35232,14.38016 L121.69344,13.9392 C121.554773,13.8116267 121.38976,13.6993067 121.1984,13.60224 C121.00704,13.5051733 120.77824,13.45664 120.512,13.45664 C120.251307,13.45664 120.003093,13.5037867 119.76736,13.59808 C119.531627,13.6923733 119.325013,13.83104 119.14752,14.01408 C118.970027,14.19712 118.828587,14.4203733 118.7232,14.68384 C118.617813,14.9473067 118.56512,15.2482133 118.56512,15.58656 C118.56512,15.91936 118.613653,16.2174933 118.71072,16.48096 C118.807787,16.7444267 118.940907,16.9662933 119.11008,17.14656 C119.279253,17.3268267 119.48032,17.4641067 119.71328,17.5584 C119.94624,17.6526933 120.19584,17.69984 120.46208,17.69984 Z M124.23104,17.69984 C124.48064,17.69984 124.71776,17.6526933 124.9424,17.5584 C125.16704,17.4641067 125.365333,17.3268267 125.53728,17.14656 C125.709227,16.9662933 125.846507,16.7444267 125.94912,16.48096 C126.051733,16.2174933 126.10304,15.91936 126.10304,15.58656 C126.10304,15.2482133 126.051733,14.9473067 125.94912,14.68384 C125.846507,14.4203733 125.709227,14.19712 125.53728,14.01408 C125.365333,13.83104 125.16704,13.6923733 124.9424,13.59808 C124.71776,13.5037867 124.48064,13.45664 124.23104,13.45664 C123.98144,13.45664 123.74432,13.5037867 123.51968,13.59808 C123.29504,13.6923733 123.096747,13.83104 122.9248,14.01408 C122.752853,14.19712 122.615573,14.4203733 122.51296,14.68384 C122.410347,14.9473067 122.35904,15.2482133 122.35904,15.58656 C122.35904,15.91936 122.410347,16.2174933 122.51296,16.48096 C122.615573,16.7444267 122.752853,16.9662933 122.9248,17.14656 C123.096747,17.3268267 123.29504,17.4641067 123.51968,17.5584 C123.74432,17.6526933 123.98144,17.69984 124.23104,17.69984 Z M124.23104,17.13408 C124.059093,17.13408 123.901013,17.09664 123.7568,17.02176 C123.612587,16.94688 123.489173,16.8414933 123.38656,16.7056 C123.283947,16.5697067 123.204907,16.4074667 123.14944,16.21888 C123.093973,16.0302933 123.06624,15.81952 123.06624,15.58656 C123.06624,15.3536 123.093973,15.14144 123.14944,14.95008 C123.204907,14.75872 123.283947,14.5937067 123.38656,14.45504 C123.489173,14.3163733 123.612587,14.2096 123.7568,14.13472 C123.901013,14.05984 124.059093,14.0224 124.23104,14.0224 C124.402987,14.0224 124.561067,14.05984 124.70528,14.13472 C124.849493,14.2096 124.972907,14.3163733 125.07552,14.45504 C125.178133,14.5937067 125.257173,14.75872 125.31264,14.95008 C125.368107,15.14144 125.39584,15.3536 125.39584,15.58656 C125.39584,15.81952 125.368107,16.0302933 125.31264,16.21888 C125.257173,16.4074667 125.178133,16.5697067 125.07552,16.7056 C124.972907,16.8414933 124.849493,16.94688 124.70528,17.02176 C124.561067,17.09664 124.402987,17.13408 124.23104,17.13408 Z M127.85024,17.6 L127.85024,14.67136 C128.221867,14.25536 128.560213,14.04736 128.86528,14.04736 C129.125973,14.04736 129.317333,14.1319467 129.43936,14.30112 C129.561387,14.4702933 129.6224,14.74624 129.6224,15.12896 L129.6224,15.12896 L129.6224,17.6 L130.30464,17.6 L130.30464,14.67136 C130.676267,14.25536 131.014613,14.04736 131.31968,14.04736 C131.574827,14.04736 131.763413,14.1319467 131.88544,14.30112 C132.007467,14.4702933 132.06848,14.74624 132.06848,15.12896 L132.06848,15.12896 L132.06848,17.6 L132.75072,17.6 L132.75072,15.03744 C132.75072,14.5160533 132.649493,14.12224 132.44704,13.856 C132.244587,13.58976 131.93536,13.45664 131.51936,13.45664 C131.26976,13.45664 131.038187,13.52736 130.82464,13.6688 C130.611093,13.81024 130.398933,13.99744 130.18816,14.2304 C130.10496,13.9863467 129.976,13.7963733 129.80128,13.66048 C129.62656,13.5245867 129.383893,13.45664 129.07328,13.45664 C128.829227,13.45664 128.6032,13.5218133 128.3952,13.65216 C128.1872,13.7825067 127.994453,13.9447467 127.81696,14.13888 L127.81696,14.13888 L127.792,14.13888 L127.73376,13.55648 L127.168,13.55648 L127.168,17.6 L127.85024,17.6 Z" id="www.yourwebsite.com" fill="#1F2024" fill-rule="nonzero"></path>
                            <g id="Group-15" transform="translate(481.120000, 11.040000)">
                                <g id="Group-14" fill="#AEB3B9">
                                    <rect id="Rectangle" x="0.16" y="0.48" width="8.96" height="2.13333333" rx="1.024"></rect>
                                    <rect id="Rectangle" x="0.16" y="3.89333333" width="8.96" height="2.13333333" rx="1.024"></rect>
                                    <rect id="Rectangle" x="0.16" y="7.30666667" width="8.96" height="2.13333333" rx="1.024"></rect>
                                </g>
                                <g id="Group-13" transform="translate(0.160000, 0.480000)"></g>
                            </g>
                            <g id="Group-4" transform="translate(8.960000, 13.440000)" fill="#F1F3F4">
                                <circle id="Oval" cx="19.52" cy="2.88" r="2.88"></circle>
                                <circle id="Oval" cx="11.2" cy="2.88" r="2.88"></circle>
                                <circle id="Oval" cx="2.88" cy="2.88" r="2.88"></circle>
                            </g>
                        </g>
                    </g>
                    <g id="Group-17" transform="translate(13.000000, 40.000000)" fill="#E6EEF1">
                        <rect id="Rectangle" x="0.44" y="0.32" width="65.28" height="21.76"></rect>
                        <rect id="Rectangle" x="3.64" y="157.76" width="146.56" height="111"></rect>
                        <rect id="Rectangle" x="166.84" y="157.76" width="146.56" height="111"></rect>
                        <rect id="Rectangle" x="330.04" y="157.76" width="146.56" height="111"></rect>
                        <rect id="Rectangle" x="216.12" y="62.4" width="65.28" height="9.6"></rect>
                        <rect id="Rectangle" x="180.92" y="86.72" width="135.68" height="9.6"></rect>
                        <rect id="Rectangle" x="337.08" y="8" width="65.28" height="6.4"></rect>
                        <rect id="Rectangle" x="410.68" y="8" width="65.28" height="6.4"></rect>
                    </g>
                    <g id="Group-5" transform="translate(16.640000, 197.760000)"></g>
                </g>
                <g id="Group-23" transform="translate(249.000000, 159.000000)">
                    <g id="Group-16">
                        <g id="Group-20" transform="translate(0.000000, 0.000000)">
                            <g id="Group-10" transform="translate(0.000000, 0.000000)">
                                <g id="Group-11" transform="translate(6.000000, 68.384000)">
                                    <g id="Combined-Shape">
                                        <use fill="black" fill-opacity="1" filter="url(#filter-4)" xlink:href="#path-3"></use>
                                        <path stroke="#D0D0D0" stroke-width="1.024" d="M41.0984199,2.33000836 L34.1077186,9.304 L3.2,9.304 C2.4577293,9.304 1.7857293,9.60486465 1.29929697,10.091297 C0.812864648,10.5777293 0.512,11.2497293 0.512,11.992 L0.512,202.2 C0.512,202.942271 0.812864648,203.614271 1.29929697,204.100703 C1.7857293,204.587135 2.4577293,204.888 3.2,204.888 L347.008,204.888 C347.750271,204.888 348.422271,204.587135 348.908703,204.100703 C349.395135,203.614271 349.696,202.942271 349.696,202.2 L349.696,11.992 C349.696,11.2497293 349.395135,10.5777293 348.908703,10.091297 C348.422271,9.60486465 347.750271,9.304 347.008,9.304 L48.8077799,9.304 L41.0984199,2.33000836 Z" stroke-linejoin="square" fill="#FFFFFF" fill-rule="evenodd"></path>
                                    </g>
                                    <path d="M233.06,175.664 L233.06,173.772 L224.128,173.772 C223.218667,173.772 222.441333,173.456667 221.796,172.826 C221.150667,172.195333 220.828,171.425333 220.828,170.516 C220.828,169.606667 221.150667,168.829333 221.796,168.184 C222.441333,167.538667 223.218667,167.216 224.128,167.216 L224.128,167.216 L233.984,167.216 C234.482667,167.216 234.922667,167.406667 235.304,167.788 C235.685333,168.169333 235.876,168.609333 235.876,169.108 C235.876,169.606667 235.685333,170.039333 235.304,170.406 C234.922667,170.772667 234.482667,170.956 233.984,170.956 L233.984,170.956 L225.932,170.956 C225.668,170.956 225.536,170.802 225.536,170.494 C225.536,170.186 225.668,170.032 225.932,170.032 L225.932,170.032 L233.06,170.032 L233.06,168.14 L226.02,168.14 C225.374667,168.14 224.817333,168.374667 224.348,168.844 C223.878667,169.313333 223.644,169.870667 223.644,170.516 C223.644,171.161333 223.878667,171.711333 224.348,172.166 C224.817333,172.620667 225.374667,172.848 226.02,172.848 L226.02,172.848 L233.984,172.848 C235.010667,172.848 235.890667,172.481333 236.624,171.748 C237.357333,171.014667 237.724,170.134667 237.724,169.108 C237.724,168.081333 237.357333,167.194 236.624,166.446 C235.890667,165.698 235.010667,165.324 233.984,165.324 L233.984,165.324 L224.128,165.324 C222.690667,165.324 221.473333,165.83 220.476,166.842 C219.478667,167.854 218.98,169.078667 218.98,170.516 C218.98,171.953333 219.478667,173.170667 220.476,174.168 C221.473333,175.165333 222.690667,175.664 224.128,175.664 L224.128,175.664 L233.06,175.664 Z" id="a" fill="#7F8FA4" fill-rule="nonzero"></path>
                                    <g id="Group-42" transform="translate(133.040000, 11.616000) scale(1, -1) rotate(90.000000) translate(-133.040000, -11.616000) translate(122.040000, -6.384000)">
                                        <g id="Group-7" transform="translate(10.752000, 17.920000) scale(-1, 1) translate(-10.752000, -17.920000) "></g>
                                    </g>
                                    <g id="Group-9" transform="translate(252.928000, 152.152000)">
                                        <g id="Dynamic-group">
                                            <rect id="BG" fill="#0042FF" x="0" y="0" width="75.776" height="33.792" rx="4.096"></rect>
                                            <path d="M16.381952,21.216 L16.873472,19.31136 L19.318784,19.31136 L19.810304,21.216 L21.727232,21.216 L19.22048,13.204224 L17.045504,13.204224 L14.538752,21.216 L16.381952,21.216 Z M18.950144,17.89824 L17.242112,17.89824 L17.43872,17.16096 C17.553408,16.759552 17.661952,16.335616 17.764352,15.889152 C17.866752,15.442688 17.967104,15.006464 18.065408,14.58048 L18.065408,14.58048 L18.11456,14.58048 C18.221056,14.998272 18.327552,15.432448 18.434048,15.883008 C18.540544,16.333568 18.651136,16.759552 18.765824,17.16096 L18.765824,17.16096 L18.950144,17.89824 Z M24.6272,21.363456 C24.922112,21.363456 25.212928,21.291776 25.499648,21.148416 C25.786368,21.005056 26.036224,20.82688 26.249216,20.613888 L26.249216,20.613888 L26.298368,20.613888 L26.421248,21.216 L27.895808,21.216 L27.895808,12.602112 L26.089472,12.602112 L26.089472,14.678784 L26.1632,15.612672 C25.950208,15.416064 25.73312,15.260416 25.511936,15.145728 C25.290752,15.03104 25.008128,14.973696 24.664064,14.973696 C24.344576,14.973696 24.031232,15.047424 23.724032,15.19488 C23.416832,15.342336 23.146496,15.55328 22.913024,15.827712 C22.679552,16.102144 22.491136,16.435968 22.347776,16.829184 C22.204416,17.2224 22.132736,17.668864 22.132736,18.168576 C22.132736,18.668288 22.192128,19.114752 22.310912,19.507968 C22.429696,19.901184 22.597632,20.235008 22.81472,20.50944 C23.031808,20.783872 23.293952,20.994816 23.601152,21.142272 C23.908352,21.289728 24.250368,21.363456 24.6272,21.363456 Z M25.094144,19.888896 C24.741888,19.888896 24.469504,19.749632 24.276992,19.471104 C24.08448,19.192576 23.988224,18.750208 23.988224,18.144 C23.988224,17.562368 24.098816,17.134336 24.32,16.859904 C24.541184,16.585472 24.795136,16.448256 25.081856,16.448256 C25.245696,16.448256 25.413632,16.476928 25.585664,16.534272 C25.757696,16.591616 25.925632,16.694016 26.089472,16.841472 L26.089472,16.841472 L26.089472,19.335936 C25.942016,19.540736 25.788416,19.684096 25.628672,19.766016 C25.468928,19.847936 25.290752,19.888896 25.094144,19.888896 Z M31.668224,21.363456 C31.963136,21.363456 32.253952,21.291776 32.540672,21.148416 C32.827392,21.005056 33.077248,20.82688 33.29024,20.613888 L33.29024,20.613888 L33.339392,20.613888 L33.462272,21.216 L34.936832,21.216 L34.936832,12.602112 L33.130496,12.602112 L33.130496,14.678784 L33.204224,15.612672 C32.991232,15.416064 32.774144,15.260416 32.55296,15.145728 C32.331776,15.03104 32.049152,14.973696 31.705088,14.973696 C31.3856,14.973696 31.072256,15.047424 30.765056,15.19488 C30.457856,15.342336 30.18752,15.55328 29.954048,15.827712 C29.720576,16.102144 29.53216,16.435968 29.3888,16.829184 C29.24544,17.2224 29.17376,17.668864 29.17376,18.168576 C29.17376,18.668288 29.233152,19.114752 29.351936,19.507968 C29.47072,19.901184 29.638656,20.235008 29.855744,20.50944 C30.072832,20.783872 30.334976,20.994816 30.642176,21.142272 C30.949376,21.289728 31.291392,21.363456 31.668224,21.363456 Z M32.135168,19.888896 C31.782912,19.888896 31.510528,19.749632 31.318016,19.471104 C31.125504,19.192576 31.029248,18.750208 31.029248,18.144 C31.029248,17.562368 31.13984,17.134336 31.361024,16.859904 C31.582208,16.585472 31.83616,16.448256 32.12288,16.448256 C32.28672,16.448256 32.454656,16.476928 32.626688,16.534272 C32.79872,16.591616 32.966656,16.694016 33.130496,16.841472 L33.130496,16.841472 L33.130496,19.335936 C32.98304,19.540736 32.82944,19.684096 32.669696,19.766016 C32.509952,19.847936 32.331776,19.888896 32.135168,19.888896 Z M40.896512,21.216 L40.896512,17.09952 C41.09312,16.911104 41.273344,16.765696 41.437184,16.663296 C41.601024,16.560896 41.797632,16.509696 42.027008,16.509696 C42.289152,16.509696 42.479616,16.591616 42.5984,16.755456 C42.717184,16.919296 42.776576,17.2224 42.776576,17.664768 L42.776576,17.664768 L42.776576,21.216 L44.582912,21.216 L44.582912,17.431296 C44.582912,16.661248 44.433408,16.059136 44.1344,15.62496 C43.835392,15.190784 43.354112,14.973696 42.69056,14.973696 C42.272768,14.973696 41.908224,15.065856 41.596928,15.250176 C41.285632,15.434496 40.998912,15.649536 40.736768,15.895296 L40.736768,15.895296 L40.687616,15.895296 L40.564736,15.121152 L39.090176,15.121152 L39.090176,21.216 L40.896512,21.216 Z M48.736256,21.363456 C49.12128,21.363456 49.491968,21.291776 49.84832,21.148416 C50.204672,21.005056 50.520064,20.798208 50.794496,20.527872 C51.068928,20.257536 51.288064,19.923712 51.451904,19.5264 C51.615744,19.129088 51.697664,18.67648 51.697664,18.168576 C51.697664,17.660672 51.615744,17.208064 51.451904,16.810752 C51.288064,16.41344 51.068928,16.079616 50.794496,15.80928 C50.520064,15.538944 50.204672,15.332096 49.84832,15.188736 C49.491968,15.045376 49.12128,14.973696 48.736256,14.973696 C48.351232,14.973696 47.978496,15.045376 47.618048,15.188736 C47.2576,15.332096 46.94016,15.538944 46.665728,15.80928 C46.391296,16.079616 46.17216,16.41344 46.00832,16.810752 C45.84448,17.208064 45.76256,17.660672 45.76256,18.168576 C45.76256,18.67648 45.84448,19.129088 46.00832,19.5264 C46.17216,19.923712 46.391296,20.257536 46.665728,20.527872 C46.94016,20.798208 47.2576,21.005056 47.618048,21.148416 C47.978496,21.291776 48.351232,21.363456 48.736256,21.363456 Z M48.736256,19.901184 C48.359424,19.901184 48.078848,19.745536 47.894528,19.43424 C47.710208,19.122944 47.618048,18.701056 47.618048,18.168576 C47.618048,17.636096 47.710208,17.214208 47.894528,16.902912 C48.078848,16.591616 48.359424,16.435968 48.736256,16.435968 C49.104896,16.435968 49.383424,16.591616 49.57184,16.902912 C49.760256,17.214208 49.854464,17.636096 49.854464,18.168576 C49.854464,18.701056 49.760256,19.122944 49.57184,19.43424 C49.383424,19.745536 49.104896,19.901184 48.736256,19.901184 Z M55.28576,21.363456 C55.580672,21.363456 55.83872,21.33888 56.059904,21.289728 C56.281088,21.240576 56.4736,21.191424 56.63744,21.142272 L56.63744,21.142272 L56.354816,19.827456 C56.272896,19.860224 56.180736,19.888896 56.078336,19.913472 C55.975936,19.938048 55.875584,19.950336 55.77728,19.950336 C55.539712,19.950336 55.349248,19.87456 55.205888,19.723008 C55.062528,19.571456 54.990848,19.323648 54.990848,18.979584 L54.990848,18.979584 L54.990848,16.534272 L56.45312,16.534272 L56.45312,15.121152 L54.990848,15.121152 L54.990848,13.499136 L53.491712,13.499136 L53.282816,15.121152 L52.348928,15.19488 L52.348928,16.534272 L53.184512,16.534272 L53.184512,19.00416 C53.184512,19.356416 53.223424,19.677952 53.301248,19.968768 C53.379072,20.259584 53.501952,20.507392 53.669888,20.712192 C53.837824,20.916992 54.054912,21.076736 54.321152,21.191424 C54.587392,21.306112 54.908928,21.363456 55.28576,21.363456 Z M60.372992,21.363456 C60.741632,21.363456 61.116416,21.302016 61.497344,21.179136 C61.878272,21.056256 62.224384,20.88832 62.53568,20.675328 L62.53568,20.675328 L61.933568,19.581696 C61.4912,19.852032 61.052928,19.9872 60.618752,19.9872 C60.209152,19.9872 59.86304,19.882752 59.580416,19.673856 C59.297792,19.46496 59.11552,19.12704 59.0336,18.660096 L59.0336,18.660096 L62.683136,18.660096 C62.69952,18.586368 62.715904,18.48192 62.732288,18.346752 C62.748672,18.211584 62.756864,18.06208 62.756864,17.89824 C62.756864,17.480448 62.703616,17.093376 62.59712,16.737024 C62.490624,16.380672 62.328832,16.071424 62.111744,15.80928 C61.894656,15.547136 61.62432,15.342336 61.300736,15.19488 C60.977152,15.047424 60.598272,14.973696 60.164096,14.973696 C59.795456,14.973696 59.439104,15.047424 59.09504,15.19488 C58.750976,15.342336 58.445824,15.55328 58.179584,15.827712 C57.913344,16.102144 57.698304,16.438016 57.534464,16.835328 C57.370624,17.23264 57.288704,17.677056 57.288704,18.168576 C57.288704,18.67648 57.366528,19.12704 57.522176,19.520256 C57.677824,19.913472 57.894912,20.247296 58.17344,20.521728 C58.451968,20.79616 58.779648,21.005056 59.15648,21.148416 C59.533312,21.291776 59.938816,21.363456 60.372992,21.363456 Z M61.220864,17.541888 L59.021312,17.541888 C59.086848,17.132288 59.22816,16.831232 59.445248,16.63872 C59.662336,16.446208 59.91424,16.349952 60.20096,16.349952 C60.5696,16.349952 60.831744,16.460544 60.987392,16.681728 C61.14304,16.902912 61.220864,17.189632 61.220864,17.541888 L61.220864,17.541888 Z" id="Addnote" fill="#FFFFFF" fill-rule="nonzero"></path>
                                        </g>
                                    </g>
                                </g>
                                <g id="Group-12" filter="url(#filter-5)" transform="translate(0.552000, 0.000000)" fill="#26C164">
                                    <circle id="Oval-2" fill-opacity="0.088013549" cx="44.408" cy="44.408" r="44"></circle>
                                    <circle id="Oval-2" cx="44.408" cy="44.408" r="17.408"></circle>
                                </g>
                            </g>
                        </g>
                    </g>
                    <path d="M47.66,126 L47.66,124.509 L41.633,124.509 L41.633,112.224 L39.89,112.224 L39.89,126 L47.66,126 Z M54.065,126.252 C54.765,126.252 55.388,126.147 55.934,125.937 C56.48,125.727 56.977,125.482 57.425,125.202 L57.425,125.202 L56.816,124.068 C56.438,124.306 56.0425,124.4985 55.6295,124.6455 C55.2165,124.7925 54.765,124.866 54.275,124.866 C53.295,124.866 52.5005,124.544 51.8915,123.9 C51.2825,123.256 50.943,122.381 50.873,121.275 L50.873,121.275 L57.761,121.275 C57.803,121.023 57.824,120.708 57.824,120.33 C57.824,119.602 57.733,118.944 57.551,118.356 C57.369,117.768 57.1065,117.264 56.7635,116.844 C56.4205,116.424 55.9935,116.102 55.4825,115.878 C54.9715,115.654 54.394,115.542 53.75,115.542 C53.162,115.542 52.595,115.6645 52.049,115.9095 C51.503,116.1545 51.0165,116.508 50.5895,116.97 C50.1625,117.432 49.8195,117.9955 49.5605,118.6605 C49.3015,119.3255 49.172,120.078 49.172,120.918 C49.172,121.758 49.298,122.507 49.55,123.165 C49.802,123.823 50.1485,124.3795 50.5895,124.8345 C51.0305,125.2895 51.5485,125.6395 52.1435,125.8845 C52.7385,126.1295 53.379,126.252 54.065,126.252 Z M56.312,120.141 L50.852,120.141 C50.908,119.623 51.0235,119.1645 51.1985,118.7655 C51.3735,118.3665 51.594,118.0305 51.86,117.7575 C52.126,117.4845 52.4235,117.2745 52.7525,117.1275 C53.0815,116.9805 53.428,116.907 53.792,116.907 C54.59,116.907 55.2095,117.1835 55.6505,117.7365 C56.0915,118.2895 56.312,119.091 56.312,120.141 L56.312,120.141 Z M63.557,126.252 C63.879,126.252 64.2045,126.2135 64.5335,126.1365 C64.8625,126.0595 65.167,125.972 65.447,125.874 L65.447,125.874 L65.111,124.572 C64.943,124.642 64.754,124.705 64.544,124.761 C64.334,124.817 64.138,124.845 63.956,124.845 C63.368,124.845 62.9585,124.6735 62.7275,124.3305 C62.4965,123.9875 62.381,123.501 62.381,122.871 L62.381,122.871 L62.381,117.201 L65.132,117.201 L65.132,115.794 L62.381,115.794 L62.381,112.938 L60.932,112.938 L60.722,115.794 L59.126,115.899 L59.126,117.201 L60.638,117.201 L60.638,122.85 C60.638,123.354 60.687,123.816 60.785,124.236 C60.883,124.656 61.0475,125.013 61.2785,125.307 C61.5095,125.601 61.8105,125.832 62.1815,126 C62.5525,126.168 63.011,126.252 63.557,126.252 Z M67.526,116.949 C68.254,116.529 68.8105,116.0145 69.1955,115.4055 C69.5805,114.7965 69.773,114.072 69.773,113.232 C69.773,112.616 69.654,112.1435 69.416,111.8145 C69.178,111.4855 68.856,111.321 68.45,111.321 C68.128,111.321 67.862,111.426 67.652,111.636 C67.442,111.846 67.337,112.133 67.337,112.497 C67.337,112.833 67.449,113.092 67.673,113.274 C67.897,113.456 68.156,113.547 68.45,113.547 C68.52,113.547 68.576,113.54 68.618,113.526 C68.618,114.142 68.4885,114.646 68.2295,115.038 C67.9705,115.43 67.575,115.801 67.043,116.151 L67.043,116.151 L67.526,116.949 Z M75.338,126.252 C75.94,126.252 76.4755,126.1715 76.9445,126.0105 C77.4135,125.8495 77.8055,125.629 78.1205,125.349 C78.4355,125.069 78.6735,124.747 78.8345,124.383 C78.9955,124.019 79.076,123.627 79.076,123.207 C79.076,122.731 78.9815,122.325 78.7925,121.989 C78.6035,121.653 78.362,121.3695 78.068,121.1385 C77.774,120.9075 77.4415,120.715 77.0705,120.561 C76.6995,120.407 76.332,120.26 75.968,120.12 C75.674,120.008 75.3905,119.8995 75.1175,119.7945 C74.8445,119.6895 74.603,119.5705 74.393,119.4375 C74.183,119.3045 74.015,119.1505 73.889,118.9755 C73.763,118.8005 73.7,118.594 73.7,118.356 C73.7,117.964 73.8505,117.621 74.1515,117.327 C74.4525,117.033 74.925,116.886 75.569,116.886 C76.017,116.886 76.43,116.97 76.808,117.138 C77.186,117.306 77.55,117.523 77.9,117.789 L77.9,117.789 L78.719,116.697 C78.327,116.375 77.8615,116.102 77.3225,115.878 C76.7835,115.654 76.192,115.542 75.548,115.542 C75.002,115.542 74.512,115.6155 74.078,115.7625 C73.644,115.9095 73.2765,116.1125 72.9755,116.3715 C72.6745,116.6305 72.4435,116.9385 72.2825,117.2955 C72.1215,117.6525 72.041,118.034 72.041,118.44 C72.041,118.874 72.132,119.245 72.314,119.553 C72.496,119.861 72.7305,120.1305 73.0175,120.3615 C73.3045,120.5925 73.63,120.7885 73.994,120.9495 C74.358,121.1105 74.722,121.254 75.086,121.38 C75.366,121.492 75.646,121.604 75.926,121.716 C76.206,121.828 76.4545,121.9575 76.6715,122.1045 C76.8885,122.2515 77.067,122.423 77.207,122.619 C77.347,122.815 77.417,123.046 77.417,123.312 C77.417,123.76 77.249,124.138 76.913,124.446 C76.577,124.754 76.073,124.908 75.401,124.908 C74.785,124.908 74.2425,124.796 73.7735,124.572 C73.3045,124.348 72.846,124.054 72.398,123.69 L72.398,123.69 L71.537,124.845 C72.027,125.251 72.601,125.587 73.259,125.853 C73.917,126.119 74.61,126.252 75.338,126.252 Z M89.744,126.252 C90.36,126.252 90.9515,126.133 91.5185,125.895 C92.0855,125.657 92.6,125.335 93.062,124.929 L93.062,124.929 L92.285,123.795 C91.977,124.075 91.6235,124.3165 91.2245,124.5195 C90.8255,124.7225 90.381,124.824 89.891,124.824 C89.429,124.824 89.002,124.7295 88.61,124.5405 C88.218,124.3515 87.8855,124.0855 87.6125,123.7425 C87.3395,123.3995 87.126,122.99 86.972,122.514 C86.818,122.038 86.741,121.506 86.741,120.918 C86.741,120.33 86.8215,119.7945 86.9825,119.3115 C87.1435,118.8285 87.364,118.412 87.644,118.062 C87.924,117.712 88.26,117.4425 88.652,117.2535 C89.044,117.0645 89.471,116.97 89.933,116.97 C90.339,116.97 90.7065,117.054 91.0355,117.222 C91.3645,117.39 91.683,117.607 91.991,117.873 L91.991,117.873 L92.852,116.76 C92.502,116.438 92.0855,116.1545 91.6025,115.9095 C91.1195,115.6645 90.542,115.542 89.87,115.542 C89.212,115.542 88.5855,115.661 87.9905,115.899 C87.3955,116.137 86.874,116.487 86.426,116.949 C85.978,117.411 85.621,117.9745 85.355,118.6395 C85.089,119.3045 84.956,120.064 84.956,120.918 C84.956,121.758 85.0785,122.5105 85.3235,123.1755 C85.5685,123.8405 85.9045,124.4005 86.3315,124.8555 C86.7585,125.3105 87.266,125.657 87.854,125.895 C88.442,126.133 89.072,126.252 89.744,126.252 Z M97.01,126 L97.01,118.608 C97.528,118.09 97.99,117.698 98.396,117.432 C98.802,117.166 99.271,117.033 99.803,117.033 C100.475,117.033 100.965,117.2465 101.273,117.6735 C101.581,118.1005 101.735,118.797 101.735,119.763 L101.735,119.763 L101.735,126 L103.457,126 L103.457,119.532 C103.457,118.216 103.2085,117.222 102.7115,116.55 C102.2145,115.878 101.427,115.542 100.349,115.542 C99.635,115.542 99.012,115.7065 98.48,116.0355 C97.948,116.3645 97.437,116.76 96.947,117.222 L96.947,117.222 L97.01,115.122 L97.01,111.048 L95.288,111.048 L95.288,126 L97.01,126 Z M109.211,126.252 C109.841,126.252 110.4395,126.1085 111.0065,125.8215 C111.5735,125.5345 112.102,125.188 112.592,124.782 L112.592,124.782 L112.634,124.782 L112.781,126 L114.209,126 L114.209,119.742 C114.209,118.468 113.929,117.4495 113.369,116.6865 C112.809,115.9235 111.906,115.542 110.66,115.542 C109.834,115.542 109.078,115.6855 108.392,115.9725 C107.706,116.2595 107.125,116.557 106.649,116.865 L106.649,116.865 L107.342,118.062 C107.748,117.782 108.2065,117.53 108.7175,117.306 C109.2285,117.082 109.785,116.97 110.387,116.97 C110.807,116.97 111.15,117.0435 111.416,117.1905 C111.682,117.3375 111.8955,117.53 112.0565,117.768 C112.2175,118.006 112.3295,118.279 112.3925,118.587 C112.4555,118.895 112.487,119.21 112.487,119.532 C110.303,119.77 108.7105,120.1865 107.7095,120.7815 C106.7085,121.3765 106.208,122.234 106.208,123.354 C106.208,124.278 106.4915,124.992 107.0585,125.496 C107.6255,126 108.343,126.252 109.211,126.252 Z M109.694,124.866 C109.19,124.866 108.7665,124.74 108.4235,124.488 C108.0805,124.236 107.909,123.816 107.909,123.228 C107.909,122.906 107.986,122.6085 108.14,122.3355 C108.294,122.0625 108.5495,121.821 108.9065,121.611 C109.2635,121.401 109.736,121.219 110.324,121.065 C110.912,120.911 111.633,120.778 112.487,120.666 L112.487,120.666 L112.487,123.501 C111.997,123.949 111.5315,124.2885 111.0905,124.5195 C110.6495,124.7505 110.184,124.866 109.694,124.866 Z M119.186,126 L119.186,118.608 C119.704,118.09 120.166,117.698 120.572,117.432 C120.978,117.166 121.447,117.033 121.979,117.033 C122.651,117.033 123.141,117.2465 123.449,117.6735 C123.757,118.1005 123.911,118.797 123.911,119.763 L123.911,119.763 L123.911,126 L125.633,126 L125.633,119.532 C125.633,118.216 125.3845,117.222 124.8875,116.55 C124.3905,115.878 123.603,115.542 122.525,115.542 C121.811,115.542 121.1845,115.7065 120.6455,116.0355 C120.1065,116.3645 119.592,116.774 119.102,117.264 L119.102,117.264 L119.039,117.264 L118.892,115.794 L117.464,115.794 L117.464,126 L119.186,126 Z M132.395,130.704 C133.193,130.704 133.9105,130.6095 134.5475,130.4205 C135.1845,130.2315 135.727,129.976 136.175,129.654 C136.623,129.332 136.966,128.9575 137.204,128.5305 C137.442,128.1035 137.561,127.652 137.561,127.176 C137.561,126.322 137.2635,125.7025 136.6685,125.3175 C136.0735,124.9325 135.181,124.74 133.991,124.74 L133.991,124.74 L132.017,124.74 C131.317,124.74 130.841,124.635 130.589,124.425 C130.337,124.215 130.211,123.949 130.211,123.627 C130.211,123.347 130.274,123.1125 130.4,122.9235 C130.526,122.7345 130.68,122.563 130.862,122.409 C131.1,122.521 131.352,122.6085 131.618,122.6715 C131.884,122.7345 132.143,122.766 132.395,122.766 C132.913,122.766 133.3995,122.682 133.8545,122.514 C134.3095,122.346 134.705,122.1115 135.041,121.8105 C135.377,121.5095 135.643,121.1385 135.839,120.6975 C136.035,120.2565 136.133,119.763 136.133,119.217 C136.133,118.783 136.0525,118.384 135.8915,118.02 C135.7305,117.656 135.531,117.355 135.293,117.117 L135.293,117.117 L137.393,117.117 L137.393,115.794 L133.844,115.794 C133.648,115.724 133.4275,115.6645 133.1825,115.6155 C132.9375,115.5665 132.675,115.542 132.395,115.542 C131.877,115.542 131.3835,115.626 130.9145,115.794 C130.4455,115.962 130.036,116.2035 129.686,116.5185 C129.336,116.8335 129.0595,117.215 128.8565,117.663 C128.6535,118.111 128.552,118.615 128.552,119.175 C128.552,119.791 128.6885,120.3335 128.9615,120.8025 C129.2345,121.2715 129.539,121.646 129.875,121.926 L129.875,121.926 L129.875,122.01 C129.609,122.192 129.357,122.444 129.119,122.766 C128.881,123.088 128.762,123.466 128.762,123.9 C128.762,124.306 128.8495,124.6455 129.0245,124.9185 C129.1995,125.1915 129.413,125.405 129.665,125.559 L129.665,125.559 L129.665,125.643 C129.203,125.965 128.839,126.322 128.573,126.714 C128.307,127.106 128.174,127.519 128.174,127.953 C128.174,128.401 128.2755,128.793 128.4785,129.129 C128.6815,129.465 128.9685,129.752 129.3395,129.99 C129.7105,130.228 130.155,130.4065 130.673,130.5255 C131.191,130.6445 131.765,130.704 132.395,130.704 Z M132.395,121.611 C132.101,121.611 131.8245,121.555 131.5655,121.443 C131.3065,121.331 131.0755,121.17 130.8725,120.96 C130.6695,120.75 130.512,120.4945 130.4,120.1935 C130.288,119.8925 130.232,119.553 130.232,119.175 C130.232,118.419 130.442,117.8345 130.862,117.4215 C131.282,117.0085 131.793,116.802 132.395,116.802 C132.997,116.802 133.508,117.0085 133.928,117.4215 C134.348,117.8345 134.558,118.419 134.558,119.175 C134.558,119.553 134.502,119.8925 134.39,120.1935 C134.278,120.4945 134.1205,120.75 133.9175,120.96 C133.7145,121.17 133.4835,121.331 133.2245,121.443 C132.9655,121.555 132.689,121.611 132.395,121.611 Z M132.647,129.507 C131.723,129.507 130.9985,129.346 130.4735,129.024 C129.9485,128.702 129.686,128.268 129.686,127.722 C129.686,127.428 129.77,127.134 129.938,126.84 C130.106,126.546 130.372,126.266 130.736,126 C130.96,126.07 131.1875,126.1155 131.4185,126.1365 C131.6495,126.1575 131.863,126.168 132.059,126.168 L132.059,126.168 L133.823,126.168 C134.495,126.168 135.006,126.259 135.356,126.441 C135.706,126.623 135.881,126.952 135.881,127.428 C135.881,127.694 135.804,127.953 135.65,128.205 C135.496,128.457 135.279,128.6775 134.999,128.8665 C134.719,129.0555 134.3795,129.2095 133.9805,129.3285 C133.5815,129.4475 133.137,129.507 132.647,129.507 Z M143.672,126.252 C144.372,126.252 144.995,126.147 145.541,125.937 C146.087,125.727 146.584,125.482 147.032,125.202 L147.032,125.202 L146.423,124.068 C146.045,124.306 145.6495,124.4985 145.2365,124.6455 C144.8235,124.7925 144.372,124.866 143.882,124.866 C142.902,124.866 142.1075,124.544 141.4985,123.9 C140.8895,123.256 140.55,122.381 140.48,121.275 L140.48,121.275 L147.368,121.275 C147.41,121.023 147.431,120.708 147.431,120.33 C147.431,119.602 147.34,118.944 147.158,118.356 C146.976,117.768 146.7135,117.264 146.3705,116.844 C146.0275,116.424 145.6005,116.102 145.0895,115.878 C144.5785,115.654 144.001,115.542 143.357,115.542 C142.769,115.542 142.202,115.6645 141.656,115.9095 C141.11,116.1545 140.6235,116.508 140.1965,116.97 C139.7695,117.432 139.4265,117.9955 139.1675,118.6605 C138.9085,119.3255 138.779,120.078 138.779,120.918 C138.779,121.758 138.905,122.507 139.157,123.165 C139.409,123.823 139.7555,124.3795 140.1965,124.8345 C140.6375,125.2895 141.1555,125.6395 141.7505,125.8845 C142.3455,126.1295 142.986,126.252 143.672,126.252 Z M145.919,120.141 L140.459,120.141 C140.515,119.623 140.6305,119.1645 140.8055,118.7655 C140.9805,118.3665 141.201,118.0305 141.467,117.7575 C141.733,117.4845 142.0305,117.2745 142.3595,117.1275 C142.6885,116.9805 143.035,116.907 143.399,116.907 C144.197,116.907 144.8165,117.1835 145.2575,117.7365 C145.6985,118.2895 145.919,119.091 145.919,120.141 L145.919,120.141 Z M157.406,126.252 C157.728,126.252 158.0535,126.2135 158.3825,126.1365 C158.7115,126.0595 159.016,125.972 159.296,125.874 L159.296,125.874 L158.96,124.572 C158.792,124.642 158.603,124.705 158.393,124.761 C158.183,124.817 157.987,124.845 157.805,124.845 C157.217,124.845 156.8075,124.6735 156.5765,124.3305 C156.3455,123.9875 156.23,123.501 156.23,122.871 L156.23,122.871 L156.23,117.201 L158.981,117.201 L158.981,115.794 L156.23,115.794 L156.23,112.938 L154.781,112.938 L154.571,115.794 L152.975,115.899 L152.975,117.201 L154.487,117.201 L154.487,122.85 C154.487,123.354 154.536,123.816 154.634,124.236 C154.732,124.656 154.8965,125.013 155.1275,125.307 C155.3585,125.601 155.6595,125.832 156.0305,126 C156.4015,126.168 156.86,126.252 157.406,126.252 Z M163.013,126 L163.013,118.608 C163.531,118.09 163.993,117.698 164.399,117.432 C164.805,117.166 165.274,117.033 165.806,117.033 C166.478,117.033 166.968,117.2465 167.276,117.6735 C167.584,118.1005 167.738,118.797 167.738,119.763 L167.738,119.763 L167.738,126 L169.46,126 L169.46,119.532 C169.46,118.216 169.2115,117.222 168.7145,116.55 C168.2175,115.878 167.43,115.542 166.352,115.542 C165.638,115.542 165.015,115.7065 164.483,116.0355 C163.951,116.3645 163.44,116.76 162.95,117.222 L162.95,117.222 L163.013,115.122 L163.013,111.048 L161.291,111.048 L161.291,126 L163.013,126 Z M173.597,113.694 C173.933,113.694 174.2165,113.589 174.4475,113.379 C174.6785,113.169 174.794,112.903 174.794,112.581 C174.794,112.245 174.6785,111.9755 174.4475,111.7725 C174.2165,111.5695 173.933,111.468 173.597,111.468 C173.261,111.468 172.9775,111.5695 172.7465,111.7725 C172.5155,111.9755 172.4,112.245 172.4,112.581 C172.4,112.903 172.5155,113.169 172.7465,113.379 C172.9775,113.589 173.261,113.694 173.597,113.694 Z M174.437,126 L174.437,115.794 L172.715,115.794 L172.715,126 L174.437,126 Z M180.548,126.252 C181.15,126.252 181.6855,126.1715 182.1545,126.0105 C182.6235,125.8495 183.0155,125.629 183.3305,125.349 C183.6455,125.069 183.8835,124.747 184.0445,124.383 C184.2055,124.019 184.286,123.627 184.286,123.207 C184.286,122.731 184.1915,122.325 184.0025,121.989 C183.8135,121.653 183.572,121.3695 183.278,121.1385 C182.984,120.9075 182.6515,120.715 182.2805,120.561 C181.9095,120.407 181.542,120.26 181.178,120.12 C180.884,120.008 180.6005,119.8995 180.3275,119.7945 C180.0545,119.6895 179.813,119.5705 179.603,119.4375 C179.393,119.3045 179.225,119.1505 179.099,118.9755 C178.973,118.8005 178.91,118.594 178.91,118.356 C178.91,117.964 179.0605,117.621 179.3615,117.327 C179.6625,117.033 180.135,116.886 180.779,116.886 C181.227,116.886 181.64,116.97 182.018,117.138 C182.396,117.306 182.76,117.523 183.11,117.789 L183.11,117.789 L183.929,116.697 C183.537,116.375 183.0715,116.102 182.5325,115.878 C181.9935,115.654 181.402,115.542 180.758,115.542 C180.212,115.542 179.722,115.6155 179.288,115.7625 C178.854,115.9095 178.4865,116.1125 178.1855,116.3715 C177.8845,116.6305 177.6535,116.9385 177.4925,117.2955 C177.3315,117.6525 177.251,118.034 177.251,118.44 C177.251,118.874 177.342,119.245 177.524,119.553 C177.706,119.861 177.9405,120.1305 178.2275,120.3615 C178.5145,120.5925 178.84,120.7885 179.204,120.9495 C179.568,121.1105 179.932,121.254 180.296,121.38 C180.576,121.492 180.856,121.604 181.136,121.716 C181.416,121.828 181.6645,121.9575 181.8815,122.1045 C182.0985,122.2515 182.277,122.423 182.417,122.619 C182.557,122.815 182.627,123.046 182.627,123.312 C182.627,123.76 182.459,124.138 182.123,124.446 C181.787,124.754 181.283,124.908 180.611,124.908 C179.995,124.908 179.4525,124.796 178.9835,124.572 C178.5145,124.348 178.056,124.054 177.608,123.69 L177.608,123.69 L176.747,124.845 C177.237,125.251 177.811,125.587 178.469,125.853 C179.127,126.119 179.82,126.252 180.548,126.252 Z M194.135,126.252 C194.457,126.252 194.7825,126.2135 195.1115,126.1365 C195.4405,126.0595 195.745,125.972 196.025,125.874 L196.025,125.874 L195.689,124.572 C195.521,124.642 195.332,124.705 195.122,124.761 C194.912,124.817 194.716,124.845 194.534,124.845 C193.946,124.845 193.5365,124.6735 193.3055,124.3305 C193.0745,123.9875 192.959,123.501 192.959,122.871 L192.959,122.871 L192.959,117.201 L195.71,117.201 L195.71,115.794 L192.959,115.794 L192.959,112.938 L191.51,112.938 L191.3,115.794 L189.704,115.899 L189.704,117.201 L191.216,117.201 L191.216,122.85 C191.216,123.354 191.265,123.816 191.363,124.236 C191.461,124.656 191.6255,125.013 191.8565,125.307 C192.0875,125.601 192.3885,125.832 192.7595,126 C193.1305,126.168 193.589,126.252 194.135,126.252 Z M202.157,126.252 C202.857,126.252 203.48,126.147 204.026,125.937 C204.572,125.727 205.069,125.482 205.517,125.202 L205.517,125.202 L204.908,124.068 C204.53,124.306 204.1345,124.4985 203.7215,124.6455 C203.3085,124.7925 202.857,124.866 202.367,124.866 C201.387,124.866 200.5925,124.544 199.9835,123.9 C199.3745,123.256 199.035,122.381 198.965,121.275 L198.965,121.275 L205.853,121.275 C205.895,121.023 205.916,120.708 205.916,120.33 C205.916,119.602 205.825,118.944 205.643,118.356 C205.461,117.768 205.1985,117.264 204.8555,116.844 C204.5125,116.424 204.0855,116.102 203.5745,115.878 C203.0635,115.654 202.486,115.542 201.842,115.542 C201.254,115.542 200.687,115.6645 200.141,115.9095 C199.595,116.1545 199.1085,116.508 198.6815,116.97 C198.2545,117.432 197.9115,117.9955 197.6525,118.6605 C197.3935,119.3255 197.264,120.078 197.264,120.918 C197.264,121.758 197.39,122.507 197.642,123.165 C197.894,123.823 198.2405,124.3795 198.6815,124.8345 C199.1225,125.2895 199.6405,125.6395 200.2355,125.8845 C200.8305,126.1295 201.471,126.252 202.157,126.252 Z M204.404,120.141 L198.944,120.141 C199,119.623 199.1155,119.1645 199.2905,118.7655 C199.4655,118.3665 199.686,118.0305 199.952,117.7575 C200.218,117.4845 200.5155,117.2745 200.8445,117.1275 C201.1735,116.9805 201.52,116.907 201.884,116.907 C202.682,116.907 203.3015,117.1835 203.7425,117.7365 C204.1835,118.2895 204.404,119.091 204.404,120.141 L204.404,120.141 Z M208.814,126 L210.2,123.627 C210.368,123.305 210.536,122.9935 210.704,122.6925 C210.872,122.3915 211.047,122.094 211.229,121.8 L211.229,121.8 L211.313,121.8 C211.509,122.094 211.698,122.395 211.88,122.703 L211.88,122.703 L212.426,123.627 L213.917,126 L215.786,126 L212.468,120.855 L215.555,115.794 L213.749,115.794 L212.51,118.041 C212.356,118.321 212.202,118.6045 212.048,118.8915 L211.817,119.319375 L211.817,119.319375 L211.586,119.742 L211.502,119.742 C211.32,119.462 211.145,119.1785 210.977,118.8915 C210.809,118.6045 210.648,118.321 210.494,118.041 L210.494,118.041 L209.129,115.794 L207.26,115.794 L210.347,120.666 L207.008,126 L208.814,126 Z M221.015,126.252 C221.337,126.252 221.6625,126.2135 221.9915,126.1365 C222.3205,126.0595 222.625,125.972 222.905,125.874 L222.905,125.874 L222.569,124.572 C222.401,124.642 222.212,124.705 222.002,124.761 C221.792,124.817 221.596,124.845 221.414,124.845 C220.826,124.845 220.4165,124.6735 220.1855,124.3305 C219.9545,123.9875 219.839,123.501 219.839,122.871 L219.839,122.871 L219.839,117.201 L222.59,117.201 L222.59,115.794 L219.839,115.794 L219.839,112.938 L218.39,112.938 L218.18,115.794 L216.584,115.899 L216.584,117.201 L218.096,117.201 L218.096,122.85 C218.096,123.354 218.145,123.816 218.243,124.236 C218.341,124.656 218.5055,125.013 218.7365,125.307 C218.9675,125.601 219.2685,125.832 219.6395,126 C220.0105,126.168 220.469,126.252 221.015,126.252 Z M231.809,126.252 C232.411,126.252 232.9465,126.1715 233.4155,126.0105 C233.8845,125.8495 234.2765,125.629 234.5915,125.349 C234.9065,125.069 235.1445,124.747 235.3055,124.383 C235.4665,124.019 235.547,123.627 235.547,123.207 C235.547,122.731 235.4525,122.325 235.2635,121.989 C235.0745,121.653 234.833,121.3695 234.539,121.1385 C234.245,120.9075 233.9125,120.715 233.5415,120.561 C233.1705,120.407 232.803,120.26 232.439,120.12 C232.145,120.008 231.8615,119.8995 231.5885,119.7945 C231.3155,119.6895 231.074,119.5705 230.864,119.4375 C230.654,119.3045 230.486,119.1505 230.36,118.9755 C230.234,118.8005 230.171,118.594 230.171,118.356 C230.171,117.964 230.3215,117.621 230.6225,117.327 C230.9235,117.033 231.396,116.886 232.04,116.886 C232.488,116.886 232.901,116.97 233.279,117.138 C233.657,117.306 234.021,117.523 234.371,117.789 L234.371,117.789 L235.19,116.697 C234.798,116.375 234.3325,116.102 233.7935,115.878 C233.2545,115.654 232.663,115.542 232.019,115.542 C231.473,115.542 230.983,115.6155 230.549,115.7625 C230.115,115.9095 229.7475,116.1125 229.4465,116.3715 C229.1455,116.6305 228.9145,116.9385 228.7535,117.2955 C228.5925,117.6525 228.512,118.034 228.512,118.44 C228.512,118.874 228.603,119.245 228.785,119.553 C228.967,119.861 229.2015,120.1305 229.4885,120.3615 C229.7755,120.5925 230.101,120.7885 230.465,120.9495 C230.829,121.1105 231.193,121.254 231.557,121.38 C231.837,121.492 232.117,121.604 232.397,121.716 C232.677,121.828 232.9255,121.9575 233.1425,122.1045 C233.3595,122.2515 233.538,122.423 233.678,122.619 C233.818,122.815 233.888,123.046 233.888,123.312 C233.888,123.76 233.72,124.138 233.384,124.446 C233.048,124.754 232.544,124.908 231.872,124.908 C231.256,124.908 230.7135,124.796 230.2445,124.572 C229.7755,124.348 229.317,124.054 228.869,123.69 L228.869,123.69 L228.008,124.845 C228.498,125.251 229.072,125.587 229.73,125.853 C230.388,126.119 231.081,126.252 231.809,126.252 Z M238.823,113.694 C239.159,113.694 239.4425,113.589 239.6735,113.379 C239.9045,113.169 240.02,112.903 240.02,112.581 C240.02,112.245 239.9045,111.9755 239.6735,111.7725 C239.4425,111.5695 239.159,111.468 238.823,111.468 C238.487,111.468 238.2035,111.5695 237.9725,111.7725 C237.7415,111.9755 237.626,112.245 237.626,112.581 C237.626,112.903 237.7415,113.169 237.9725,113.379 C238.2035,113.589 238.487,113.694 238.823,113.694 Z M239.663,126 L239.663,115.794 L237.941,115.794 L237.941,126 L239.663,126 Z M249.764,126 L249.764,124.593 L244.22,124.593 L249.596,116.718 L249.596,115.794 L242.624,115.794 L242.624,117.201 L247.412,117.201 L242.036,125.076 L242.036,126 L249.764,126 Z M256.169,126.252 C256.869,126.252 257.492,126.147 258.038,125.937 C258.584,125.727 259.081,125.482 259.529,125.202 L259.529,125.202 L258.92,124.068 C258.542,124.306 258.1465,124.4985 257.7335,124.6455 C257.3205,124.7925 256.869,124.866 256.379,124.866 C255.399,124.866 254.6045,124.544 253.9955,123.9 C253.3865,123.256 253.047,122.381 252.977,121.275 L252.977,121.275 L259.865,121.275 C259.907,121.023 259.928,120.708 259.928,120.33 C259.928,119.602 259.837,118.944 259.655,118.356 C259.473,117.768 259.2105,117.264 258.8675,116.844 C258.5245,116.424 258.0975,116.102 257.5865,115.878 C257.0755,115.654 256.498,115.542 255.854,115.542 C255.266,115.542 254.699,115.6645 254.153,115.9095 C253.607,116.1545 253.1205,116.508 252.6935,116.97 C252.2665,117.432 251.9235,117.9955 251.6645,118.6605 C251.4055,119.3255 251.276,120.078 251.276,120.918 C251.276,121.758 251.402,122.507 251.654,123.165 C251.906,123.823 252.2525,124.3795 252.6935,124.8345 C253.1345,125.2895 253.6525,125.6395 254.2475,125.8845 C254.8425,126.1295 255.483,126.252 256.169,126.252 Z M258.416,120.141 L252.956,120.141 C253.012,119.623 253.1275,119.1645 253.3025,118.7655 C253.4775,118.3665 253.698,118.0305 253.964,117.7575 C254.23,117.4845 254.5275,117.2745 254.8565,117.1275 C255.1855,116.9805 255.532,116.907 255.896,116.907 C256.694,116.907 257.3135,117.1835 257.7545,117.7365 C258.1955,118.2895 258.416,119.091 258.416,120.141 L258.416,120.141 Z M263.351,126.252 C263.687,126.252 263.9775,126.1295 264.2225,125.8845 C264.4675,125.6395 264.59,125.328 264.59,124.95 C264.59,124.544 264.4675,124.2185 264.2225,123.9735 C263.9775,123.7285 263.687,123.606 263.351,123.606 C263.001,123.606 262.7035,123.7285 262.4585,123.9735 C262.2135,124.2185 262.091,124.544 262.091,124.95 C262.091,125.328 262.2135,125.6395 262.4585,125.8845 C262.7035,126.1295 263.001,126.252 263.351,126.252 Z" id="Letschangethistextsize." fill="#1F2024" fill-rule="nonzero"></path>
                </g>
            </g>
            <g id="Group-23" transform="translate(506.000000, 42.000000)">
                <ellipse id="Oval" stroke="#0042FF" stroke-width="4.16" fill-opacity="0" fill="#D8D8D8" cx="20.28" cy="19.76" rx="20.28" ry="19.76"></ellipse>
                <g id="Group-6" transform="translate(11.440000, 9.880000)">
                    <circle id="Oval" stroke="#0042FF" stroke-width="1.4976" fill-opacity="0" fill="#FFFFFF" cx="8.84" cy="8.84" r="8.84"></circle>
                    <path d="M9.00104681,13.9966667 C7.26001606,13.9966667 5.62901001,13.2067685 4.15071823,11.6485106 L3.68333333,11.1559363 L4.61018135,10.1604866 L5.07800635,10.6535292 C6.30896261,11.9514531 7.62881884,12.6177395 9.03185373,12.5957329 C11.4449153,12.5793449 13.3144549,10.5865728 13.3333791,10.5659708 L13.7937225,10.0677778 L14.7333333,11.0449666 L14.2747504,11.5450325 C14.1840901,11.6442965 12.0192442,13.9695095 9.05341857,13.9966667 C9.03625471,13.9966667 9.01865076,13.9966667 9.00104681,13.9966667" id="Fill-1" fill="#0042FF"></path>
                    <polygon id="Fill-4" fill="#0042FF" points="8.74791667 10.0677778 8.74791667 5.52794425 8.74791667 3.68333333 7.36666667 3.68333333 7.36666667 5.52794425 7.36666667 10.0677778"></polygon>
                    <polygon id="Fill-6" fill="#0042FF" points="11.05 10.0677778 11.05 5.52794425 11.05 3.68333333 9.66875 3.68333333 9.66875 5.52794425 9.66875 10.0677778"></polygon>
                </g>
            </g>
        </g>
    </g>
</svg>