<?xml version="1.0" encoding="UTF-8"?>
<svg width="706px" height="368px" viewBox="0 0 706 368" version="1.1" xmlns="http://www.w3.org/2000/svg" xmlns:xlink="http://www.w3.org/1999/xlink">
    <title>Group 25</title>
    <defs>
        <path d="M6.4,0 L499.84,0 C503.374622,-6.49299601e-16 506.24,2.8653776 506.24,6.4 L506.24,30.08 L506.24,30.08 L0,30.08 L0,6.4 C-4.32866401e-16,2.8653776 2.8653776,2.42565644e-15 6.4,0 Z" id="path-1"></path>
        <filter x="-0.1%" y="-1.7%" width="100.2%" height="106.6%" filterUnits="objectBoundingBox" id="filter-2">
            <feOffset dx="0" dy="1" in="SourceAlpha" result="shadowOffsetOuter1"></feOffset>
            <feColorMatrix values="0 0 0 0 0.705882353   0 0 0 0 0.733333333   0 0 0 0 0.776470588  0 0 0 1 0" type="matrix" in="shadowOffsetOuter1"></feColorMatrix>
        </filter>
        <path d="M85.5405873,1.312 L89.502,4.896 L173.504,4.896 C174.387656,4.896 175.104,5.6123444 175.104,6.496 L175.104,101.6 C175.104,102.483656 174.387656,103.2 173.504,103.2 L1.6,103.2 C0.7163444,103.2 -5.44289852e-15,102.483656 0,101.6 L0,6.496 C-1.082166e-16,5.6123444 0.7163444,4.896 1.6,4.896 L81.948,4.896 L85.5405873,1.312 Z" id="path-3"></path>
        <filter x="-11.4%" y="-15.7%" width="122.8%" height="139.3%" filterUnits="objectBoundingBox" id="filter-4">
            <feOffset dx="0" dy="4" in="SourceAlpha" result="shadowOffsetOuter1"></feOffset>
            <feGaussianBlur stdDeviation="6" in="shadowOffsetOuter1" result="shadowBlurOuter1"></feGaussianBlur>
            <feComposite in="shadowBlurOuter1" in2="SourceAlpha" operator="out" result="shadowBlurOuter1"></feComposite>
            <feColorMatrix values="0 0 0 0 0   0 0 0 0 0   0 0 0 0 0  0 0 0 0.173978365 0" type="matrix" in="shadowBlurOuter1"></feColorMatrix>
        </filter>
        <filter x="-17.8%" y="-17.8%" width="135.6%" height="135.6%" filterUnits="objectBoundingBox" id="filter-5">
            <feOffset dx="0" dy="2" in="SourceAlpha" result="shadowOffsetOuter1"></feOffset>
            <feGaussianBlur stdDeviation="1" in="shadowOffsetOuter1" result="shadowBlurOuter1"></feGaussianBlur>
            <feColorMatrix values="0 0 0 0 0   0 0 0 0 0   0 0 0 0 0  0 0 0 0.286741395 0" type="matrix" in="shadowBlurOuter1" result="shadowMatrixOuter1"></feColorMatrix>
            <feMerge>
                <feMergeNode in="shadowMatrixOuter1"></feMergeNode>
                <feMergeNode in="SourceGraphic"></feMergeNode>
            </feMerge>
        </filter>
        <path d="M85.5405873,1.312 L89.502,4.896 L173.504,4.896 C174.387656,4.896 175.104,5.6123444 175.104,6.496 L175.104,101.6 C175.104,102.483656 174.387656,103.2 173.504,103.2 L1.6,103.2 C0.7163444,103.2 -5.44289852e-15,102.483656 0,101.6 L0,6.496 C-1.082166e-16,5.6123444 0.7163444,4.896 1.6,4.896 L81.948,4.896 L85.5405873,1.312 Z" id="path-6"></path>
        <filter x="-11.4%" y="-15.7%" width="122.8%" height="139.3%" filterUnits="objectBoundingBox" id="filter-7">
            <feOffset dx="0" dy="4" in="SourceAlpha" result="shadowOffsetOuter1"></feOffset>
            <feGaussianBlur stdDeviation="6" in="shadowOffsetOuter1" result="shadowBlurOuter1"></feGaussianBlur>
            <feComposite in="shadowBlurOuter1" in2="SourceAlpha" operator="out" result="shadowBlurOuter1"></feComposite>
            <feColorMatrix values="0 0 0 0 0   0 0 0 0 0   0 0 0 0 0  0 0 0 0.173978365 0" type="matrix" in="shadowBlurOuter1"></feColorMatrix>
        </filter>
        <filter x="-17.8%" y="-17.8%" width="135.6%" height="135.6%" filterUnits="objectBoundingBox" id="filter-8">
            <feOffset dx="0" dy="2" in="SourceAlpha" result="shadowOffsetOuter1"></feOffset>
            <feGaussianBlur stdDeviation="1" in="shadowOffsetOuter1" result="shadowBlurOuter1"></feGaussianBlur>
            <feColorMatrix values="0 0 0 0 0   0 0 0 0 0   0 0 0 0 0  0 0 0 0.286741395 0" type="matrix" in="shadowBlurOuter1" result="shadowMatrixOuter1"></feColorMatrix>
            <feMerge>
                <feMergeNode in="shadowMatrixOuter1"></feMergeNode>
                <feMergeNode in="SourceGraphic"></feMergeNode>
            </feMerge>
        </filter>
    </defs>
    <g id="Marketing-2.0" stroke="none" stroke-width="1" fill="none" fill-rule="evenodd">
        <g id="Group-25" transform="translate(0.000000, 6.000000)">
            <g id="Group-9" transform="translate(86.000000, 0.000000)">
                <g id="Group-8">
                    <rect id="Rectangle" stroke="#E6EEF1" stroke-width="5.4" fill="#FFFFFF" x="-2.7" y="-2.7" width="511.64" height="333.4" rx="6.4"></rect>
                    <g id="Group-7">
                        <g id="Rectangle">
                            <use fill="black" fill-opacity="1" filter="url(#filter-2)" xlink:href="#path-1"></use>
                            <use fill="#FFFFFF" fill-rule="evenodd" xlink:href="#path-1"></use>
                        </g>
                        <rect id="Rectangle" fill="#F1F3F4" x="39.68" y="5.44" width="407.04" height="19.2" rx="9.6"></rect>
                        <path d="M55.2416,17.6 L55.80736,15.4368 C55.8628267,15.2426667 55.9127467,15.04992 55.95712,14.85856 C56.0014933,14.6672 56.0458667,14.4689067 56.09024,14.26368 L56.09024,14.26368 L56.12352,14.26368 C56.17344,14.4689067 56.2192,14.6658133 56.2608,14.8544 C56.3024,15.0429867 56.34816,15.2343467 56.39808,15.42848 L56.39808,15.42848 L56.98048,17.6 L57.81248,17.6 L58.89408,13.55648 L58.24512,13.55648 L57.6544,15.8944 C57.6100267,16.0885333 57.5684267,16.27712 57.5296,16.46016 C57.4907733,16.6432 57.4491733,16.8290133 57.4048,17.0176 L57.4048,17.0176 L57.37152,17.0176 C57.3271467,16.8290133 57.2813867,16.6432 57.23424,16.46016 C57.1870933,16.27712 57.13856,16.0885333 57.08864,15.8944 L57.08864,15.8944 L56.45632,13.55648 L55.79072,13.55648 L55.16672,15.8944 C55.1168,16.0829867 55.0696533,16.2701867 55.02528,16.456 C54.9809067,16.6418133 54.9365333,16.8290133 54.89216,17.0176 L54.89216,17.0176 L54.85888,17.0176 C54.8200533,16.8290133 54.7812267,16.6432 54.7424,16.46016 C54.7035733,16.27712 54.6619733,16.0885333 54.6176,15.8944 L54.6176,15.8944 L54.01856,13.55648 L53.31968,13.55648 L54.44288,17.6 L55.2416,17.6 Z M61.21536,17.6 L61.78112,15.4368 C61.8365867,15.2426667 61.8865067,15.04992 61.93088,14.85856 C61.9752533,14.6672 62.0196267,14.4689067 62.064,14.26368 L62.064,14.26368 L62.09728,14.26368 C62.1472,14.4689067 62.19296,14.6658133 62.23456,14.8544 C62.27616,15.0429867 62.32192,15.2343467 62.37184,15.42848 L62.37184,15.42848 L62.95424,17.6 L63.78624,17.6 L64.86784,13.55648 L64.21888,13.55648 L63.62816,15.8944 C63.5837867,16.0885333 63.5421867,16.27712 63.50336,16.46016 C63.4645333,16.6432 63.4229333,16.8290133 63.37856,17.0176 L63.37856,17.0176 L63.34528,17.0176 C63.3009067,16.8290133 63.2551467,16.6432 63.208,16.46016 C63.1608533,16.27712 63.11232,16.0885333 63.0624,15.8944 L63.0624,15.8944 L62.43008,13.55648 L61.76448,13.55648 L61.14048,15.8944 C61.09056,16.0829867 61.0434133,16.2701867 60.99904,16.456 C60.9546667,16.6418133 60.9102933,16.8290133 60.86592,17.0176 L60.86592,17.0176 L60.83264,17.0176 C60.7938133,16.8290133 60.7549867,16.6432 60.71616,16.46016 C60.6773333,16.27712 60.6357333,16.0885333 60.59136,15.8944 L60.59136,15.8944 L59.99232,13.55648 L59.29344,13.55648 L60.41664,17.6 L61.21536,17.6 Z M67.18912,17.6 L67.75488,15.4368 C67.8103467,15.2426667 67.8602667,15.04992 67.90464,14.85856 C67.9490133,14.6672 67.9933867,14.4689067 68.03776,14.26368 L68.03776,14.26368 L68.07104,14.26368 C68.12096,14.4689067 68.16672,14.6658133 68.20832,14.8544 C68.24992,15.0429867 68.29568,15.2343467 68.3456,15.42848 L68.3456,15.42848 L68.928,17.6 L69.76,17.6 L70.8416,13.55648 L70.19264,13.55648 L69.60192,15.8944 C69.5575467,16.0885333 69.5159467,16.27712 69.47712,16.46016 C69.4382933,16.6432 69.3966933,16.8290133 69.35232,17.0176 L69.35232,17.0176 L69.31904,17.0176 C69.2746667,16.8290133 69.2289067,16.6432 69.18176,16.46016 C69.1346133,16.27712 69.08608,16.0885333 69.03616,15.8944 L69.03616,15.8944 L68.40384,13.55648 L67.73824,13.55648 L67.11424,15.8944 C67.06432,16.0829867 67.0171733,16.2701867 66.9728,16.456 C66.9284267,16.6418133 66.8840533,16.8290133 66.83968,17.0176 L66.83968,17.0176 L66.8064,17.0176 C66.7675733,16.8290133 66.7287467,16.6432 66.68992,16.46016 C66.6510933,16.27712 66.6094933,16.0885333 66.56512,15.8944 L66.56512,15.8944 L65.96608,13.55648 L65.2672,13.55648 L66.3904,17.6 L67.18912,17.6 Z M72.08128,17.69984 C72.2144,17.69984 72.3294933,17.6513067 72.42656,17.55424 C72.5236267,17.4571733 72.57216,17.33376 72.57216,17.184 C72.57216,17.0231467 72.5236267,16.8941867 72.42656,16.79712 C72.3294933,16.7000533 72.2144,16.65152 72.08128,16.65152 C71.9426133,16.65152 71.8247467,16.7000533 71.72768,16.79712 C71.6306133,16.8941867 71.58208,17.0231467 71.58208,17.184 C71.58208,17.33376 71.6306133,17.4571733 71.72768,17.55424 C71.8247467,17.6513067 71.9426133,17.69984 72.08128,17.69984 Z M73.86176,19.33888 C74.0669867,19.33888 74.2472533,19.3028267 74.40256,19.23072 C74.5578667,19.1586133 74.6965333,19.06016 74.81856,18.93536 C74.9405867,18.81056 75.0459733,18.6621867 75.13472,18.49024 C75.2234667,18.3182933 75.3038933,18.13248 75.376,17.9328 L75.376,17.9328 L76.89856,13.55648 L76.23296,13.55648 L75.50912,15.79456 C75.4536533,15.9720533 75.3981867,16.16064 75.34272,16.36032 C75.2872533,16.56 75.2290133,16.75136 75.168,16.9344 L75.168,16.9344 L75.13472,16.9344 C75.0737067,16.7458133 75.0085333,16.5530667 74.9392,16.35616 C74.8698667,16.1592533 74.8046933,15.9720533 74.74368,15.79456 L74.74368,15.79456 L73.92,13.55648 L73.2128,13.55648 L74.8352,17.60832 L74.74368,17.90784 C74.66048,18.15744 74.5453867,18.3640533 74.3984,18.52768 C74.2514133,18.6913067 74.06144,18.77312 73.82848,18.77312 C73.77856,18.77312 73.7258667,18.7661867 73.6704,18.75232 C73.6149333,18.7384533 73.5650133,18.7259733 73.52064,18.71488 L73.52064,18.71488 L73.38752,19.25568 C73.45408,19.2834133 73.5261867,19.3042133 73.60384,19.31808 C73.6814933,19.3319467 73.7674667,19.33888 73.86176,19.33888 Z M79.25312,17.69984 C79.50272,17.69984 79.73984,17.6526933 79.96448,17.5584 C80.18912,17.4641067 80.3874133,17.3268267 80.55936,17.14656 C80.7313067,16.9662933 80.8685867,16.7444267 80.9712,16.48096 C81.0738133,16.2174933 81.12512,15.91936 81.12512,15.58656 C81.12512,15.2482133 81.0738133,14.9473067 80.9712,14.68384 C80.8685867,14.4203733 80.7313067,14.19712 80.55936,14.01408 C80.3874133,13.83104 80.18912,13.6923733 79.96448,13.59808 C79.73984,13.5037867 79.50272,13.45664 79.25312,13.45664 C79.00352,13.45664 78.7664,13.5037867 78.54176,13.59808 C78.31712,13.6923733 78.1188267,13.83104 77.94688,14.01408 C77.7749333,14.19712 77.6376533,14.4203733 77.53504,14.68384 C77.4324267,14.9473067 77.38112,15.2482133 77.38112,15.58656 C77.38112,15.91936 77.4324267,16.2174933 77.53504,16.48096 C77.6376533,16.7444267 77.7749333,16.9662933 77.94688,17.14656 C78.1188267,17.3268267 78.31712,17.4641067 78.54176,17.5584 C78.7664,17.6526933 79.00352,17.69984 79.25312,17.69984 Z M79.25312,17.13408 C79.0811733,17.13408 78.9230933,17.09664 78.77888,17.02176 C78.6346667,16.94688 78.5112533,16.8414933 78.40864,16.7056 C78.3060267,16.5697067 78.2269867,16.4074667 78.17152,16.21888 C78.1160533,16.0302933 78.08832,15.81952 78.08832,15.58656 C78.08832,15.3536 78.1160533,15.14144 78.17152,14.95008 C78.2269867,14.75872 78.3060267,14.5937067 78.40864,14.45504 C78.5112533,14.3163733 78.6346667,14.2096 78.77888,14.13472 C78.9230933,14.05984 79.0811733,14.0224 79.25312,14.0224 C79.4250667,14.0224 79.5831467,14.05984 79.72736,14.13472 C79.8715733,14.2096 79.9949867,14.3163733 80.0976,14.45504 C80.2002133,14.5937067 80.2792533,14.75872 80.33472,14.95008 C80.3901867,15.14144 80.41792,15.3536 80.41792,15.58656 C80.41792,15.81952 80.3901867,16.0302933 80.33472,16.21888 C80.2792533,16.4074667 80.2002133,16.5697067 80.0976,16.7056 C79.9949867,16.8414933 79.8715733,16.94688 79.72736,17.02176 C79.5831467,17.09664 79.4250667,17.13408 79.25312,17.13408 Z M83.37152,17.69984 C83.6544,17.69984 83.89984,17.63328 84.10784,17.50016 C84.31584,17.36704 84.5141333,17.1895467 84.70272,16.96768 L84.70272,16.96768 L84.72768,16.96768 L84.78592,17.6 L85.35168,17.6 L85.35168,13.55648 L84.66944,13.55648 L84.66944,16.42688 C84.4753067,16.6653867 84.2978133,16.83872 84.13696,16.94688 C83.9761067,17.05504 83.7902933,17.10912 83.57952,17.10912 C83.31328,17.10912 83.1205333,17.0245333 83.00128,16.85536 C82.8820267,16.6861867 82.8224,16.41024 82.8224,16.02752 L82.8224,16.02752 L82.8224,13.55648 L82.13184,13.55648 L82.13184,16.11904 C82.13184,16.6404267 82.2302933,17.03424 82.4272,17.30048 C82.6241067,17.56672 82.93888,17.69984 83.37152,17.69984 Z M87.3984,17.6 L87.3984,15.00416 C87.5370667,14.6602667 87.6993067,14.4189867 87.88512,14.28032 C88.0709333,14.1416533 88.2498133,14.07232 88.42176,14.07232 C88.50496,14.07232 88.5742933,14.0778667 88.62976,14.08896 C88.6852267,14.1000533 88.74624,14.1166933 88.8128,14.13888 L88.8128,14.13888 L88.94592,13.53984 C88.8183467,13.4843733 88.6741333,13.45664 88.51328,13.45664 C88.28032,13.45664 88.0653867,13.53152 87.86848,13.68128 C87.6715733,13.83104 87.5037867,14.0334933 87.36512,14.28864 L87.36512,14.28864 L87.34016,14.28864 L87.28192,13.55648 L86.71616,13.55648 L86.71616,17.6 L87.3984,17.6 Z M91.04256,17.6 L91.60832,15.4368 C91.6637867,15.2426667 91.7137067,15.04992 91.75808,14.85856 C91.8024533,14.6672 91.8468267,14.4689067 91.8912,14.26368 L91.8912,14.26368 L91.92448,14.26368 C91.9744,14.4689067 92.02016,14.6658133 92.06176,14.8544 C92.10336,15.0429867 92.14912,15.2343467 92.19904,15.42848 L92.19904,15.42848 L92.78144,17.6 L93.61344,17.6 L94.69504,13.55648 L94.04608,13.55648 L93.45536,15.8944 C93.4109867,16.0885333 93.3693867,16.27712 93.33056,16.46016 C93.2917333,16.6432 93.2501333,16.8290133 93.20576,17.0176 L93.20576,17.0176 L93.17248,17.0176 C93.1281067,16.8290133 93.0823467,16.6432 93.0352,16.46016 C92.9880533,16.27712 92.93952,16.0885333 92.8896,15.8944 L92.8896,15.8944 L92.25728,13.55648 L91.59168,13.55648 L90.96768,15.8944 C90.91776,16.0829867 90.8706133,16.2701867 90.82624,16.456 C90.7818667,16.6418133 90.7374933,16.8290133 90.69312,17.0176 L90.69312,17.0176 L90.65984,17.0176 C90.6210133,16.8290133 90.5821867,16.6432 90.54336,16.46016 C90.5045333,16.27712 90.4629333,16.0885333 90.41856,15.8944 L90.41856,15.8944 L89.81952,13.55648 L89.12064,13.55648 L90.24384,17.6 L91.04256,17.6 Z M97.216,17.69984 C97.4933333,17.69984 97.74016,17.65824 97.95648,17.57504 C98.1728,17.49184 98.3697067,17.3947733 98.5472,17.28384 L98.5472,17.28384 L98.30592,16.83456 C98.15616,16.9288533 97.9994667,17.00512 97.83584,17.06336 C97.6722133,17.1216 97.4933333,17.15072 97.2992,17.15072 C96.9109333,17.15072 96.59616,17.0231467 96.35488,16.768 C96.1136,16.5128533 95.9790933,16.1661867 95.95136,15.728 L95.95136,15.728 L98.68032,15.728 C98.69696,15.62816 98.70528,15.50336 98.70528,15.3536 C98.70528,15.0651733 98.6692267,14.80448 98.59712,14.57152 C98.5250133,14.33856 98.4210133,14.13888 98.28512,13.97248 C98.1492267,13.80608 97.9800533,13.6785067 97.7776,13.58976 C97.5751467,13.5010133 97.3463467,13.45664 97.0912,13.45664 C96.85824,13.45664 96.6336,13.5051733 96.41728,13.60224 C96.20096,13.6993067 96.0082133,13.83936 95.83904,14.0224 C95.6698667,14.20544 95.5339733,14.4286933 95.43136,14.69216 C95.3287467,14.9556267 95.27744,15.25376 95.27744,15.58656 C95.27744,15.91936 95.32736,16.2161067 95.4272,16.4768 C95.52704,16.7374933 95.66432,16.9579733 95.83904,17.13824 C96.01376,17.3185067 96.2189867,17.4571733 96.45472,17.55424 C96.6904533,17.6513067 96.9442133,17.69984 97.216,17.69984 Z M98.10624,15.27872 L95.94304,15.27872 C95.9652267,15.0734933 96.0109867,14.89184 96.08032,14.73376 C96.1496533,14.57568 96.2370133,14.44256 96.3424,14.3344 C96.4477867,14.22624 96.5656533,14.14304 96.696,14.0848 C96.8263467,14.02656 96.9636267,13.99744 97.10784,13.99744 C97.424,13.99744 97.66944,14.1069867 97.84416,14.32608 C98.01888,14.5451733 98.10624,14.86272 98.10624,15.27872 L98.10624,15.27872 Z M101.49248,17.69984 C101.72544,17.69984 101.947307,17.6513067 102.15808,17.55424 C102.368853,17.4571733 102.554667,17.3143467 102.71552,17.12576 C102.876373,16.9371733 103.003947,16.7069867 103.09824,16.4352 C103.192533,16.1634133 103.23968,15.8555733 103.23968,15.51168 C103.23968,15.2010667 103.205013,14.9195733 103.13568,14.6672 C103.066347,14.4148267 102.963733,14.1985067 102.82784,14.01824 C102.691947,13.8379733 102.52416,13.6993067 102.32448,13.60224 C102.1248,13.5051733 101.894613,13.45664 101.63392,13.45664 C101.406507,13.45664 101.18464,13.51072 100.96832,13.61888 C100.752,13.72704 100.55232,13.8615467 100.36928,14.0224 L100.36928,14.0224 L100.38592,13.29024 L100.38592,11.67616 L99.70368,11.67616 L99.70368,17.6 L100.2528,17.6 L100.31104,17.20064 L100.336,17.20064 C100.513493,17.3614933 100.703467,17.4849067 100.90592,17.57088 C101.108373,17.6568533 101.303893,17.69984 101.49248,17.69984 Z M101.376,17.12576 C101.24288,17.12576 101.08896,17.0938667 100.91424,17.03008 C100.73952,16.9662933 100.563413,16.8567467 100.38592,16.70144 L100.38592,16.70144 L100.38592,14.57984 C100.779733,14.21376 101.140267,14.03072 101.46752,14.03072 C101.656107,14.03072 101.818347,14.0667733 101.95424,14.13888 C102.090133,14.2109867 102.201067,14.3122133 102.28704,14.44256 C102.373013,14.5729067 102.435413,14.7296 102.47424,14.91264 C102.513067,15.09568 102.53248,15.2981333 102.53248,15.52 C102.53248,15.7696 102.50336,15.99424 102.44512,16.19392 C102.38688,16.3936 102.306453,16.5613867 102.20384,16.69728 C102.101227,16.8331733 101.9792,16.93856 101.83776,17.01344 C101.69632,17.08832 101.5424,17.12576 101.376,17.12576 Z M105.37792,17.69984 C105.616427,17.69984 105.828587,17.6679467 106.0144,17.60416 C106.200213,17.5403733 106.35552,17.4530133 106.48032,17.34208 C106.60512,17.2311467 106.699413,17.1035733 106.7632,16.95936 C106.826987,16.8151467 106.85888,16.65984 106.85888,16.49344 C106.85888,16.3048533 106.82144,16.144 106.74656,16.01088 C106.67168,15.87776 106.576,15.76544 106.45952,15.67392 C106.34304,15.5824 106.211307,15.5061333 106.06432,15.44512 C105.917333,15.3841067 105.771733,15.3258667 105.62752,15.2704 C105.51104,15.2260267 105.39872,15.18304 105.29056,15.14144 C105.1824,15.09984 105.08672,15.0526933 105.00352,15 C104.92032,14.9473067 104.85376,14.8862933 104.80384,14.81696 C104.75392,14.7476267 104.72896,14.6658133 104.72896,14.57152 C104.72896,14.4162133 104.788587,14.28032 104.90784,14.16384 C105.027093,14.04736 105.214293,13.98912 105.46944,13.98912 C105.646933,13.98912 105.81056,14.0224 105.96032,14.08896 C106.11008,14.15552 106.254293,14.2414933 106.39296,14.34688 L106.39296,14.34688 L106.71744,13.91424 C106.562133,13.7866667 106.377707,13.6785067 106.16416,13.58976 C105.950613,13.5010133 105.716267,13.45664 105.46112,13.45664 C105.2448,13.45664 105.050667,13.48576 104.87872,13.544 C104.706773,13.60224 104.561173,13.6826667 104.44192,13.78528 C104.322667,13.8878933 104.231147,14.00992 104.16736,14.15136 C104.103573,14.2928 104.07168,14.4439467 104.07168,14.6048 C104.07168,14.7767467 104.107733,14.9237333 104.17984,15.04576 C104.251947,15.1677867 104.344853,15.27456 104.45856,15.36608 C104.572267,15.4576 104.701227,15.5352533 104.84544,15.59904 C104.989653,15.6628267 105.133867,15.71968 105.27808,15.7696 L105.27808,15.7696 L105.61088,15.90272 C105.721813,15.9470933 105.820267,15.9984 105.90624,16.05664 C105.992213,16.11488 106.062933,16.1828267 106.1184,16.26048 C106.173867,16.3381333 106.2016,16.4296533 106.2016,16.53504 C106.2016,16.7125333 106.13504,16.8622933 106.00192,16.98432 C105.8688,17.1063467 105.66912,17.16736 105.40288,17.16736 C105.158827,17.16736 104.943893,17.1229867 104.75808,17.03424 C104.572267,16.9454933 104.390613,16.8290133 104.21312,16.6848 L104.21312,16.6848 L103.872,17.1424 C104.066133,17.3032533 104.293547,17.4363733 104.55424,17.54176 C104.814933,17.6471467 105.089493,17.69984 105.37792,17.69984 Z M108.1568,12.72448 C108.28992,12.72448 108.40224,12.68288 108.49376,12.59968 C108.58528,12.51648 108.63104,12.4110933 108.63104,12.28352 C108.63104,12.1504 108.58528,12.0436267 108.49376,11.9632 C108.40224,11.8827733 108.28992,11.84256 108.1568,11.84256 C108.02368,11.84256 107.91136,11.8827733 107.81984,11.9632 C107.72832,12.0436267 107.68256,12.1504 107.68256,12.28352 C107.68256,12.4110933 107.72832,12.51648 107.81984,12.59968 C107.91136,12.68288 108.02368,12.72448 108.1568,12.72448 Z M108.4896,17.6 L108.4896,13.55648 L107.80736,13.55648 L107.80736,17.6 L108.4896,17.6 Z M111.12704,17.69984 C111.254613,17.69984 111.383573,17.6845867 111.51392,17.65408 C111.644267,17.6235733 111.764907,17.5889067 111.87584,17.55008 L111.87584,17.55008 L111.74272,17.03424 C111.67616,17.0619733 111.60128,17.0869333 111.51808,17.10912 C111.43488,17.1313067 111.357227,17.1424 111.28512,17.1424 C111.05216,17.1424 110.88992,17.0744533 110.7984,16.93856 C110.70688,16.8026667 110.66112,16.60992 110.66112,16.36032 L110.66112,16.36032 L110.66112,14.11392 L111.75104,14.11392 L111.75104,13.55648 L110.66112,13.55648 L110.66112,12.42496 L110.08704,12.42496 L110.00384,13.55648 L109.37152,13.59808 L109.37152,14.11392 L109.97056,14.11392 L109.97056,16.352 C109.97056,16.55168 109.989973,16.73472 110.0288,16.90112 C110.067627,17.06752 110.1328,17.20896 110.22432,17.32544 C110.31584,17.44192 110.435093,17.53344 110.58208,17.6 C110.729067,17.66656 110.91072,17.69984 111.12704,17.69984 Z M114.30528,17.69984 C114.582613,17.69984 114.82944,17.65824 115.04576,17.57504 C115.26208,17.49184 115.458987,17.3947733 115.63648,17.28384 L115.63648,17.28384 L115.3952,16.83456 C115.24544,16.9288533 115.088747,17.00512 114.92512,17.06336 C114.761493,17.1216 114.582613,17.15072 114.38848,17.15072 C114.000213,17.15072 113.68544,17.0231467 113.44416,16.768 C113.20288,16.5128533 113.068373,16.1661867 113.04064,15.728 L113.04064,15.728 L115.7696,15.728 C115.78624,15.62816 115.79456,15.50336 115.79456,15.3536 C115.79456,15.0651733 115.758507,14.80448 115.6864,14.57152 C115.614293,14.33856 115.510293,14.13888 115.3744,13.97248 C115.238507,13.80608 115.069333,13.6785067 114.86688,13.58976 C114.664427,13.5010133 114.435627,13.45664 114.18048,13.45664 C113.94752,13.45664 113.72288,13.5051733 113.50656,13.60224 C113.29024,13.6993067 113.097493,13.83936 112.92832,14.0224 C112.759147,14.20544 112.623253,14.4286933 112.52064,14.69216 C112.418027,14.9556267 112.36672,15.25376 112.36672,15.58656 C112.36672,15.91936 112.41664,16.2161067 112.51648,16.4768 C112.61632,16.7374933 112.7536,16.9579733 112.92832,17.13824 C113.10304,17.3185067 113.308267,17.4571733 113.544,17.55424 C113.779733,17.6513067 114.033493,17.69984 114.30528,17.69984 Z M115.19552,15.27872 L113.03232,15.27872 C113.054507,15.0734933 113.100267,14.89184 113.1696,14.73376 C113.238933,14.57568 113.326293,14.44256 113.43168,14.3344 C113.537067,14.22624 113.654933,14.14304 113.78528,14.0848 C113.915627,14.02656 114.052907,13.99744 114.19712,13.99744 C114.51328,13.99744 114.75872,14.1069867 114.93344,14.32608 C115.10816,14.5451733 115.19552,14.86272 115.19552,15.27872 L115.19552,15.27872 Z M117.15072,17.69984 C117.28384,17.69984 117.398933,17.6513067 117.496,17.55424 C117.593067,17.4571733 117.6416,17.33376 117.6416,17.184 C117.6416,17.0231467 117.593067,16.8941867 117.496,16.79712 C117.398933,16.7000533 117.28384,16.65152 117.15072,16.65152 C117.012053,16.65152 116.894187,16.7000533 116.79712,16.79712 C116.700053,16.8941867 116.65152,17.0231467 116.65152,17.184 C116.65152,17.33376 116.700053,17.4571733 116.79712,17.55424 C116.894187,17.6513067 117.012053,17.69984 117.15072,17.69984 Z M120.46208,17.69984 C120.706133,17.69984 120.94048,17.6526933 121.16512,17.5584 C121.38976,17.4641067 121.5936,17.3365333 121.77664,17.17568 L121.77664,17.17568 L121.4688,16.7264 C121.346773,16.8373333 121.20672,16.9330133 121.04864,17.01344 C120.89056,17.0938667 120.714453,17.13408 120.52032,17.13408 C120.33728,17.13408 120.168107,17.09664 120.0128,17.02176 C119.857493,16.94688 119.72576,16.8414933 119.6176,16.7056 C119.50944,16.5697067 119.424853,16.4074667 119.36384,16.21888 C119.302827,16.0302933 119.27232,15.81952 119.27232,15.58656 C119.27232,15.3536 119.304213,15.14144 119.368,14.95008 C119.431787,14.75872 119.519147,14.5937067 119.63008,14.45504 C119.741013,14.3163733 119.874133,14.2096 120.02944,14.13472 C120.184747,14.05984 120.35392,14.0224 120.53696,14.0224 C120.697813,14.0224 120.843413,14.05568 120.97376,14.12224 C121.104107,14.1888 121.230293,14.2747733 121.35232,14.38016 L121.35232,14.38016 L121.69344,13.9392 C121.554773,13.8116267 121.38976,13.6993067 121.1984,13.60224 C121.00704,13.5051733 120.77824,13.45664 120.512,13.45664 C120.251307,13.45664 120.003093,13.5037867 119.76736,13.59808 C119.531627,13.6923733 119.325013,13.83104 119.14752,14.01408 C118.970027,14.19712 118.828587,14.4203733 118.7232,14.68384 C118.617813,14.9473067 118.56512,15.2482133 118.56512,15.58656 C118.56512,15.91936 118.613653,16.2174933 118.71072,16.48096 C118.807787,16.7444267 118.940907,16.9662933 119.11008,17.14656 C119.279253,17.3268267 119.48032,17.4641067 119.71328,17.5584 C119.94624,17.6526933 120.19584,17.69984 120.46208,17.69984 Z M124.23104,17.69984 C124.48064,17.69984 124.71776,17.6526933 124.9424,17.5584 C125.16704,17.4641067 125.365333,17.3268267 125.53728,17.14656 C125.709227,16.9662933 125.846507,16.7444267 125.94912,16.48096 C126.051733,16.2174933 126.10304,15.91936 126.10304,15.58656 C126.10304,15.2482133 126.051733,14.9473067 125.94912,14.68384 C125.846507,14.4203733 125.709227,14.19712 125.53728,14.01408 C125.365333,13.83104 125.16704,13.6923733 124.9424,13.59808 C124.71776,13.5037867 124.48064,13.45664 124.23104,13.45664 C123.98144,13.45664 123.74432,13.5037867 123.51968,13.59808 C123.29504,13.6923733 123.096747,13.83104 122.9248,14.01408 C122.752853,14.19712 122.615573,14.4203733 122.51296,14.68384 C122.410347,14.9473067 122.35904,15.2482133 122.35904,15.58656 C122.35904,15.91936 122.410347,16.2174933 122.51296,16.48096 C122.615573,16.7444267 122.752853,16.9662933 122.9248,17.14656 C123.096747,17.3268267 123.29504,17.4641067 123.51968,17.5584 C123.74432,17.6526933 123.98144,17.69984 124.23104,17.69984 Z M124.23104,17.13408 C124.059093,17.13408 123.901013,17.09664 123.7568,17.02176 C123.612587,16.94688 123.489173,16.8414933 123.38656,16.7056 C123.283947,16.5697067 123.204907,16.4074667 123.14944,16.21888 C123.093973,16.0302933 123.06624,15.81952 123.06624,15.58656 C123.06624,15.3536 123.093973,15.14144 123.14944,14.95008 C123.204907,14.75872 123.283947,14.5937067 123.38656,14.45504 C123.489173,14.3163733 123.612587,14.2096 123.7568,14.13472 C123.901013,14.05984 124.059093,14.0224 124.23104,14.0224 C124.402987,14.0224 124.561067,14.05984 124.70528,14.13472 C124.849493,14.2096 124.972907,14.3163733 125.07552,14.45504 C125.178133,14.5937067 125.257173,14.75872 125.31264,14.95008 C125.368107,15.14144 125.39584,15.3536 125.39584,15.58656 C125.39584,15.81952 125.368107,16.0302933 125.31264,16.21888 C125.257173,16.4074667 125.178133,16.5697067 125.07552,16.7056 C124.972907,16.8414933 124.849493,16.94688 124.70528,17.02176 C124.561067,17.09664 124.402987,17.13408 124.23104,17.13408 Z M127.85024,17.6 L127.85024,14.67136 C128.221867,14.25536 128.560213,14.04736 128.86528,14.04736 C129.125973,14.04736 129.317333,14.1319467 129.43936,14.30112 C129.561387,14.4702933 129.6224,14.74624 129.6224,15.12896 L129.6224,15.12896 L129.6224,17.6 L130.30464,17.6 L130.30464,14.67136 C130.676267,14.25536 131.014613,14.04736 131.31968,14.04736 C131.574827,14.04736 131.763413,14.1319467 131.88544,14.30112 C132.007467,14.4702933 132.06848,14.74624 132.06848,15.12896 L132.06848,15.12896 L132.06848,17.6 L132.75072,17.6 L132.75072,15.03744 C132.75072,14.5160533 132.649493,14.12224 132.44704,13.856 C132.244587,13.58976 131.93536,13.45664 131.51936,13.45664 C131.26976,13.45664 131.038187,13.52736 130.82464,13.6688 C130.611093,13.81024 130.398933,13.99744 130.18816,14.2304 C130.10496,13.9863467 129.976,13.7963733 129.80128,13.66048 C129.62656,13.5245867 129.383893,13.45664 129.07328,13.45664 C128.829227,13.45664 128.6032,13.5218133 128.3952,13.65216 C128.1872,13.7825067 127.994453,13.9447467 127.81696,14.13888 L127.81696,14.13888 L127.792,14.13888 L127.73376,13.55648 L127.168,13.55648 L127.168,17.6 L127.85024,17.6 Z" id="www.yourwebsite.com" fill="#1F2024" fill-rule="nonzero"></path>
                        <g id="Group-15" transform="translate(481.120000, 11.040000)">
                            <g id="Group-14" fill="#AEB3B9">
                                <rect id="Rectangle" x="0.16" y="0.48" width="8.96" height="2.13333333" rx="1.024"></rect>
                                <rect id="Rectangle" x="0.16" y="3.89333333" width="8.96" height="2.13333333" rx="1.024"></rect>
                                <rect id="Rectangle" x="0.16" y="7.30666667" width="8.96" height="2.13333333" rx="1.024"></rect>
                            </g>
                            <g id="Group-13" transform="translate(0.160000, 0.480000)"></g>
                        </g>
                        <g id="Group-4" transform="translate(8.960000, 13.440000)" fill="#F1F3F4">
                            <circle id="Oval" cx="19.52" cy="2.88" r="2.88"></circle>
                            <circle id="Oval" cx="11.2" cy="2.88" r="2.88"></circle>
                            <circle id="Oval" cx="2.88" cy="2.88" r="2.88"></circle>
                        </g>
                    </g>
                </g>
                <g id="Group-17" transform="translate(13.000000, 40.000000)" fill="#E6EEF1">
                    <rect id="Rectangle" x="0.44" y="0.32" width="65.28" height="21.76"></rect>
                    <rect id="Rectangle" x="3.64" y="157.76" width="146.56" height="111"></rect>
                    <rect id="Rectangle" x="166.84" y="157.76" width="146.56" height="111"></rect>
                    <rect id="Rectangle" x="330.04" y="157.76" width="146.56" height="111"></rect>
                    <rect id="Rectangle" x="216.12" y="62.4" width="65.28" height="9.6"></rect>
                    <rect id="Rectangle" x="180.92" y="86.72" width="135.68" height="9.6"></rect>
                    <rect id="Rectangle" x="337.08" y="8" width="65.28" height="6.4"></rect>
                    <rect id="Rectangle" x="410.68" y="8" width="65.28" height="6.4"></rect>
                </g>
                <g id="Group-5" transform="translate(16.640000, 197.760000)"></g>
            </g>
            <g id="Group-22" transform="translate(398.000000, 170.000000)">
                <polygon id="Path-25" fill="#FFAA00" transform="translate(175.842494, 53.345626) rotate(-15.000000) translate(-175.842494, -53.345626) " points="206.842494 51.9956261 162.107046 43.8036261 144.842494 43.8036261 146.892115 51.9956261 164.989491 49.1276261 206.842494 62.8876261"></polygon>
                <g id="Group-16">
                    <g id="Group-20" transform="translate(0.000000, 0.000000)">
                        <g id="Group-10" transform="translate(0.000000, 0.000000)">
                            <g id="Group-11" transform="translate(0.000000, 34.192000)">
                                <g id="Combined-Shape">
                                    <use fill="black" fill-opacity="1" filter="url(#filter-4)" xlink:href="#path-3"></use>
                                    <path stroke="#D0D0D0" stroke-width="0.512" d="M85.5491991,1.66501498 L82.0538593,5.152 L1.6,5.152 C1.22886465,5.152 0.892864648,5.30243232 0.649648486,5.54564849 C0.406432324,5.78886465 0.256,6.12486465 0.256,6.496 L0.256,101.6 C0.256,101.971135 0.406432324,102.307135 0.649648486,102.550352 C0.892864648,102.793568 1.22886465,102.944 1.6,102.944 L173.504,102.944 C173.875135,102.944 174.211135,102.793568 174.454352,102.550352 C174.697568,102.307135 174.848,101.971135 174.848,101.6 L174.848,6.496 C174.848,6.12486465 174.697568,5.78886465 174.454352,5.54564849 C174.211135,5.30243232 173.875135,5.152 173.504,5.152 L89.4033807,5.152 L85.5491991,1.66501498 Z" stroke-linejoin="square" fill="#FFFFFF" fill-rule="evenodd"></path>
                                </g>
                                <path d="M116.53,87.832 L116.53,86.886 L112.064,86.886 C111.609333,86.886 111.220667,86.7283333 110.898,86.413 C110.575333,86.0976667 110.414,85.7126667 110.414,85.258 C110.414,84.8033333 110.575333,84.4146667 110.898,84.092 C111.220667,83.7693333 111.609333,83.608 112.064,83.608 L112.064,83.608 L116.992,83.608 C117.241333,83.608 117.461333,83.7033333 117.652,83.894 C117.842667,84.0846667 117.938,84.3046667 117.938,84.554 C117.938,84.8033333 117.842667,85.0196667 117.652,85.203 C117.461333,85.3863333 117.241333,85.478 116.992,85.478 L116.992,85.478 L112.966,85.478 C112.834,85.478 112.768,85.401 112.768,85.247 C112.768,85.093 112.834,85.016 112.966,85.016 L112.966,85.016 L116.53,85.016 L116.53,84.07 L113.01,84.07 C112.687333,84.07 112.408667,84.1873333 112.174,84.422 C111.939333,84.6566667 111.822,84.9353333 111.822,85.258 C111.822,85.5806667 111.939333,85.8556667 112.174,86.083 C112.408667,86.3103333 112.687333,86.424 113.01,86.424 L113.01,86.424 L116.992,86.424 C117.505333,86.424 117.945333,86.2406667 118.312,85.874 C118.678667,85.5073333 118.862,85.0673333 118.862,84.554 C118.862,84.0406667 118.678667,83.597 118.312,83.223 C117.945333,82.849 117.505333,82.662 116.992,82.662 L116.992,82.662 L112.064,82.662 C111.345333,82.662 110.736667,82.915 110.238,83.421 C109.739333,83.927 109.49,84.5393333 109.49,85.258 C109.49,85.9766667 109.739333,86.5853333 110.238,87.084 C110.736667,87.5826667 111.345333,87.832 112.064,87.832 L112.064,87.832 L116.53,87.832 Z" id="a" fill="#7F8FA4" fill-rule="nonzero"></path>
                                <g id="Group-42" transform="translate(66.520000, 6.308000) scale(1, -1) rotate(90.000000) translate(-66.520000, -6.308000) translate(61.020000, -2.692000)">
                                    <g id="Group-7" transform="translate(5.376000, 8.960000) scale(-1, 1) translate(-5.376000, -8.960000) "></g>
                                </g>
                                <g id="Group-9" transform="translate(126.464000, 76.576000)">
                                    <g id="Dynamic-group">
                                        <rect id="BG" fill="#0042FF" x="0" y="0" width="37.888" height="16.896" rx="2.048"></rect>
                                        <path d="M8.190976,10.608 L8.436736,9.65568 L9.659392,9.65568 L9.905152,10.608 L10.863616,10.608 L9.61024,6.602112 L8.522752,6.602112 L7.269376,10.608 L8.190976,10.608 Z M9.475072,8.94912 L8.621056,8.94912 L8.71936,8.58048 C8.776704,8.379776 8.830976,8.167808 8.882176,7.944576 C8.933376,7.721344 8.983552,7.503232 9.032704,7.29024 L9.032704,7.29024 L9.05728,7.29024 C9.110528,7.499136 9.163776,7.716224 9.217024,7.941504 C9.270272,8.166784 9.325568,8.379776 9.382912,8.58048 L9.382912,8.58048 L9.475072,8.94912 Z M12.3136,10.681728 C12.461056,10.681728 12.606464,10.645888 12.749824,10.574208 C12.893184,10.502528 13.018112,10.41344 13.124608,10.306944 L13.124608,10.306944 L13.149184,10.306944 L13.210624,10.608 L13.947904,10.608 L13.947904,6.301056 L13.044736,6.301056 L13.044736,7.339392 L13.0816,7.806336 C12.975104,7.708032 12.86656,7.630208 12.755968,7.572864 C12.645376,7.51552 12.504064,7.486848 12.332032,7.486848 C12.172288,7.486848 12.015616,7.523712 11.862016,7.59744 C11.708416,7.671168 11.573248,7.77664 11.456512,7.913856 C11.339776,8.051072 11.245568,8.217984 11.173888,8.414592 C11.102208,8.6112 11.066368,8.834432 11.066368,9.084288 C11.066368,9.334144 11.096064,9.557376 11.155456,9.753984 C11.214848,9.950592 11.298816,10.117504 11.40736,10.25472 C11.515904,10.391936 11.646976,10.497408 11.800576,10.571136 C11.954176,10.644864 12.125184,10.681728 12.3136,10.681728 Z M12.547072,9.944448 C12.370944,9.944448 12.234752,9.874816 12.138496,9.735552 C12.04224,9.596288 11.994112,9.375104 11.994112,9.072 C11.994112,8.781184 12.049408,8.567168 12.16,8.429952 C12.270592,8.292736 12.397568,8.224128 12.540928,8.224128 C12.622848,8.224128 12.706816,8.238464 12.792832,8.267136 C12.878848,8.295808 12.962816,8.347008 13.044736,8.420736 L13.044736,8.420736 L13.044736,9.667968 C12.971008,9.770368 12.894208,9.842048 12.814336,9.883008 C12.734464,9.923968 12.645376,9.944448 12.547072,9.944448 Z M15.834112,10.681728 C15.981568,10.681728 16.126976,10.645888 16.270336,10.574208 C16.413696,10.502528 16.538624,10.41344 16.64512,10.306944 L16.64512,10.306944 L16.669696,10.306944 L16.731136,10.608 L17.468416,10.608 L17.468416,6.301056 L16.565248,6.301056 L16.565248,7.339392 L16.602112,7.806336 C16.495616,7.708032 16.387072,7.630208 16.27648,7.572864 C16.165888,7.51552 16.024576,7.486848 15.852544,7.486848 C15.6928,7.486848 15.536128,7.523712 15.382528,7.59744 C15.228928,7.671168 15.09376,7.77664 14.977024,7.913856 C14.860288,8.051072 14.76608,8.217984 14.6944,8.414592 C14.62272,8.6112 14.58688,8.834432 14.58688,9.084288 C14.58688,9.334144 14.616576,9.557376 14.675968,9.753984 C14.73536,9.950592 14.819328,10.117504 14.927872,10.25472 C15.036416,10.391936 15.167488,10.497408 15.321088,10.571136 C15.474688,10.644864 15.645696,10.681728 15.834112,10.681728 Z M16.067584,9.944448 C15.891456,9.944448 15.755264,9.874816 15.659008,9.735552 C15.562752,9.596288 15.514624,9.375104 15.514624,9.072 C15.514624,8.781184 15.56992,8.567168 15.680512,8.429952 C15.791104,8.292736 15.91808,8.224128 16.06144,8.224128 C16.14336,8.224128 16.227328,8.238464 16.313344,8.267136 C16.39936,8.295808 16.483328,8.347008 16.565248,8.420736 L16.565248,8.420736 L16.565248,9.667968 C16.49152,9.770368 16.41472,9.842048 16.334848,9.883008 C16.254976,9.923968 16.165888,9.944448 16.067584,9.944448 Z M20.448256,10.608 L20.448256,8.54976 C20.54656,8.455552 20.636672,8.382848 20.718592,8.331648 C20.800512,8.280448 20.898816,8.254848 21.013504,8.254848 C21.144576,8.254848 21.239808,8.295808 21.2992,8.377728 C21.358592,8.459648 21.388288,8.6112 21.388288,8.832384 L21.388288,8.832384 L21.388288,10.608 L22.291456,10.608 L22.291456,8.715648 C22.291456,8.330624 22.216704,8.029568 22.0672,7.81248 C21.917696,7.595392 21.677056,7.486848 21.34528,7.486848 C21.136384,7.486848 20.954112,7.532928 20.798464,7.625088 C20.642816,7.717248 20.499456,7.824768 20.368384,7.947648 L20.368384,7.947648 L20.343808,7.947648 L20.282368,7.560576 L19.545088,7.560576 L19.545088,10.608 L20.448256,10.608 Z M24.368128,10.681728 C24.56064,10.681728 24.745984,10.645888 24.92416,10.574208 C25.102336,10.502528 25.260032,10.399104 25.397248,10.263936 C25.534464,10.128768 25.644032,9.961856 25.725952,9.7632 C25.807872,9.564544 25.848832,9.33824 25.848832,9.084288 C25.848832,8.830336 25.807872,8.604032 25.725952,8.405376 C25.644032,8.20672 25.534464,8.039808 25.397248,7.90464 C25.260032,7.769472 25.102336,7.666048 24.92416,7.594368 C24.745984,7.522688 24.56064,7.486848 24.368128,7.486848 C24.175616,7.486848 23.989248,7.522688 23.809024,7.594368 C23.6288,7.666048 23.47008,7.769472 23.332864,7.90464 C23.195648,8.039808 23.08608,8.20672 23.00416,8.405376 C22.92224,8.604032 22.88128,8.830336 22.88128,9.084288 C22.88128,9.33824 22.92224,9.564544 23.00416,9.7632 C23.08608,9.961856 23.195648,10.128768 23.332864,10.263936 C23.47008,10.399104 23.6288,10.502528 23.809024,10.574208 C23.989248,10.645888 24.175616,10.681728 24.368128,10.681728 Z M24.368128,9.950592 C24.179712,9.950592 24.039424,9.872768 23.947264,9.71712 C23.855104,9.561472 23.809024,9.350528 23.809024,9.084288 C23.809024,8.818048 23.855104,8.607104 23.947264,8.451456 C24.039424,8.295808 24.179712,8.217984 24.368128,8.217984 C24.552448,8.217984 24.691712,8.295808 24.78592,8.451456 C24.880128,8.607104 24.927232,8.818048 24.927232,9.084288 C24.927232,9.350528 24.880128,9.561472 24.78592,9.71712 C24.691712,9.872768 24.552448,9.950592 24.368128,9.950592 Z M27.64288,10.681728 C27.790336,10.681728 27.91936,10.66944 28.029952,10.644864 C28.140544,10.620288 28.2368,10.595712 28.31872,10.571136 L28.31872,10.571136 L28.177408,9.913728 C28.136448,9.930112 28.090368,9.944448 28.039168,9.956736 C27.987968,9.969024 27.937792,9.975168 27.88864,9.975168 C27.769856,9.975168 27.674624,9.93728 27.602944,9.861504 C27.531264,9.785728 27.495424,9.661824 27.495424,9.489792 L27.495424,9.489792 L27.495424,8.267136 L28.22656,8.267136 L28.22656,7.560576 L27.495424,7.560576 L27.495424,6.749568 L26.745856,6.749568 L26.641408,7.560576 L26.174464,7.59744 L26.174464,8.267136 L26.592256,8.267136 L26.592256,9.50208 C26.592256,9.678208 26.611712,9.838976 26.650624,9.984384 C26.689536,10.129792 26.750976,10.253696 26.834944,10.356096 C26.918912,10.458496 27.027456,10.538368 27.160576,10.595712 C27.293696,10.653056 27.454464,10.681728 27.64288,10.681728 Z M30.186496,10.681728 C30.370816,10.681728 30.558208,10.651008 30.748672,10.589568 C30.939136,10.528128 31.112192,10.44416 31.26784,10.337664 L31.26784,10.337664 L30.966784,9.790848 C30.7456,9.926016 30.526464,9.9936 30.309376,9.9936 C30.104576,9.9936 29.93152,9.941376 29.790208,9.836928 C29.648896,9.73248 29.55776,9.56352 29.5168,9.330048 L29.5168,9.330048 L31.341568,9.330048 C31.34976,9.293184 31.357952,9.24096 31.366144,9.173376 C31.374336,9.105792 31.378432,9.03104 31.378432,8.94912 C31.378432,8.740224 31.351808,8.546688 31.29856,8.368512 C31.245312,8.190336 31.164416,8.035712 31.055872,7.90464 C30.947328,7.773568 30.81216,7.671168 30.650368,7.59744 C30.488576,7.523712 30.299136,7.486848 30.082048,7.486848 C29.897728,7.486848 29.719552,7.523712 29.54752,7.59744 C29.375488,7.671168 29.222912,7.77664 29.089792,7.913856 C28.956672,8.051072 28.849152,8.219008 28.767232,8.417664 C28.685312,8.61632 28.644352,8.838528 28.644352,9.084288 C28.644352,9.33824 28.683264,9.56352 28.761088,9.760128 C28.838912,9.956736 28.947456,10.123648 29.08672,10.260864 C29.225984,10.39808 29.389824,10.502528 29.57824,10.574208 C29.766656,10.645888 29.969408,10.681728 30.186496,10.681728 Z M30.610432,8.770944 L29.510656,8.770944 C29.543424,8.566144 29.61408,8.415616 29.722624,8.31936 C29.831168,8.223104 29.95712,8.174976 30.10048,8.174976 C30.2848,8.174976 30.415872,8.230272 30.493696,8.340864 C30.57152,8.451456 30.610432,8.594816 30.610432,8.770944 L30.610432,8.770944 Z" id="Addnote" fill="#FFFFFF" fill-rule="nonzero"></path>
                                    </g>
                                </g>
                            </g>
                            <g id="Group-12" filter="url(#filter-5)" transform="translate(61.776000, 0.000000)" fill="#26C164">
                                <circle id="Oval-2" cx="22.704" cy="22.704" r="8.704"></circle>
                                <circle id="Oval-2" fill-opacity="0.088013549" cx="22.704" cy="22.704" r="22"></circle>
                            </g>
                        </g>
                    </g>
                    <rect id="Rectangle" fill="#DDE2E9" x="17.408" y="60.592" width="58.88" height="7.168"></rect>
                    <rect id="Rectangle" fill="#DDE2E9" x="17.408" y="72.368" width="85.504" height="7.168"></rect>
                </g>
                <g id="Group-24" transform="translate(164.000000, 21.000000)">
                    <g id="Group-21" transform="translate(57.500000, 28.000000) rotate(20.000000) translate(-57.500000, -28.000000) translate(38.000000, 6.000000)">
                        <path d="M33.5394141,43.3590458 C32.3234766,37.5327177 30.0267188,33.9406865 26.6491406,32.5829521 C24.1117969,38.0380302 19.2727734,38.459788 12.1320703,33.8482255 L10.175625,35.4460771 L7.700625,30.3783036 C-6.83897383e-14,22.5663505 -1.92515625,16.3020927 1.92515625,11.5855302 C7.700625,4.51068646 9.05800781,-0.416110418 22.944375,3.60365521 C26.4255469,5.26748333 28.7446875,11.6527726 29.9017969,22.7595229 L38.5607813,27.7394755 L33.5394141,43.3590458 Z" id="Path-15" fill="#F8C1A4"></path>
                        <path d="M28.1147728,9.1980392 C13.7423726,-11.0705825 -3.36784532,6.45727545 1.59641344,20.6252267 C6.75833485,35.3573055 15.9554777,14.7127086 16.0470384,14.6001486 C16.7070958,13.7887083 18.32749,13.6456933 19.1675072,14.2689767 C21.4520279,15.9640657 22.3018221,19.1433443 24.5386791,20.9008517 C25.71411,21.8243924 27.5288569,21.3384681 28.9057884,21.920383 C29.7198652,22.2644257 30.0955477,23.3806746 30.9490697,23.6099923 C32.2400925,23.9568544 33.7059081,24.0123666 34.9589916,23.5467111 C36.1344432,23.1099042 37.1903735,22.1700347 37.7890697,21.0681955 C38.4391675,19.8717567 39.1477636,18.2376608 38.4921947,17.0442111 C36.5250194,13.4630089 32.3613956,11.9422458 28.9669603,10.3455392 L28.1147728,9.1980392 Z" id="Path-16" fill="#252525"></path>
                    </g>
                    <path d="M115.931594,71.550317 L71.4808635,37.92 L62.7335671,53.175267 L62.7335671,65.5746636 L56.4120198,83.3702291 L16.8184027,101.717203 L16.8184027,107.802914 C43.1138233,102.106147 58.418878,97.0933061 62.7335671,92.764392 C67.0482561,88.4354778 70.7123353,84.1425008 73.7258045,79.8854607 L101.309717,90.1859104 L115.931594,71.550317 Z" id="Path-14" fill="#FFAA00"></path>
                    <path d="M115.170215,70.32 C126.754135,84.5268111 128.102356,98.9446056 119.21488,113.573383 C110.327403,128.202161 106.418173,135.50466 107.487191,135.480878 L135.651252,127.753436 L139.029248,148.707253 L95.2247493,158.100441 C85.7589064,154.815925 82.5581637,147.276071 85.6225213,135.480878 C88.686879,123.685685 92.3650476,109.238734 96.6570273,92.1400256 L115.170215,70.32 Z" id="Path-13" fill="#3D2F39"></path>
                    <path d="M95.5175786,137.077312 L100.275132,157.363099 L62.1151322,157.363099 C64.8851618,152.200981 68.1068089,149.619922 71.7800736,149.619922 C75.4533382,149.619922 80.1702504,149.619922 85.9308102,149.619922 L85.9308102,142.968179 L95.5175786,137.077312 Z" id="Path-17" fill="#000000"></path>
                    <polygon id="Path-18" fill="#000000" points="136.290712 133.086056 143.745602 133.086056 143.745602 155.67476 133.029938 157.363099 136.290712 152.138379"></polygon>
                    <path d="M80.7686943,114.841838 L105.292209,138.320941 L80.7686943,146.96 L51.6043132,113.212208 C47.9183625,103.976225 53.4462449,97.7271851 68.1879605,94.4650901 C82.9296761,91.2029951 98.7969392,83.1012984 115.78975,70.16 C127.505187,91.5628892 128.394839,103.713484 118.458707,106.611785 C108.522575,109.510085 95.9592373,112.253436 80.7686943,114.841838 Z" id="Path-12" fill="#83667B"></path>
                    <path d="M17.4185443,101.592365 C14.4650275,101.671725 11.4816264,101.401492 8.55799394,101.830446 C6.01458452,102.203614 -3.42145996,106.454501 1.30598535,111.380592 C6.07726725,116.352362 7.37225464,109.123109 10.51339,107.503442 C11.939434,106.76813 21.4317689,112.623817 17.9625746,102.081374 L17.4185443,101.592365 Z" id="Path-19" fill="#F8C1A4"></path>
                </g>
            </g>
            <g id="Group-32" transform="translate(0.000000, 46.000000)">
                <polygon id="Path-7" fill="#D4A181" transform="translate(91.708082, 134.000000) rotate(-36.000000) translate(-91.708082, -134.000000) " points="77 133.311302 104.625324 126 106.416165 132.670578 77 142"></polygon>
                <path d="M43.4592146,122 C49.6143865,142.150418 53.9556399,152.225627 56.482975,152.225627 C60.2739775,152.225627 84.3346053,139.795633 84.3346053,129.584555 C90.381446,134.598603 94.1572208,137.594601 95.6619296,138.57255 C77.2880289,157.947061 66.4534252,167.185063 63.1581188,166.286556 C58.215159,164.938794 39.1250775,164.699873 37.6460404,157.493723 C36.6600156,152.689624 34.4446688,143.976125 31,131.353226 L43.4592146,122 Z" id="Path-35" fill="#ADB9C6"></path>
                <polygon id="Path-32" fill="#4506C5" points="58.6790921 189.833072 75.8558651 303.833072 64.2181738 303.06238 55.7030123 269.920137 26 189.833072"></polygon>
                <g id="Group-31" transform="translate(24.047614, 84.000000)">
                    <path d="M20.389595,30.3838412 C26.1885848,30.3838412 26,24.2842712 26,16 C26,7.71572875 21.2989899,1 15.5,1 C9.70101013,1 5,7.71572875 5,16 C5,24.2842712 14.5906051,30.3838412 20.389595,30.3838412 Z" id="Oval" fill="#DC9F7C"></path>
                    <path d="M6.5140366,20.8504787 C6.73064198,29.55361 6.24490446,34.7573194 5.05682405,36.461607 C3.86874364,38.1658945 8.13740768,38.416817 17.8628162,37.2143747 L12.6612171,23.5261078 L6.5140366,20.8504787 Z" id="Path-27" fill="#DC9F7C"></path>
                    <path d="M12.4764166,13.8704344 C13.6623848,9.6189111 16.8513504,7.49314942 22.0433133,7.49314942 C29.8312576,7.49314942 24.1498956,-0.792959741 18.3131561,0.0618678262 C12.4764166,0.916695393 -8.57980353e-13,0.241652989 -8.57980353e-13,13.2138067 C-8.57980353e-13,21.8619092 2.45286563,24.5779089 7.35859688,21.361806 C6.80682711,16.7715996 7.30600523,14.1509976 8.85613121,13.5 C10.4062572,12.8490032 11.613019,12.9724813 12.4764166,13.8704344 Z" id="Path-28" fill="#B7520C"></path>
                    <path d="M11.1787476,12.4136411 C10.4325553,23.1582037 12.0226305,29.2786739 15.9489733,30.7750519 C19.8753161,32.2714298 23.0624916,31.9540589 25.5104998,29.822939 C26.3184144,28.19652 25.7184604,27.2633924 23.7106379,27.0235561 C21.7028154,26.7837197 22.9936291,25.4502444 27.583079,23.0231299 C28.4421045,21.6817226 27.8874508,21.185399 25.9191176,21.5341591 C22.9666179,22.0572993 18.349071,26.5451245 16.7072937,23.382419 C15.0655165,20.2197135 14.3795164,11.5157965 14.3795164,10.3190971 C14.3795164,9.52129748 13.3125935,10.2194788 11.1787476,12.4136411 Z" id="Path-29" fill="#B7520C"></path>
                </g>
                <path d="M27.7884158,120.691703 C36.8832912,117.289503 42.1321191,117.289503 43.5348995,120.691703 C45.6390702,125.795003 47.5500596,145.19553 52.0221849,152.61048 C55.0036017,157.55378 58.7525948,170.063638 63.269164,190.140053 L22,190.140053 L27.7884158,120.691703 Z" id="Path-30" fill="#E4E3E3"></path>
                <g id="Group-16" transform="translate(166.000000, 84.500000) rotate(-10.000000) translate(-166.000000, -84.500000) translate(78.000000, 15.000000)">
                    <g id="Group-20" transform="translate(0.000000, 0.000000)">
                        <g id="Group-10" transform="translate(0.000000, 0.000000)">
                            <g id="Group-11" transform="translate(0.000000, 34.192000)">
                                <g id="Combined-Shape">
                                    <use fill="black" fill-opacity="1" filter="url(#filter-7)" xlink:href="#path-6"></use>
                                    <path stroke="#D0D0D0" stroke-width="0.512" d="M85.5491991,1.66501498 L82.0538593,5.152 L1.6,5.152 C1.22886465,5.152 0.892864648,5.30243232 0.649648486,5.54564849 C0.406432324,5.78886465 0.256,6.12486465 0.256,6.496 L0.256,101.6 C0.256,101.971135 0.406432324,102.307135 0.649648486,102.550352 C0.892864648,102.793568 1.22886465,102.944 1.6,102.944 L173.504,102.944 C173.875135,102.944 174.211135,102.793568 174.454352,102.550352 C174.697568,102.307135 174.848,101.971135 174.848,101.6 L174.848,6.496 C174.848,6.12486465 174.697568,5.78886465 174.454352,5.54564849 C174.211135,5.30243232 173.875135,5.152 173.504,5.152 L89.4033807,5.152 L85.5491991,1.66501498 Z" stroke-linejoin="square" fill="#FFFFFF" fill-rule="evenodd"></path>
                                </g>
                                <path d="M116.53,87.832 L116.53,86.886 L112.064,86.886 C111.609333,86.886 111.220667,86.7283333 110.898,86.413 C110.575333,86.0976667 110.414,85.7126667 110.414,85.258 C110.414,84.8033333 110.575333,84.4146667 110.898,84.092 C111.220667,83.7693333 111.609333,83.608 112.064,83.608 L112.064,83.608 L116.992,83.608 C117.241333,83.608 117.461333,83.7033333 117.652,83.894 C117.842667,84.0846667 117.938,84.3046667 117.938,84.554 C117.938,84.8033333 117.842667,85.0196667 117.652,85.203 C117.461333,85.3863333 117.241333,85.478 116.992,85.478 L116.992,85.478 L112.966,85.478 C112.834,85.478 112.768,85.401 112.768,85.247 C112.768,85.093 112.834,85.016 112.966,85.016 L112.966,85.016 L116.53,85.016 L116.53,84.07 L113.01,84.07 C112.687333,84.07 112.408667,84.1873333 112.174,84.422 C111.939333,84.6566667 111.822,84.9353333 111.822,85.258 C111.822,85.5806667 111.939333,85.8556667 112.174,86.083 C112.408667,86.3103333 112.687333,86.424 113.01,86.424 L113.01,86.424 L116.992,86.424 C117.505333,86.424 117.945333,86.2406667 118.312,85.874 C118.678667,85.5073333 118.862,85.0673333 118.862,84.554 C118.862,84.0406667 118.678667,83.597 118.312,83.223 C117.945333,82.849 117.505333,82.662 116.992,82.662 L116.992,82.662 L112.064,82.662 C111.345333,82.662 110.736667,82.915 110.238,83.421 C109.739333,83.927 109.49,84.5393333 109.49,85.258 C109.49,85.9766667 109.739333,86.5853333 110.238,87.084 C110.736667,87.5826667 111.345333,87.832 112.064,87.832 L112.064,87.832 L116.53,87.832 Z" id="a" fill="#7F8FA4" fill-rule="nonzero"></path>
                                <g id="Group-42" transform="translate(66.520000, 6.308000) scale(1, -1) rotate(90.000000) translate(-66.520000, -6.308000) translate(61.020000, -2.692000)">
                                    <g id="Group-7" transform="translate(5.376000, 8.960000) scale(-1, 1) translate(-5.376000, -8.960000) "></g>
                                </g>
                                <g id="Group-9" transform="translate(126.464000, 76.576000)">
                                    <g id="Dynamic-group">
                                        <rect id="BG" fill="#0042FF" x="0" y="0" width="37.888" height="16.896" rx="2.048"></rect>
                                        <path d="M8.190976,10.608 L8.436736,9.65568 L9.659392,9.65568 L9.905152,10.608 L10.863616,10.608 L9.61024,6.602112 L8.522752,6.602112 L7.269376,10.608 L8.190976,10.608 Z M9.475072,8.94912 L8.621056,8.94912 L8.71936,8.58048 C8.776704,8.379776 8.830976,8.167808 8.882176,7.944576 C8.933376,7.721344 8.983552,7.503232 9.032704,7.29024 L9.032704,7.29024 L9.05728,7.29024 C9.110528,7.499136 9.163776,7.716224 9.217024,7.941504 C9.270272,8.166784 9.325568,8.379776 9.382912,8.58048 L9.382912,8.58048 L9.475072,8.94912 Z M12.3136,10.681728 C12.461056,10.681728 12.606464,10.645888 12.749824,10.574208 C12.893184,10.502528 13.018112,10.41344 13.124608,10.306944 L13.124608,10.306944 L13.149184,10.306944 L13.210624,10.608 L13.947904,10.608 L13.947904,6.301056 L13.044736,6.301056 L13.044736,7.339392 L13.0816,7.806336 C12.975104,7.708032 12.86656,7.630208 12.755968,7.572864 C12.645376,7.51552 12.504064,7.486848 12.332032,7.486848 C12.172288,7.486848 12.015616,7.523712 11.862016,7.59744 C11.708416,7.671168 11.573248,7.77664 11.456512,7.913856 C11.339776,8.051072 11.245568,8.217984 11.173888,8.414592 C11.102208,8.6112 11.066368,8.834432 11.066368,9.084288 C11.066368,9.334144 11.096064,9.557376 11.155456,9.753984 C11.214848,9.950592 11.298816,10.117504 11.40736,10.25472 C11.515904,10.391936 11.646976,10.497408 11.800576,10.571136 C11.954176,10.644864 12.125184,10.681728 12.3136,10.681728 Z M12.547072,9.944448 C12.370944,9.944448 12.234752,9.874816 12.138496,9.735552 C12.04224,9.596288 11.994112,9.375104 11.994112,9.072 C11.994112,8.781184 12.049408,8.567168 12.16,8.429952 C12.270592,8.292736 12.397568,8.224128 12.540928,8.224128 C12.622848,8.224128 12.706816,8.238464 12.792832,8.267136 C12.878848,8.295808 12.962816,8.347008 13.044736,8.420736 L13.044736,8.420736 L13.044736,9.667968 C12.971008,9.770368 12.894208,9.842048 12.814336,9.883008 C12.734464,9.923968 12.645376,9.944448 12.547072,9.944448 Z M15.834112,10.681728 C15.981568,10.681728 16.126976,10.645888 16.270336,10.574208 C16.413696,10.502528 16.538624,10.41344 16.64512,10.306944 L16.64512,10.306944 L16.669696,10.306944 L16.731136,10.608 L17.468416,10.608 L17.468416,6.301056 L16.565248,6.301056 L16.565248,7.339392 L16.602112,7.806336 C16.495616,7.708032 16.387072,7.630208 16.27648,7.572864 C16.165888,7.51552 16.024576,7.486848 15.852544,7.486848 C15.6928,7.486848 15.536128,7.523712 15.382528,7.59744 C15.228928,7.671168 15.09376,7.77664 14.977024,7.913856 C14.860288,8.051072 14.76608,8.217984 14.6944,8.414592 C14.62272,8.6112 14.58688,8.834432 14.58688,9.084288 C14.58688,9.334144 14.616576,9.557376 14.675968,9.753984 C14.73536,9.950592 14.819328,10.117504 14.927872,10.25472 C15.036416,10.391936 15.167488,10.497408 15.321088,10.571136 C15.474688,10.644864 15.645696,10.681728 15.834112,10.681728 Z M16.067584,9.944448 C15.891456,9.944448 15.755264,9.874816 15.659008,9.735552 C15.562752,9.596288 15.514624,9.375104 15.514624,9.072 C15.514624,8.781184 15.56992,8.567168 15.680512,8.429952 C15.791104,8.292736 15.91808,8.224128 16.06144,8.224128 C16.14336,8.224128 16.227328,8.238464 16.313344,8.267136 C16.39936,8.295808 16.483328,8.347008 16.565248,8.420736 L16.565248,8.420736 L16.565248,9.667968 C16.49152,9.770368 16.41472,9.842048 16.334848,9.883008 C16.254976,9.923968 16.165888,9.944448 16.067584,9.944448 Z M20.448256,10.608 L20.448256,8.54976 C20.54656,8.455552 20.636672,8.382848 20.718592,8.331648 C20.800512,8.280448 20.898816,8.254848 21.013504,8.254848 C21.144576,8.254848 21.239808,8.295808 21.2992,8.377728 C21.358592,8.459648 21.388288,8.6112 21.388288,8.832384 L21.388288,8.832384 L21.388288,10.608 L22.291456,10.608 L22.291456,8.715648 C22.291456,8.330624 22.216704,8.029568 22.0672,7.81248 C21.917696,7.595392 21.677056,7.486848 21.34528,7.486848 C21.136384,7.486848 20.954112,7.532928 20.798464,7.625088 C20.642816,7.717248 20.499456,7.824768 20.368384,7.947648 L20.368384,7.947648 L20.343808,7.947648 L20.282368,7.560576 L19.545088,7.560576 L19.545088,10.608 L20.448256,10.608 Z M24.368128,10.681728 C24.56064,10.681728 24.745984,10.645888 24.92416,10.574208 C25.102336,10.502528 25.260032,10.399104 25.397248,10.263936 C25.534464,10.128768 25.644032,9.961856 25.725952,9.7632 C25.807872,9.564544 25.848832,9.33824 25.848832,9.084288 C25.848832,8.830336 25.807872,8.604032 25.725952,8.405376 C25.644032,8.20672 25.534464,8.039808 25.397248,7.90464 C25.260032,7.769472 25.102336,7.666048 24.92416,7.594368 C24.745984,7.522688 24.56064,7.486848 24.368128,7.486848 C24.175616,7.486848 23.989248,7.522688 23.809024,7.594368 C23.6288,7.666048 23.47008,7.769472 23.332864,7.90464 C23.195648,8.039808 23.08608,8.20672 23.00416,8.405376 C22.92224,8.604032 22.88128,8.830336 22.88128,9.084288 C22.88128,9.33824 22.92224,9.564544 23.00416,9.7632 C23.08608,9.961856 23.195648,10.128768 23.332864,10.263936 C23.47008,10.399104 23.6288,10.502528 23.809024,10.574208 C23.989248,10.645888 24.175616,10.681728 24.368128,10.681728 Z M24.368128,9.950592 C24.179712,9.950592 24.039424,9.872768 23.947264,9.71712 C23.855104,9.561472 23.809024,9.350528 23.809024,9.084288 C23.809024,8.818048 23.855104,8.607104 23.947264,8.451456 C24.039424,8.295808 24.179712,8.217984 24.368128,8.217984 C24.552448,8.217984 24.691712,8.295808 24.78592,8.451456 C24.880128,8.607104 24.927232,8.818048 24.927232,9.084288 C24.927232,9.350528 24.880128,9.561472 24.78592,9.71712 C24.691712,9.872768 24.552448,9.950592 24.368128,9.950592 Z M27.64288,10.681728 C27.790336,10.681728 27.91936,10.66944 28.029952,10.644864 C28.140544,10.620288 28.2368,10.595712 28.31872,10.571136 L28.31872,10.571136 L28.177408,9.913728 C28.136448,9.930112 28.090368,9.944448 28.039168,9.956736 C27.987968,9.969024 27.937792,9.975168 27.88864,9.975168 C27.769856,9.975168 27.674624,9.93728 27.602944,9.861504 C27.531264,9.785728 27.495424,9.661824 27.495424,9.489792 L27.495424,9.489792 L27.495424,8.267136 L28.22656,8.267136 L28.22656,7.560576 L27.495424,7.560576 L27.495424,6.749568 L26.745856,6.749568 L26.641408,7.560576 L26.174464,7.59744 L26.174464,8.267136 L26.592256,8.267136 L26.592256,9.50208 C26.592256,9.678208 26.611712,9.838976 26.650624,9.984384 C26.689536,10.129792 26.750976,10.253696 26.834944,10.356096 C26.918912,10.458496 27.027456,10.538368 27.160576,10.595712 C27.293696,10.653056 27.454464,10.681728 27.64288,10.681728 Z M30.186496,10.681728 C30.370816,10.681728 30.558208,10.651008 30.748672,10.589568 C30.939136,10.528128 31.112192,10.44416 31.26784,10.337664 L31.26784,10.337664 L30.966784,9.790848 C30.7456,9.926016 30.526464,9.9936 30.309376,9.9936 C30.104576,9.9936 29.93152,9.941376 29.790208,9.836928 C29.648896,9.73248 29.55776,9.56352 29.5168,9.330048 L29.5168,9.330048 L31.341568,9.330048 C31.34976,9.293184 31.357952,9.24096 31.366144,9.173376 C31.374336,9.105792 31.378432,9.03104 31.378432,8.94912 C31.378432,8.740224 31.351808,8.546688 31.29856,8.368512 C31.245312,8.190336 31.164416,8.035712 31.055872,7.90464 C30.947328,7.773568 30.81216,7.671168 30.650368,7.59744 C30.488576,7.523712 30.299136,7.486848 30.082048,7.486848 C29.897728,7.486848 29.719552,7.523712 29.54752,7.59744 C29.375488,7.671168 29.222912,7.77664 29.089792,7.913856 C28.956672,8.051072 28.849152,8.219008 28.767232,8.417664 C28.685312,8.61632 28.644352,8.838528 28.644352,9.084288 C28.644352,9.33824 28.683264,9.56352 28.761088,9.760128 C28.838912,9.956736 28.947456,10.123648 29.08672,10.260864 C29.225984,10.39808 29.389824,10.502528 29.57824,10.574208 C29.766656,10.645888 29.969408,10.681728 30.186496,10.681728 Z M30.610432,8.770944 L29.510656,8.770944 C29.543424,8.566144 29.61408,8.415616 29.722624,8.31936 C29.831168,8.223104 29.95712,8.174976 30.10048,8.174976 C30.2848,8.174976 30.415872,8.230272 30.493696,8.340864 C30.57152,8.451456 30.610432,8.594816 30.610432,8.770944 L30.610432,8.770944 Z" id="Addnote" fill="#FFFFFF" fill-rule="nonzero"></path>
                                    </g>
                                </g>
                            </g>
                            <g id="Group-12" filter="url(#filter-8)" transform="translate(61.776000, 0.000000)" fill="#26C164">
                                <circle id="Oval-2" cx="22.704" cy="22.704" r="8.704"></circle>
                                <circle id="Oval-2" fill-opacity="0.088013549" cx="22.704" cy="22.704" r="22"></circle>
                            </g>
                        </g>
                    </g>
                    <rect id="Rectangle" fill="#DDE2E9" x="17.408" y="60.592" width="58.88" height="7.168"></rect>
                    <rect id="Rectangle" fill="#DDE2E9" x="17.408" y="72.368" width="85.504" height="7.168"></rect>
                </g>
                <polyline id="Path-31" fill="#681EFF" points="57.6814691 189.833072 38.2491198 245.837722 12.069764 303.833072 1 303.833072 20.4957404 245.837722 23.3544999 189.833072 61 189.833072"></polyline>
                <path d="M45.9868121,130.033018 C57.5046563,128.044812 68.001978,124.564916 73.2848295,117.214965 C75.0554868,114.751476 75.1095053,111.038431 78.7738805,109.022801 C79.1422397,108.820181 79.5177071,109.598005 79.9939822,109.533804 L78.8263984,112.402823 C80.0730567,112.234777 88.8548829,106.724079 93.6045404,108.274803 C96.9781055,109.376245 95.9101959,115.088551 93.2406669,116.333246 C90.8074024,117.467781 87.3595336,117.518069 85.0028702,118.716334 C76.1943674,123.19509 67.5880568,133.263841 61.3032619,137.758354 C49.6908792,146.062842 35.2957501,141.383733 43.3318483,130.559542 L45.9868121,130.033018 Z" id="Path-8" fill="#D4A181" transform="translate(68.360000, 125.000000) rotate(-10.000000) translate(-68.360000, -125.000000) "></path>
                <path d="M33,140.842851 C47.9243127,133.434159 57.0941243,127.281346 60.5094346,122.38441 C63.9247449,117.487474 69.0804847,119.929444 75.976654,129.710318 C66.2929722,147.817001 57.5840439,156.202424 49.8498691,154.866588 C42.1156943,153.530752 36.4990713,148.856173 33,140.842851 Z" id="Path-33" fill="#C3CFD7"></path>
                <path d="M41.0293746,119.58767 C45.8710589,146.89605 59.5157493,181.093076 49.4749547,195.999822 C37.5986694,195.999822 27.1285578,195.713232 18.06462,195.140053 C14.02154,139.895451 21.6764582,114.711324 41.0293746,119.58767 Z" id="Path-34" fill="#C3CFD7"></path>
                <path d="M14.5043965,303 C26.0041878,309.287009 33.212469,312.430513 36.12924,312.430513 C36.12924,314.701452 36.12924,315.650132 36.12924,315.276552 L12.4436316,315.276552 L7.06565919,313.532302 L7.06565919,315.276552 L0,315.276552 L0,303 L14.5043965,303 Z" id="Path-36" fill="#1A174A"></path>
                <path d="M77.5043965,303 C89.0041878,309.287009 96.212469,312.430513 99.12924,312.430513 C99.12924,314.701452 99.12924,315.650132 99.12924,315.276552 L75.4436316,315.276552 L70.0656592,313.532302 L70.0656592,315.276552 L63,315.276552 L63,303 L77.5043965,303 Z" id="Path-36" fill="#1A174A"></path>
            </g>
        </g>
    </g>
</svg>