<?xml version="1.0" encoding="UTF-8"?>
<svg width="592px" height="402px" viewBox="0 0 592 402" version="1.1" xmlns="http://www.w3.org/2000/svg" xmlns:xlink="http://www.w3.org/1999/xlink">
    <title>Group 26</title>
    <defs>
        <polygon id="path-1" points="0 0 110.176573 0 110.176573 302.292 0 302.292"></polygon>
        <filter x="-29.5%" y="-11.4%" width="166.3%" height="124.1%" filterUnits="objectBoundingBox" id="filter-2">
            <feOffset dx="4" dy="2" in="SourceAlpha" result="shadowOffsetOuter1"></feOffset>
            <feGaussianBlur stdDeviation="11.5" in="shadowOffsetOuter1" result="shadowBlurOuter1"></feGaussianBlur>
            <feColorMatrix values="0 0 0 0 0   0 0 0 0 0   0 0 0 0 0  0 0 0 0.0770323427 0" type="matrix" in="shadowBlurOuter1"></feColorMatrix>
        </filter>
        <polygon id="path-3" points="386.224573 0 519.388573 0 519.388573 302.292 386.224573 302.292"></polygon>
        <filter x="-24.4%" y="-11.4%" width="154.8%" height="124.1%" filterUnits="objectBoundingBox" id="filter-4">
            <feOffset dx="4" dy="2" in="SourceAlpha" result="shadowOffsetOuter1"></feOffset>
            <feGaussianBlur stdDeviation="11.5" in="shadowOffsetOuter1" result="shadowBlurOuter1"></feGaussianBlur>
            <feColorMatrix values="0 0 0 0 0   0 0 0 0 0   0 0 0 0 0  0 0 0 0.0770323427 0" type="matrix" in="shadowBlurOuter1"></feColorMatrix>
        </filter>
        <polygon id="path-5" points="0 274.104 520.02 274.104 520.02 302.292 0 302.292"></polygon>
        <filter x="-6.8%" y="-133.0%" width="113.7%" height="351.9%" filterUnits="objectBoundingBox" id="filter-6">
            <feOffset dx="0" dy="-2" in="SourceAlpha" result="shadowOffsetOuter1"></feOffset>
            <feGaussianBlur stdDeviation="11.5" in="shadowOffsetOuter1" result="shadowBlurOuter1"></feGaussianBlur>
            <feColorMatrix values="0 0 0 0 0   0 0 0 0 0   0 0 0 0 0  0 0 0 0.0770323427 0" type="matrix" in="shadowBlurOuter1"></feColorMatrix>
        </filter>
        <filter x="-59.1%" y="-59.1%" width="218.2%" height="218.2%" filterUnits="objectBoundingBox" id="filter-7">
            <feOffset dx="0" dy="1" in="SourceAlpha" result="shadowOffsetOuter1"></feOffset>
            <feGaussianBlur stdDeviation="1" in="shadowOffsetOuter1" result="shadowBlurOuter1"></feGaussianBlur>
            <feColorMatrix values="0 0 0 0 0   0 0 0 0 0   0 0 0 0 0  0 0 0 0.286741395 0" type="matrix" in="shadowBlurOuter1" result="shadowMatrixOuter1"></feColorMatrix>
            <feMerge>
                <feMergeNode in="shadowMatrixOuter1"></feMergeNode>
                <feMergeNode in="SourceGraphic"></feMergeNode>
            </feMerge>
        </filter>
        <filter x="-59.1%" y="-59.1%" width="218.2%" height="218.2%" filterUnits="objectBoundingBox" id="filter-8">
            <feOffset dx="0" dy="1" in="SourceAlpha" result="shadowOffsetOuter1"></feOffset>
            <feGaussianBlur stdDeviation="1" in="shadowOffsetOuter1" result="shadowBlurOuter1"></feGaussianBlur>
            <feColorMatrix values="0 0 0 0 0   0 0 0 0 0   0 0 0 0 0  0 0 0 0.286741395 0" type="matrix" in="shadowBlurOuter1" result="shadowMatrixOuter1"></feColorMatrix>
            <feMerge>
                <feMergeNode in="shadowMatrixOuter1"></feMergeNode>
                <feMergeNode in="SourceGraphic"></feMergeNode>
            </feMerge>
        </filter>
        <filter x="-59.1%" y="-59.1%" width="218.2%" height="218.2%" filterUnits="objectBoundingBox" id="filter-9">
            <feOffset dx="0" dy="1" in="SourceAlpha" result="shadowOffsetOuter1"></feOffset>
            <feGaussianBlur stdDeviation="1" in="shadowOffsetOuter1" result="shadowBlurOuter1"></feGaussianBlur>
            <feColorMatrix values="0 0 0 0 0   0 0 0 0 0   0 0 0 0 0  0 0 0 0.286741395 0" type="matrix" in="shadowBlurOuter1" result="shadowMatrixOuter1"></feColorMatrix>
            <feMerge>
                <feMergeNode in="shadowMatrixOuter1"></feMergeNode>
                <feMergeNode in="SourceGraphic"></feMergeNode>
            </feMerge>
        </filter>
        <filter x="-59.1%" y="-59.1%" width="218.2%" height="218.2%" filterUnits="objectBoundingBox" id="filter-10">
            <feOffset dx="0" dy="1" in="SourceAlpha" result="shadowOffsetOuter1"></feOffset>
            <feGaussianBlur stdDeviation="1" in="shadowOffsetOuter1" result="shadowBlurOuter1"></feGaussianBlur>
            <feColorMatrix values="0 0 0 0 0   0 0 0 0 0   0 0 0 0 0  0 0 0 0.286741395 0" type="matrix" in="shadowBlurOuter1" result="shadowMatrixOuter1"></feColorMatrix>
            <feMerge>
                <feMergeNode in="shadowMatrixOuter1"></feMergeNode>
                <feMergeNode in="SourceGraphic"></feMergeNode>
            </feMerge>
        </filter>
        <filter x="-61.4%" y="-61.4%" width="222.7%" height="222.7%" filterUnits="objectBoundingBox" id="filter-11">
            <feOffset dx="0" dy="2" in="SourceAlpha" result="shadowOffsetOuter1"></feOffset>
            <feGaussianBlur stdDeviation="2.5" in="shadowOffsetOuter1" result="shadowBlurOuter1"></feGaussianBlur>
            <feColorMatrix values="0 0 0 0 0   0 0 0 0 0   0 0 0 0 0  0 0 0 0.286741395 0" type="matrix" in="shadowBlurOuter1" result="shadowMatrixOuter1"></feColorMatrix>
            <feMerge>
                <feMergeNode in="shadowMatrixOuter1"></feMergeNode>
                <feMergeNode in="SourceGraphic"></feMergeNode>
            </feMerge>
        </filter>
        <rect id="path-12" x="0" y="0" width="110.574322" height="34.206445"></rect>
        <filter x="-32.1%" y="-71.6%" width="164.2%" height="307.6%" filterUnits="objectBoundingBox" id="filter-13">
            <feOffset dx="0" dy="11" in="SourceAlpha" result="shadowOffsetOuter1"></feOffset>
            <feGaussianBlur stdDeviation="10" in="shadowOffsetOuter1" result="shadowBlurOuter1"></feGaussianBlur>
            <feColorMatrix values="0 0 0 0 0.901960784   0 0 0 0 0.917647059   0 0 0 0 0.933333333  0 0 0 1 0" type="matrix" in="shadowBlurOuter1"></feColorMatrix>
        </filter>
        <filter x="-59.1%" y="-59.1%" width="218.2%" height="218.2%" filterUnits="objectBoundingBox" id="filter-14">
            <feOffset dx="0" dy="1" in="SourceAlpha" result="shadowOffsetOuter1"></feOffset>
            <feGaussianBlur stdDeviation="1" in="shadowOffsetOuter1" result="shadowBlurOuter1"></feGaussianBlur>
            <feColorMatrix values="0 0 0 0 0   0 0 0 0 0   0 0 0 0 0  0 0 0 0.286741395 0" type="matrix" in="shadowBlurOuter1" result="shadowMatrixOuter1"></feColorMatrix>
            <feMerge>
                <feMergeNode in="shadowMatrixOuter1"></feMergeNode>
                <feMergeNode in="SourceGraphic"></feMergeNode>
            </feMerge>
        </filter>
    </defs>
    <g id="Marketing-2.0" stroke="none" stroke-width="1" fill="none" fill-rule="evenodd">
        <g id="Group-26" transform="translate(23.000000, 0.000000)">
            <ellipse id="Oval" fill="#F1F5FF" cx="459.5" cy="74" rx="109.5" ry="74"></ellipse>
            <g id="Group-9" transform="translate(0.000000, 74.000000)">
                <path d="M512.584573,-2.187 L7.14457289,-2.187 C4.6617768,-2.187 2.4140268,-1.18064805 0.78697582,0.44640293 C-0.840075156,2.07345391 -1.84642711,4.32120391 -1.84642711,6.804 L-1.84642711,295.488 C-1.84642711,297.970796 -0.840075156,300.218546 0.78697582,301.845597 C2.4140268,303.472648 4.6617768,304.479 7.14457289,304.479 L512.584573,304.479 C515.067369,304.479 517.315119,303.472648 518.94217,301.845597 C520.569221,300.218546 521.575573,297.970796 521.575573,295.488 L521.575573,6.804 C521.575573,4.32120391 520.569221,2.07345391 518.94217,0.44640293 C517.315119,-1.18064805 515.067369,-2.187 512.584573,-2.187 Z" id="Mask" stroke="#E6EEF1" stroke-width="4.374" fill="#F7FAFD"></path>
                <g>
                    <g id="Rectangle-9">
                        <use fill="black" fill-opacity="1" filter="url(#filter-2)" xlink:href="#path-1"></use>
                        <use fill="#FFFFFF" fill-rule="evenodd" xlink:href="#path-1"></use>
                    </g>
                    <g id="Rectangle-9">
                        <use fill="black" fill-opacity="1" filter="url(#filter-4)" xlink:href="#path-3"></use>
                        <use fill="#FFFFFF" fill-rule="evenodd" xlink:href="#path-3"></use>
                    </g>
                    <g id="Group-8" transform="translate(395.604000, 52.488000)">
                        <g id="Group-4" transform="translate(25.272000, 0.000000)">
                            <rect id="Rectangle" fill="#909AA1" x="0" y="4.86" width="44.712" height="2.916"></rect>
                            <rect id="Rectangle" fill="#909AA1" opacity="0.581682478" x="0" y="12.636" width="70.956" height="3.888"></rect>
                            <text id="8:16" font-family="SourceSansPro-Semibold, Source Sans Pro" font-size="8.90958568" font-weight="500" fill="#354052">
                                <tspan x="80.676" y="9">•••</tspan>
                            </text>
                            <rect id="Rectangle" fill="#909AA1" opacity="0.581682478" x="0" y="22.356" width="42.768" height="3.888"></rect>
                            <rect id="Rectangle" fill="#909AA1" opacity="0.581682478" x="0" y="33.048" width="78.732" height="2.916"></rect>
                        </g>
                        <g id="Group-6">
                            <rect id="Rectangle" fill="#FFAA00" x="0" y="0" width="18.468" height="18.468" rx="9.234"></rect>
                            <path d="M7.19766,11.62348 C7.4601,11.62348 7.687305,11.57974 7.879275,11.49226 C8.071245,11.40478 8.229195,11.28571 8.353125,11.13505 C8.477055,10.98439 8.569395,10.807 8.630145,10.60288 C8.690895,10.39876 8.72127,10.18249 8.72127,9.95407 L8.72127,9.95407 L8.72127,6.78292 L7.64964,6.78292 L7.64964,9.86659 C7.64964,10.18249 7.599825,10.399975 7.500195,10.519045 C7.400565,10.638115 7.25355,10.69765 7.05915,10.69765 C6.93765,10.69765 6.81858,10.65877 6.70194,10.58101 C6.5853,10.50325 6.48324,10.38418 6.39576,10.2238 L6.39576,10.2238 L5.66676,10.76326 C5.832,11.05486 6.037335,11.27113 6.282765,11.41207 C6.528195,11.55301 6.83316,11.62348 7.19766,11.62348 Z M11.22174,11.536 C11.57166,11.536 11.888775,11.4874 12.173085,11.3902 C12.457395,11.293 12.70161,11.145985 12.90573,10.949155 C13.10985,10.752325 13.2678,10.50325 13.37958,10.20193 C13.49136,9.90061 13.54725,9.54583 13.54725,9.13759 C13.54725,8.72935 13.49136,8.377 13.37958,8.08054 C13.2678,7.78408 13.10742,7.539865 12.89844,7.347895 C12.68946,7.155925 12.43917,7.01377 12.14757,6.92143 C11.85597,6.82909 11.52792,6.78292 11.16342,6.78292 L11.16342,6.78292 L9.82206,6.78292 L9.82206,11.536 L11.22174,11.536 Z M11.09781,10.66849 L10.89369,10.66849 L10.89369,7.65043 L11.09781,7.65043 C11.30193,7.65043 11.48661,7.67473 11.65185,7.72333 C11.81709,7.77193 11.95803,7.853335 12.07467,7.967545 C12.19131,8.081755 12.282435,8.234845 12.348045,8.426815 C12.413655,8.618785 12.44646,8.85571 12.44646,9.13759 C12.44646,9.42433 12.413655,9.6649 12.348045,9.8593 C12.282435,10.0537 12.19131,10.210435 12.07467,10.329505 C11.95803,10.448575 11.81709,10.53484 11.65185,10.5883 C11.48661,10.64176 11.30193,10.66849 11.09781,10.66849 L11.09781,10.66849 Z" id="JD" fill="#FFFFFF" fill-rule="nonzero"></path>
                        </g>
                    </g>
                    <g id="Group-8" transform="translate(395.604000, 106.920000)">
                        <g id="Group-4" transform="translate(25.272000, 0.000000)">
                            <rect id="Rectangle" fill="#909AA1" x="0" y="4.86" width="44.712" height="2.916"></rect>
                            <rect id="Rectangle" fill="#909AA1" opacity="0.581682478" x="0" y="12.636" width="70.956" height="3.888"></rect>
                            <text id="8:16" font-family="SourceSansPro-Semibold, Source Sans Pro" font-size="8.90958568" font-weight="500" fill="#354052">
                                <tspan x="80.676" y="9">•••</tspan>
                            </text>
                            <rect id="Rectangle" fill="#909AA1" opacity="0.581682478" x="0" y="22.356" width="42.768" height="3.888"></rect>
                            <rect id="Rectangle" fill="#909AA1" opacity="0.581682478" x="0" y="33.048" width="78.732" height="2.916"></rect>
                        </g>
                        <g id="Group-6">
                            <rect id="Rectangle" fill="#00AEEF" x="0" y="0" width="18.468" height="18.468" rx="9.234"></rect>
                            <path d="M6.472305,11.536 L6.763905,10.40605 L8.214615,10.40605 L8.506215,11.536 L9.643455,11.536 L8.156295,6.78292 L6.865965,6.78292 L5.378805,11.536 L6.472305,11.536 Z M7.995915,9.5677 L6.982605,9.5677 L7.099245,9.1303 C7.167285,8.89216 7.23168,8.640655 7.29243,8.375785 C7.35318,8.110915 7.412715,7.85212 7.471035,7.5994 L7.471035,7.5994 L7.500195,7.5994 C7.563375,7.84726 7.626555,8.10484 7.689735,8.37214 C7.752915,8.63944 7.818525,8.89216 7.886565,9.1303 L7.886565,9.1303 L7.995915,9.5677 Z M11.232675,11.536 L11.232675,9.92491 L11.896065,9.92491 C12.148785,9.92491 12.386925,9.89332 12.610485,9.83014 C12.834045,9.76696 13.030875,9.66976 13.200975,9.53854 C13.371075,9.40732 13.50594,9.23965 13.60557,9.03553 C13.7052,8.83141 13.755015,8.59084 13.755015,8.31382 C13.755015,8.02708 13.706415,7.785295 13.609215,7.588465 C13.512015,7.391635 13.37958,7.233685 13.21191,7.114615 C13.04424,6.995545 12.84741,6.910495 12.62142,6.859465 C12.39543,6.808435 12.153645,6.78292 11.896065,6.78292 L11.896065,6.78292 L10.161045,6.78292 L10.161045,11.536 L11.232675,11.536 Z M11.830455,9.07198 L11.232675,9.07198 L11.232675,7.63585 L11.830455,7.63585 C12.117195,7.63585 12.33468,7.68688 12.48291,7.78894 C12.63114,7.891 12.705255,8.06596 12.705255,8.31382 C12.705255,8.81926 12.413655,9.07198 11.830455,9.07198 L11.830455,9.07198 Z" id="AP" fill="#FFFFFF" fill-rule="nonzero"></path>
                        </g>
                    </g>
                    <g id="Rectangle-9">
                        <use fill="black" fill-opacity="1" filter="url(#filter-6)" xlink:href="#path-5"></use>
                        <use fill="#FFFFFF" fill-rule="evenodd" xlink:href="#path-5"></use>
                    </g>
                    <rect id="Rectangle" fill="#555A5E" x="9.72" y="286.74" width="44.712" height="2.916"></rect>
                    <g id="Group" transform="translate(0.000000, 28.188000)">
                        <g id="Group-5">
                            <g id="Group-2" fill="#0042FF">
                                <rect id="Rectangle-10" x="0" y="0" width="110.574322" height="34.206445"></rect>
                            </g>
                            <g id="Group-3" transform="translate(4.772992, 5.568491)">
                                <g id="Group-10">
                                    <g id="Group-12" filter="url(#filter-7)">
                                        <circle id="Oval-2" fill="#26C164" cx="5.4093913" cy="5.4093913" r="5.4093913"></circle>
                                        <path d="M6.05293734,7.59099744 L6.05293734,3.72941049 L5.38204604,3.72941049 L4.13799169,4.71989962 L4.53154604,5.21118223 L4.97528517,4.85460614 C5.02811125,4.81234527 5.12231777,4.72342136 5.25790473,4.5878344 L5.25790473,4.5878344 L5.24469821,4.98931266 L5.2367743,5.35645396 L5.2367743,7.59099744 L6.05293734,7.59099744 Z" id="1" fill="#FFFFFF" fill-rule="nonzero"></path>
                                    </g>
                                </g>
                            </g>
                        </g>
                        <g id="Group-4" transform="translate(22.356000, 7.776000)" fill="#FFFFFF">
                            <rect id="Rectangle" x="0" y="0" width="44.712" height="2.916"></rect>
                            <rect id="Rectangle" opacity="0.581682478" x="0" y="7.776" width="55.404" height="3.888"></rect>
                            <rect id="Rectangle" opacity="0.581682478" x="0" y="16.524" width="78.732" height="2.916"></rect>
                        </g>
                    </g>
                    <g id="Group" transform="translate(0.000000, 62.208000)">
                        <g id="Group-5">
                            <g id="Group-2" fill="#FFFFFF">
                                <rect id="Rectangle-10" x="0" y="0" width="110.574322" height="34.206445"></rect>
                            </g>
                            <g id="Group-3" transform="translate(4.772992, 5.568491)">
                                <g id="Group-10">
                                    <g id="Group-12" filter="url(#filter-8)">
                                        <circle id="Oval-2" fill="#26C164" cx="5.4093913" cy="5.4093913" r="5.4093913"></circle>
                                        <path d="M6.73439386,7.59099744 L6.73439386,6.90425831 L5.05188299,6.90425831 L5.05188299,6.86728005 L5.54844821,6.39976918 C5.87949169,6.09689962 6.11060582,5.8635844 6.2417906,5.69982353 C6.37297538,5.53606266 6.46982321,5.37626375 6.53233408,5.22042679 C6.59484495,5.06458983 6.62610038,4.89774744 6.62610038,4.71989962 C6.62610038,4.51563875 6.57503517,4.33426918 6.47290473,4.17579092 C6.3707743,4.01731266 6.22726343,3.89405179 6.04237212,3.80600831 C5.85748082,3.71796483 5.6444156,3.67394309 5.40317647,3.67394309 C5.22004604,3.67394309 5.0545243,3.69199201 4.90661125,3.72808983 C4.75869821,3.76418766 4.62223082,3.81569309 4.49720908,3.88260614 C4.37218734,3.94951918 4.21458951,4.0639757 4.0244156,4.2259757 L4.0244156,4.2259757 L4.46815473,4.75159527 C4.62135038,4.62481266 4.76838299,4.5270844 4.90925256,4.45841049 C5.05012212,4.38973657 5.19539386,4.35539962 5.34506777,4.35539962 C5.48769821,4.35539962 5.60171451,4.39325831 5.68711669,4.4689757 C5.77251886,4.54469309 5.81521995,4.66003005 5.81521995,4.81498657 C5.81521995,4.91887788 5.79585038,5.01924744 5.75711125,5.11609527 C5.71837212,5.21294309 5.65498082,5.31815505 5.56693734,5.43173114 C5.47889386,5.54530723 5.29136125,5.74912788 5.00433951,6.04319309 L5.00433951,6.04319309 L4.03498082,7.02311701 L4.03498082,7.59099744 L6.73439386,7.59099744 Z" id="2" fill="#FFFFFF" fill-rule="nonzero"></path>
                                    </g>
                                </g>
                            </g>
                        </g>
                        <g id="Group-4" transform="translate(22.356000, 7.776000)" fill="#909AA1">
                            <rect id="Rectangle" x="0" y="0" width="44.712" height="2.916"></rect>
                            <rect id="Rectangle" opacity="0.581682478" x="0" y="7.776" width="55.404" height="3.888"></rect>
                            <rect id="Rectangle" opacity="0.581682478" x="0" y="16.524" width="78.732" height="2.916"></rect>
                        </g>
                    </g>
                    <g id="Group" transform="translate(0.000000, 132.192000)">
                        <g id="Group-5">
                            <g id="Group-2" fill="#FFFFFF">
                                <rect id="Rectangle-10" x="0" y="0" width="110.574322" height="34.206445"></rect>
                            </g>
                            <g id="Group-3" transform="translate(4.772992, 5.568491)">
                                <g id="Group-10">
                                    <g id="Group-12" filter="url(#filter-9)">
                                        <circle id="Oval-2" fill="#26C164" cx="5.4093913" cy="5.4093913" r="5.4093913"></circle>
                                        <path d="M6.35668734,7.59099744 L6.35668734,6.79068223 L6.82155691,6.79068223 L6.82155691,6.15676918 L6.35668734,6.15676918 L6.35668734,3.72941049 L5.6039156,3.72941049 L3.91083951,6.22280179 L3.91083951,6.79068223 L5.55901343,6.79068223 L5.55901343,7.59099744 L6.35668734,7.59099744 Z M5.55901343,6.15676918 L4.6292743,6.15676918 L5.33714386,5.08704092 C5.42870908,4.94969309 5.50706777,4.80882353 5.57221995,4.66443223 L5.57221995,4.66443223 L5.59335038,4.66443223 C5.58806777,4.69788875 5.5810243,4.81850831 5.57221995,5.02629092 C5.5634156,5.23407353 5.55901343,5.39255179 5.55901343,5.5017257 L5.55901343,5.5017257 L5.55901343,6.15676918 Z" id="4" fill="#FFFFFF" fill-rule="nonzero"></path>
                                    </g>
                                </g>
                            </g>
                        </g>
                        <g id="Group-4" transform="translate(22.356000, 7.776000)" fill="#909AA1">
                            <rect id="Rectangle" x="0" y="0" width="44.712" height="2.916"></rect>
                            <rect id="Rectangle" opacity="0.581682478" x="0" y="7.776" width="55.404" height="3.888"></rect>
                            <rect id="Rectangle" opacity="0.581682478" x="0" y="16.524" width="78.732" height="2.916"></rect>
                        </g>
                    </g>
                    <g id="Group" transform="translate(0.000000, 167.184000)">
                        <g id="Group-5">
                            <g id="Group-2" fill="#FFFFFF">
                                <rect id="Rectangle-10" x="0" y="0" width="110.574322" height="34.206445"></rect>
                            </g>
                            <g id="Group-3" transform="translate(4.772992, 5.568491)">
                                <g id="Group-10">
                                    <g id="Group-12" filter="url(#filter-10)">
                                        <circle id="Oval-2" fill="#26C164" cx="5.4093913" cy="5.4093913" r="5.4093913"></circle>
                                        <path d="M6.05293734,7.59099744 L6.05293734,3.72941049 L5.38204604,3.72941049 L4.13799169,4.71989962 L4.53154604,5.21118223 L4.97528517,4.85460614 C5.02811125,4.81234527 5.12231777,4.72342136 5.25790473,4.5878344 L5.25790473,4.5878344 L5.24469821,4.98931266 L5.2367743,5.35645396 L5.2367743,7.59099744 L6.05293734,7.59099744 Z" id="1" fill="#FFFFFF" fill-rule="nonzero"></path>
                                    </g>
                                </g>
                            </g>
                        </g>
                        <g id="Group-4" transform="translate(22.356000, 7.776000)" fill="#909AA1">
                            <rect id="Rectangle" x="0" y="0" width="44.712" height="2.916"></rect>
                            <rect id="Rectangle" opacity="0.581682478" x="0" y="7.776" width="55.404" height="3.888"></rect>
                            <rect id="Rectangle" opacity="0.581682478" x="0" y="16.524" width="78.732" height="2.916"></rect>
                        </g>
                    </g>
                    <path d="M10.17684,15.94864 C10.47492,15.94864 10.76166,15.90004 11.03706,15.80284 C11.31246,15.70564 11.55384,15.5647 11.7612,15.38002 C11.96856,15.19534 12.1338,14.97016 12.25692,14.70448 C12.38004,14.4388 12.4416,14.13424 12.4416,13.7908 C12.4416,13.46032 12.38976,13.1752 12.28608,12.93544 C12.1824,12.69568 12.03984,12.49804 11.8584,12.34252 C11.67696,12.187 11.46798,12.07036 11.23146,11.9926 C10.99494,11.91484 10.74384,11.87596 10.47816,11.87596 C10.34856,11.87596 10.2303,11.8873 10.12338,11.90998 C10.01646,11.93266 9.90468,11.96992 9.78804,12.02176 L9.78804,12.02176 L9.89496,10.86508 L12.15972,10.86508 L12.15972,9.6598 L8.66052,9.6598 L8.48556,12.77992 L9.12708,13.18816 C9.2178,13.12984 9.30042,13.08124 9.37494,13.04236 C9.44946,13.00348 9.52074,12.97108 9.58878,12.94516 C9.65682,12.91924 9.72648,12.90142 9.79776,12.8917 C9.86904,12.88198 9.95004,12.87712 10.04076,12.87712 C10.33236,12.87712 10.56726,12.95812 10.74546,13.12012 C10.92366,13.28212 11.01276,13.51864 11.01276,13.82968 C11.01276,14.1472 10.9188,14.38696 10.73088,14.54896 C10.54296,14.71096 10.29024,14.79196 9.97272,14.79196 C9.70704,14.79196 9.46566,14.73202 9.24858,14.61214 C9.0315,14.49226 8.829,14.34808 8.64108,14.1796 L8.64108,14.1796 L7.99956,15.08356 C8.2458,15.3298 8.54388,15.53554 8.8938,15.70078 C9.24372,15.86602 9.6714,15.94864 10.17684,15.94864 Z M16.99056,15.832 L16.99056,12.5758 C17.14608,12.42676 17.28864,12.31174 17.41824,12.23074 C17.54784,12.14974 17.70336,12.10924 17.8848,12.10924 C18.09216,12.10924 18.24282,12.17404 18.33678,12.30364 C18.43074,12.43324 18.47772,12.673 18.47772,13.02292 L18.47772,13.02292 L18.47772,15.832 L19.90656,15.832 L19.90656,12.83824 C19.90656,12.22912 19.7883,11.75284 19.55178,11.4094 C19.31526,11.06596 18.93456,10.89424 18.40968,10.89424 C18.0792,10.89424 17.79084,10.96714 17.5446,11.11294 C17.29836,11.25874 17.07156,11.42884 16.8642,11.62324 L16.8642,11.62324 L16.82532,11.62324 L16.72812,11.01088 L15.56172,11.01088 L15.56172,15.832 L16.99056,15.832 Z M23.19192,15.94864 C23.49648,15.94864 23.7897,15.89194 24.07158,15.77854 C24.35346,15.66514 24.60294,15.50152 24.82002,15.28768 C25.0371,15.07384 25.21044,14.80978 25.34004,14.4955 C25.46964,14.18122 25.53444,13.8232 25.53444,13.42144 C25.53444,13.01968 25.46964,12.66166 25.34004,12.34738 C25.21044,12.0331 25.0371,11.76904 24.82002,11.5552 C24.60294,11.34136 24.35346,11.17774 24.07158,11.06434 C23.7897,10.95094 23.49648,10.89424 23.19192,10.89424 C22.88736,10.89424 22.59252,10.95094 22.3074,11.06434 C22.02228,11.17774 21.77118,11.34136 21.5541,11.5552 C21.33702,11.76904 21.16368,12.0331 21.03408,12.34738 C20.90448,12.66166 20.83968,13.01968 20.83968,13.42144 C20.83968,13.8232 20.90448,14.18122 21.03408,14.4955 C21.16368,14.80978 21.33702,15.07384 21.5541,15.28768 C21.77118,15.50152 22.02228,15.66514 22.3074,15.77854 C22.59252,15.89194 22.88736,15.94864 23.19192,15.94864 Z M23.19192,14.79196 C22.89384,14.79196 22.6719,14.66884 22.5261,14.4226 C22.3803,14.17636 22.3074,13.84264 22.3074,13.42144 C22.3074,13.00024 22.3803,12.66652 22.5261,12.42028 C22.6719,12.17404 22.89384,12.05092 23.19192,12.05092 C23.48352,12.05092 23.70384,12.17404 23.85288,12.42028 C24.00192,12.66652 24.07644,13.00024 24.07644,13.42144 C24.07644,13.84264 24.00192,14.17636 23.85288,14.4226 C23.70384,14.66884 23.48352,14.79196 23.19192,14.79196 Z M28.37268,15.94864 C28.60596,15.94864 28.81008,15.9292 28.98504,15.89032 C29.16,15.85144 29.31228,15.81256 29.44188,15.77368 L29.44188,15.77368 L29.21832,14.73364 C29.15352,14.75956 29.08062,14.78224 28.99962,14.80168 C28.91862,14.82112 28.83924,14.83084 28.76148,14.83084 C28.57356,14.83084 28.4229,14.7709 28.3095,14.65102 C28.1961,14.53114 28.1394,14.33512 28.1394,14.06296 L28.1394,14.06296 L28.1394,12.12868 L29.29608,12.12868 L29.29608,11.01088 L28.1394,11.01088 L28.1394,9.72784 L26.95356,9.72784 L26.78832,11.01088 L26.0496,11.0692 L26.0496,12.12868 L26.71056,12.12868 L26.71056,14.0824 C26.71056,14.36104 26.74134,14.61538 26.8029,14.84542 C26.86446,15.07546 26.96166,15.27148 27.0945,15.43348 C27.22734,15.59548 27.39906,15.72184 27.60966,15.81256 C27.82026,15.90328 28.0746,15.94864 28.37268,15.94864 Z M32.29956,15.94864 C32.59116,15.94864 32.88762,15.90004 33.18894,15.80284 C33.49026,15.70564 33.76404,15.5728 34.01028,15.40432 L34.01028,15.40432 L33.534,14.53924 C33.18408,14.75308 32.8374,14.86 32.49396,14.86 C32.16996,14.86 31.89618,14.77738 31.67262,14.61214 C31.44906,14.4469 31.30488,14.1796 31.24008,13.81024 L31.24008,13.81024 L34.12692,13.81024 C34.13988,13.75192 34.15284,13.6693 34.1658,13.56238 C34.17876,13.45546 34.18524,13.3372 34.18524,13.2076 C34.18524,12.87712 34.14312,12.57094 34.05888,12.28906 C33.97464,12.00718 33.84666,11.76256 33.67494,11.5552 C33.50322,11.34784 33.28938,11.18584 33.03342,11.0692 C32.77746,10.95256 32.47776,10.89424 32.13432,10.89424 C31.84272,10.89424 31.56084,10.95256 31.28868,11.0692 C31.01652,11.18584 30.77514,11.3527 30.56454,11.56978 C30.35394,11.78686 30.18384,12.05254 30.05424,12.36682 C29.92464,12.6811 29.85984,13.03264 29.85984,13.42144 C29.85984,13.8232 29.9214,14.1796 30.04452,14.49064 C30.16764,14.80168 30.33936,15.06574 30.55968,15.28282 C30.78,15.4999 31.0392,15.66514 31.33728,15.77854 C31.63536,15.89194 31.95612,15.94864 32.29956,15.94864 Z M32.97024,12.92572 L31.23036,12.92572 C31.2822,12.60172 31.39398,12.36358 31.5657,12.2113 C31.73742,12.05902 31.93668,11.98288 32.16348,11.98288 C32.45508,11.98288 32.66244,12.07036 32.78556,12.24532 C32.90868,12.42028 32.97024,12.64708 32.97024,12.92572 L32.97024,12.92572 Z M36.5958,15.94864 C36.9198,15.94864 37.20492,15.90814 37.45116,15.82714 C37.6974,15.74614 37.90476,15.63598 38.07324,15.49666 C38.24172,15.35734 38.36808,15.19372 38.45232,15.0058 C38.53656,14.81788 38.57868,14.61376 38.57868,14.39344 C38.57868,14.17312 38.5398,13.98358 38.46204,13.82482 C38.38428,13.66606 38.28222,13.5316 38.15586,13.42144 C38.0295,13.31128 37.89018,13.21894 37.7379,13.14442 C37.58562,13.0699 37.43172,13.00348 37.2762,12.94516 C37.15308,12.8998 37.03482,12.85606 36.92142,12.81394 C36.80802,12.77182 36.70758,12.72808 36.6201,12.68272 C36.53262,12.63736 36.46296,12.58714 36.41112,12.53206 C36.35928,12.47698 36.33336,12.41056 36.33336,12.3328 C36.33336,12.08008 36.5148,11.95372 36.87768,11.95372 C37.04616,11.95372 37.21464,11.98936 37.38312,12.06064 C37.5516,12.13192 37.72332,12.23236 37.89828,12.36196 L37.89828,12.36196 L38.5398,11.5066 C38.33244,11.35108 38.08944,11.21014 37.8108,11.08378 C37.53216,10.95742 37.20816,10.89424 36.8388,10.89424 C36.56016,10.89424 36.30744,10.9315 36.08064,11.00602 C35.85384,11.08054 35.65944,11.1826 35.49744,11.3122 C35.33544,11.4418 35.2107,11.60056 35.12322,11.78848 C35.03574,11.9764 34.992,12.18052 34.992,12.40084 C34.992,12.60172 35.03088,12.7783 35.10864,12.93058 C35.1864,13.08286 35.28684,13.2157 35.40996,13.3291 C35.53308,13.4425 35.66916,13.53808 35.8182,13.61584 C35.96724,13.6936 36.11628,13.76164 36.26532,13.81996 C36.38844,13.8718 36.50832,13.91878 36.62496,13.9609 C36.7416,14.00302 36.8469,14.05 36.94086,14.10184 C37.03482,14.15368 37.10934,14.21038 37.16442,14.27194 C37.2195,14.3335 37.24704,14.40316 37.24704,14.48092 C37.24704,14.61052 37.19844,14.71096 37.10124,14.78224 C37.00404,14.85352 36.84852,14.88916 36.63468,14.88916 C36.42732,14.88916 36.2232,14.84704 36.02232,14.7628 C35.82144,14.67856 35.61084,14.5522 35.39052,14.38372 L35.39052,14.38372 L34.749,15.27796 C34.99524,15.47884 35.28522,15.64084 35.61894,15.76396 C35.95266,15.88708 36.27828,15.94864 36.5958,15.94864 Z" id="5notes" fill="#354052" fill-rule="nonzero"></path>
                    <rect id="Rectangle" fill="#0042FF" x="452.952" y="278.964" width="55.404" height="18.468" rx="3.888"></rect>
                    <g id="Group-6" transform="translate(430.596000, 278.964000)">
                        <rect id="Rectangle" fill="#FFAA00" x="0" y="0" width="18.468" height="18.468" rx="9.234"></rect>
                        <path d="M7.19766,12.43348 C7.4601,12.43348 7.687305,12.38974 7.879275,12.30226 C8.071245,12.21478 8.229195,12.09571 8.353125,11.94505 C8.477055,11.79439 8.569395,11.617 8.630145,11.41288 C8.690895,11.20876 8.72127,10.99249 8.72127,10.76407 L8.72127,10.76407 L8.72127,7.59292 L7.64964,7.59292 L7.64964,10.67659 C7.64964,10.99249 7.599825,11.209975 7.500195,11.329045 C7.400565,11.448115 7.25355,11.50765 7.05915,11.50765 C6.93765,11.50765 6.81858,11.46877 6.70194,11.39101 C6.5853,11.31325 6.48324,11.19418 6.39576,11.0338 L6.39576,11.0338 L5.66676,11.57326 C5.832,11.86486 6.037335,12.08113 6.282765,12.22207 C6.528195,12.36301 6.83316,12.43348 7.19766,12.43348 Z M11.22174,12.346 C11.57166,12.346 11.888775,12.2974 12.173085,12.2002 C12.457395,12.103 12.70161,11.955985 12.90573,11.759155 C13.10985,11.562325 13.2678,11.31325 13.37958,11.01193 C13.49136,10.71061 13.54725,10.35583 13.54725,9.94759 C13.54725,9.53935 13.49136,9.187 13.37958,8.89054 C13.2678,8.59408 13.10742,8.349865 12.89844,8.157895 C12.68946,7.965925 12.43917,7.82377 12.14757,7.73143 C11.85597,7.63909 11.52792,7.59292 11.16342,7.59292 L11.16342,7.59292 L9.82206,7.59292 L9.82206,12.346 L11.22174,12.346 Z M11.09781,11.47849 L10.89369,11.47849 L10.89369,8.46043 L11.09781,8.46043 C11.30193,8.46043 11.48661,8.48473 11.65185,8.53333 C11.81709,8.58193 11.95803,8.663335 12.07467,8.777545 C12.19131,8.891755 12.282435,9.044845 12.348045,9.236815 C12.413655,9.428785 12.44646,9.66571 12.44646,9.94759 C12.44646,10.23433 12.413655,10.4749 12.348045,10.6693 C12.282435,10.8637 12.19131,11.020435 12.07467,11.139505 C11.95803,11.258575 11.81709,11.34484 11.65185,11.3983 C11.48661,11.45176 11.30193,11.47849 11.09781,11.47849 L11.09781,11.47849 Z" id="JD" fill="#FFFFFF" fill-rule="nonzero"></path>
                    </g>
                    <g id="Group-6" transform="translate(409.212000, 278.964000)">
                        <rect id="Rectangle" fill="#00AEEF" x="0" y="0" width="18.468" height="18.468" rx="9.234"></rect>
                        <path d="M6.472305,12.346 L6.763905,11.21605 L8.214615,11.21605 L8.506215,12.346 L9.643455,12.346 L8.156295,7.59292 L6.865965,7.59292 L5.378805,12.346 L6.472305,12.346 Z M7.995915,10.3777 L6.982605,10.3777 L7.099245,9.9403 C7.167285,9.70216 7.23168,9.450655 7.29243,9.185785 C7.35318,8.920915 7.412715,8.66212 7.471035,8.4094 L7.471035,8.4094 L7.500195,8.4094 C7.563375,8.65726 7.626555,8.91484 7.689735,9.18214 C7.752915,9.44944 7.818525,9.70216 7.886565,9.9403 L7.886565,9.9403 L7.995915,10.3777 Z M11.232675,12.346 L11.232675,10.73491 L11.896065,10.73491 C12.148785,10.73491 12.386925,10.70332 12.610485,10.64014 C12.834045,10.57696 13.030875,10.47976 13.200975,10.34854 C13.371075,10.21732 13.50594,10.04965 13.60557,9.84553 C13.7052,9.64141 13.755015,9.40084 13.755015,9.12382 C13.755015,8.83708 13.706415,8.595295 13.609215,8.398465 C13.512015,8.201635 13.37958,8.043685 13.21191,7.924615 C13.04424,7.805545 12.84741,7.720495 12.62142,7.669465 C12.39543,7.618435 12.153645,7.59292 11.896065,7.59292 L11.896065,7.59292 L10.161045,7.59292 L10.161045,12.346 L11.232675,12.346 Z M11.830455,9.88198 L11.232675,9.88198 L11.232675,8.44585 L11.830455,8.44585 C12.117195,8.44585 12.33468,8.49688 12.48291,8.59894 C12.63114,8.701 12.705255,8.87596 12.705255,9.12382 C12.705255,9.62926 12.413655,9.88198 11.830455,9.88198 L11.830455,9.88198 Z" id="AP" fill="#FFFFFF" fill-rule="nonzero"></path>
                    </g>
                    <rect id="Rectangle" fill="#FFFFFF" x="465.588" y="285.768" width="32.076" height="4.86"></rect>
                    <rect id="Rectangle" stroke="#D4DBE1" stroke-width="0.972" fill="#FFFFFF" x="131.22" y="45.684" width="241.056" height="162.324" rx="9.72"></rect>
                    <g id="Group-18" transform="translate(136.080000, 54.432000)" fill="#E6EEF1">
                        <g id="Group-17">
                            <rect id="Rectangle" x="0.21384" y="0.15552" width="31.72608" height="10.57536"></rect>
                            <rect id="Rectangle" x="9.77832" y="89.30736" width="66.096" height="53.946"></rect>
                            <rect id="Rectangle" x="83.65032" y="89.30736" width="66.096" height="53.946"></rect>
                            <rect id="Rectangle" x="157.52232" y="89.30736" width="66.096" height="53.946"></rect>
                            <rect id="Rectangle" x="105.03432" y="30.3264" width="31.72608" height="4.6656"></rect>
                            <rect id="Rectangle" x="87.92712" y="42.14592" width="65.94048" height="4.6656"></rect>
                            <rect id="Rectangle" x="163.82088" y="3.888" width="31.72608" height="3.1104"></rect>
                            <rect id="Rectangle" x="199.59048" y="3.888" width="31.72608" height="3.1104"></rect>
                        </g>
                    </g>
                    <g id="Group-3" transform="translate(174.960000, 79.704000)">
                        <g id="Group-10">
                            <g id="Group-12" filter="url(#filter-11)">
                                <circle id="Oval-2" fill="#26C164" cx="10.8187826" cy="10.8187826" r="10.8187826"></circle>
                                <text id="1" font-family="OpenSans-Bold, Open Sans" font-size="10.8187826" font-weight="bold" fill="#FFFFFF">
                                    <tspan x="7.63678772" y="15.1819949">1</tspan>
                                </text>
                            </g>
                        </g>
                    </g>
                    <g id="Group-7" transform="translate(395.604000, 10.692000)">
                        <rect id="Rectangle" stroke="#C5D0DE" stroke-width="0.6804" fill="#26C164" x="0.3402" y="0.3402" width="82.9116" height="22.4532" rx="4.0824"></rect>
                        <path d="M28.9841475,15.944 L28.9841475,12.4189862 L30.361106,12.4189862 L32.3026175,15.944 L34.0926636,15.944 L31.9446083,12.1849032 C32.486212,12.0013087 32.9199539,11.6983779 33.2458341,11.2761106 C33.5717143,10.8538433 33.7346544,10.29847 33.7346544,9.60999077 C33.7346544,9.10510598 33.6497419,8.6828387 33.4799171,8.34318893 C33.3100922,8.00353916 33.0783042,7.73044238 32.784553,7.5238986 C32.4908019,7.31735482 32.1419724,7.16818431 31.7380645,7.07638708 C31.3341567,6.98458984 30.8981198,6.93869123 30.4299539,6.93869123 L30.4299539,6.93869123 L27.3868756,6.93869123 L27.3868756,15.944 L28.9841475,15.944 Z M30.2647189,11.1521843 L28.9841475,11.1521843 L28.9841475,8.21926266 L30.2647189,8.21926266 C30.8797604,8.21926266 31.3502212,8.32023962 31.6761014,8.52219353 C32.0019816,8.72414745 32.1649217,9.08674653 32.1649217,9.60999077 C32.1649217,10.1240553 32.0019816,10.5096037 31.6761014,10.7666359 C31.3502212,11.0236682 30.8797604,11.1521843 30.2647189,11.1521843 L30.2647189,11.1521843 Z M38.2510784,16.109235 C38.6825254,16.109235 39.0956129,16.0403871 39.490341,15.9026912 C39.8850692,15.7649954 40.2430784,15.5905806 40.5643687,15.379447 L40.5643687,15.379447 L40.0273549,14.3880369 C39.7795023,14.5440922 39.5293549,14.6657235 39.2769125,14.7529309 C39.0244701,14.8401382 38.7513733,14.8837419 38.4576221,14.8837419 C37.9068387,14.8837419 37.4547373,14.7185069 37.101318,14.3880369 C36.7478986,14.0575668 36.5344701,13.5848111 36.4610323,12.9697696 L36.4610323,12.9697696 L40.7571429,12.9697696 C40.8030415,12.7861751 40.8259908,12.5383226 40.8259908,12.226212 C40.8259908,11.7580461 40.7663226,11.3265991 40.6469862,10.931871 C40.5276498,10.5371428 40.3509401,10.1974931 40.1168572,9.91292165 C39.8827742,9.62835022 39.591318,9.40803685 39.2424885,9.25198155 C38.893659,9.09592625 38.4897512,9.0178986 38.030765,9.0178986 C37.6360369,9.0178986 37.2504885,9.10051612 36.8741198,9.26575114 C36.4977512,9.43098616 36.1649862,9.66506911 35.8758249,9.96799999 C35.5866636,10.2709309 35.3548756,10.6427097 35.1804608,11.0833364 C35.0060461,11.5239631 34.9188387,12.0196682 34.9188387,12.5704516 C34.9188387,13.1304147 35.0037512,13.6284147 35.1735761,14.0644516 C35.3434009,14.5004885 35.5797788,14.8699723 35.8827097,15.1729032 C36.1856406,15.4758341 36.5390599,15.7076221 36.9429678,15.8682673 C37.3468756,16.0289124 37.7829125,16.109235 38.2510784,16.109235 Z M39.4490323,11.9645899 L36.4472627,11.9645899 C36.5207005,11.395447 36.7088848,10.9662949 37.0118157,10.6771336 C37.3147466,10.3879723 37.6681659,10.2433917 38.0720738,10.2433917 C38.5402397,10.2433917 38.8867742,10.3948571 39.1116774,10.697788 C39.3365807,11.0007189 39.4490323,11.4229862 39.4490323,11.9645899 L39.4490323,11.9645899 Z M44.2270784,16.109235 C44.6493457,16.109235 45.0257143,16.0541567 45.3561844,15.944 C45.6866544,15.8338433 45.9620461,15.6846728 46.1823595,15.4964885 C46.4026728,15.3083041 46.5702028,15.0879908 46.6849493,14.8355484 C46.7996959,14.583106 46.8570692,14.3100092 46.8570692,14.0162581 C46.8570692,13.7041475 46.7996959,13.4356405 46.6849493,13.2107373 C46.5702028,12.9858341 46.4187374,12.7953548 46.230553,12.6392995 C46.0423687,12.4832442 45.83353,12.3524332 45.6040369,12.2468664 C45.3745438,12.1412995 45.1450507,12.0472074 44.9155576,11.9645899 C44.7319632,11.9003318 44.5552535,11.8360737 44.3854286,11.7718157 C44.2156037,11.7075576 44.0664332,11.6387097 43.9379171,11.5652719 C43.809401,11.4918341 43.7061291,11.4069217 43.6281014,11.3105346 C43.5500738,11.2141475 43.5110599,11.097106 43.5110599,10.9594101 C43.5110599,10.7482765 43.5913825,10.5715668 43.7520277,10.4292811 C43.9126728,10.2869954 44.1628203,10.2158525 44.5024701,10.2158525 C44.7686821,10.2158525 45.0234194,10.2686359 45.2666821,10.3742028 C45.5099447,10.4797696 45.7509125,10.6197604 45.9895853,10.7941751 L45.9895853,10.7941751 L46.7193733,9.83030414 C46.4439816,9.61917049 46.1181014,9.43098616 45.7417328,9.26575114 C45.3653641,9.10051612 44.9430968,9.0178986 44.4749309,9.0178986 C43.7130139,9.0178986 43.111742,9.20608294 42.6711152,9.5824516 C42.2304885,9.95882026 42.0101751,10.4453456 42.0101751,11.0420276 C42.0101751,11.3265991 42.0675484,11.5721567 42.182295,11.7787005 C42.2970415,11.9852442 42.4439171,12.1665438 42.6229217,12.3225991 C42.8019263,12.4786544 43.0061751,12.6117604 43.2356682,12.721917 C43.4651613,12.8320737 43.6900645,12.9284608 43.9103779,13.0110783 C44.0847927,13.0845161 44.2592074,13.155659 44.4336222,13.2245069 C44.6080369,13.2933548 44.7640922,13.3690876 44.9017881,13.4517051 C45.0394839,13.5343226 45.1496406,13.6284147 45.2322581,13.7339816 C45.3148756,13.8395484 45.3561844,13.9611797 45.3561844,14.0988756 C45.3561844,14.3375484 45.268977,14.5326175 45.0945622,14.6840829 C44.9201475,14.8355484 44.6493457,14.9112811 44.2821567,14.9112811 C43.9333272,14.9112811 43.609742,14.8447281 43.311401,14.7116221 C43.0130599,14.5785161 42.712424,14.3926267 42.4094931,14.1539539 L42.4094931,14.1539539 L41.6659355,15.1729032 C41.9964056,15.4391152 42.3888387,15.6617235 42.8432351,15.8407281 C43.2976314,16.0197327 43.7589125,16.109235 44.2270784,16.109235 Z M51.0430231,16.109235 C51.4652904,16.109235 51.8714931,16.0312074 52.2616314,15.8751521 C52.6517696,15.7190968 52.9937143,15.4896037 53.2874655,15.1866728 C53.5812166,14.8837419 53.8175945,14.5119631 53.9965991,14.0713364 C54.1756037,13.6307097 54.265106,13.1304147 54.265106,12.5704516 C54.265106,12.0104885 54.1756037,11.5101935 53.9965991,11.0695668 C53.8175945,10.6289401 53.5812166,10.2571613 53.2874655,9.9542304 C52.9937143,9.65129953 52.6517696,9.41951151 52.2616314,9.25886635 C51.8714931,9.09822118 51.4652904,9.0178986 51.0430231,9.0178986 C50.6207558,9.0178986 50.216848,9.09822118 49.8312996,9.25886635 C49.4457512,9.41951151 49.1038065,9.65129953 48.8054655,9.9542304 C48.5071245,10.2571613 48.2707466,10.6289401 48.0963318,11.0695668 C47.9219171,11.5101935 47.8347097,12.0104885 47.8347097,12.5704516 C47.8347097,13.1304147 47.9219171,13.6307097 48.0963318,14.0713364 C48.2707466,14.5119631 48.5071245,14.8837419 48.8054655,15.1866728 C49.1038065,15.4896037 49.4457512,15.7190968 49.8312996,15.8751521 C50.216848,16.0312074 50.6207558,16.109235 51.0430231,16.109235 Z M51.0430231,14.814894 C50.547318,14.814894 50.1594747,14.6106452 49.8794931,14.2021475 C49.5995116,13.7936498 49.4595208,13.2497511 49.4595208,12.5704516 C49.4595208,11.8819723 49.5995116,11.3334839 49.8794931,10.9249862 C50.1594747,10.5164885 50.547318,10.3122396 51.0430231,10.3122396 C51.5387282,10.3122396 51.9288664,10.5164885 52.2134378,10.9249862 C52.4980093,11.3334839 52.640295,11.8819723 52.640295,12.5704516 C52.640295,13.2497511 52.4980093,13.7936498 52.2134378,14.2021475 C51.9288664,14.6106452 51.5387282,14.814894 51.0430231,14.814894 Z M57.3770323,16.109235 C57.7258618,16.109235 58.0058434,16.0633364 58.216977,15.9715392 L58.216977,15.9715392 L58.0104332,14.7873548 C57.9461752,14.8057143 57.8979816,14.814894 57.8658526,14.814894 L57.8658526,14.814894 L57.7625807,14.814894 C57.6799632,14.814894 57.6019355,14.7758802 57.5284978,14.6978525 C57.45506,14.6198249 57.4183411,14.484424 57.4183411,14.2916498 L57.4183411,14.2916498 L57.4183411,6.22267279 L55.8348388,6.22267279 L55.8348388,14.2090323 C55.8348388,14.7965346 55.9495853,15.2601106 56.1790784,15.5997604 C56.4085715,15.9394101 56.8078895,16.109235 57.3770323,16.109235 Z M62.9124056,15.944 L65.2119263,9.18313363 L63.6835024,9.18313363 L62.6094747,12.6943779 C62.5084978,13.0248479 62.4121107,13.3599078 62.3203134,13.6995576 C62.2285162,14.0392074 62.1321291,14.383447 62.0311521,14.7322765 L62.0311521,14.7322765 L61.9760738,14.7322765 C61.8842766,14.383447 61.7901844,14.0392074 61.6937973,13.6995576 C61.5974102,13.3599078 61.503318,13.0248479 61.4115208,12.6943779 L61.4115208,12.6943779 L60.3374932,9.18313363 L58.7264517,9.18313363 L61.0810508,15.944 L62.9124056,15.944 Z M69.1913365,16.109235 C69.6227835,16.109235 70.0358711,16.0403871 70.4305992,15.9026912 C70.8253273,15.7649954 71.1833365,15.5905806 71.5046268,15.379447 L71.5046268,15.379447 L70.967613,14.3880369 C70.7197605,14.5440922 70.469613,14.6657235 70.2171706,14.7529309 C69.9647282,14.8401382 69.6916314,14.8837419 69.3978803,14.8837419 C68.8470969,14.8837419 68.3949955,14.7185069 68.0415761,14.3880369 C67.6881568,14.0575668 67.4747282,13.5848111 67.4012904,12.9697696 L67.4012904,12.9697696 L71.697401,12.9697696 C71.7432996,12.7861751 71.7662489,12.5383226 71.7662489,12.226212 C71.7662489,11.7580461 71.7065807,11.3265991 71.5872443,10.931871 C71.4679079,10.5371428 71.2911982,10.1974931 71.0571153,9.91292165 C70.8230323,9.62835022 70.5315761,9.40803685 70.1827466,9.25198155 C69.8339171,9.09592625 69.4300093,9.0178986 68.9710231,9.0178986 C68.576295,9.0178986 68.1907466,9.10051612 67.814378,9.26575114 C67.4380093,9.43098616 67.1052443,9.66506911 66.816083,9.96799999 C66.5269217,10.2709309 66.2951337,10.6427097 66.120719,11.0833364 C65.9463042,11.5239631 65.8590969,12.0196682 65.8590969,12.5704516 C65.8590969,13.1304147 65.9440093,13.6284147 66.1138342,14.0644516 C66.2836591,14.5004885 66.5200369,14.8699723 66.8229678,15.1729032 C67.1258987,15.4758341 67.4793181,15.7076221 67.8832259,15.8682673 C68.2871337,16.0289124 68.7231706,16.109235 69.1913365,16.109235 Z M70.3892904,11.9645899 L67.3875208,11.9645899 C67.4609586,11.395447 67.6491429,10.9662949 67.9520738,10.6771336 C68.2550047,10.3879723 68.608424,10.2433917 69.0123319,10.2433917 C69.4804978,10.2433917 69.8270323,10.3948571 70.0519356,10.697788 C70.2768388,11.0007189 70.3892904,11.4229862 70.3892904,11.9645899 L70.3892904,11.9645899 Z" id="Resolve" fill="#FFFFFF" fill-rule="nonzero"></path>
                        <circle id="Oval" stroke="#26C164" stroke-width="1.3608" fill="#FFFFFF" cx="12.9276" cy="11.5668" r="6.1236"></circle>
                        <polyline id="Path-26" stroke="#26C164" stroke-width="2" points="10 11.2487495 12.644233 14 16 9"></polyline>
                    </g>
                    <g id="Group" transform="translate(0.000000, 97.200000)">
                        <g id="Group-5">
                            <g id="Group-2">
                                <g id="Rectangle-10">
                                    <use fill="black" fill-opacity="1" filter="url(#filter-13)" xlink:href="#path-12"></use>
                                    <use fill="#FFFFFF" fill-rule="evenodd" xlink:href="#path-12"></use>
                                </g>
                            </g>
                            <g id="Group-3" transform="translate(4.772992, 5.568491)">
                                <g id="Group-10">
                                    <g id="Group-12" filter="url(#filter-14)">
                                        <circle id="Oval-2" fill="#26C164" cx="5.4093913" cy="5.4093913" r="5.4093913"></circle>
                                        <path d="M5.13904604,7.64382353 C5.63913299,7.64382353 6.02388299,7.54037244 6.29329604,7.33347027 C6.56270908,7.12656809 6.6974156,6.83734527 6.6974156,6.46580179 C6.6974156,6.2104757 6.61729604,6.00753549 6.45705691,5.85698114 C6.29681777,5.70642679 6.06086125,5.61178005 5.74918734,5.57304092 L5.74918734,5.57304092 L5.74918734,5.55719309 C6.01331777,5.49380179 6.21845908,5.3775844 6.36461125,5.20854092 C6.51076343,5.03949744 6.58383951,4.83435614 6.58383951,4.59311701 C6.58383951,4.3043344 6.46806234,4.07894309 6.23650799,3.91694309 C6.00495364,3.75494309 5.68931777,3.67394309 5.28960038,3.67394309 C4.80183951,3.67394309 4.38187212,3.8007257 4.02969821,4.05429092 L4.02969821,4.05429092 L4.40740473,4.61688875 C4.56764386,4.51299744 4.71335582,4.43992136 4.8445406,4.39766049 C4.97572538,4.35539962 5.10470908,4.33426918 5.23149169,4.33426918 C5.59775256,4.33426918 5.78088299,4.48042136 5.78088299,4.7727257 C5.78088299,4.96289962 5.71176886,5.09716592 5.5735406,5.17552462 C5.43531234,5.25388331 5.2165243,5.29306266 4.91717647,5.29306266 L4.91717647,5.29306266 L4.61870908,5.29306266 L4.61870908,5.91905179 L4.91189386,5.91905179 C5.23589386,5.91905179 5.47185038,5.95691049 5.61976343,6.03262788 C5.76767647,6.10834527 5.84163299,6.23688875 5.84163299,6.41825831 C5.84163299,6.62075831 5.77736125,6.76779092 5.64881777,6.85935614 C5.5202743,6.95092136 5.32129604,6.99670396 5.05188299,6.99670396 C4.87579604,6.99670396 4.69794821,6.97293223 4.51833951,6.92538875 C4.33873082,6.87784527 4.17408951,6.81621483 4.0244156,6.74049744 L4.0244156,6.74049744 L4.0244156,7.43516049 C4.3484156,7.57426918 4.71995908,7.64382353 5.13904604,7.64382353 Z" id="3" fill="#FFFFFF" fill-rule="nonzero"></path>
                                    </g>
                                </g>
                            </g>
                        </g>
                        <g id="Group-4" transform="translate(22.356000, 7.776000)" fill="#909AA1">
                            <rect id="Rectangle" x="0" y="0" width="44.712" height="2.916"></rect>
                            <rect id="Rectangle" opacity="0.581682478" x="0" y="7.776" width="55.404" height="3.888"></rect>
                            <rect id="Rectangle" opacity="0.581682478" x="0" y="16.524" width="78.732" height="2.916"></rect>
                        </g>
                    </g>
                </g>
            </g>
        </g>
    </g>
</svg>