<?xml version="1.0" encoding="UTF-8"?>
<svg width="112px" height="38px" viewBox="0 0 112 38" version="1.1" xmlns="http://www.w3.org/2000/svg" xmlns:xlink="http://www.w3.org/1999/xlink">
    <title>Group</title>
    <g id="Home---new" stroke="none" stroke-width="1" fill="none" fill-rule="evenodd">
        <g id="Home" transform="translate(-311.000000, -6181.000000)" fill="#FFFFFF">
            <g id="Group-24" transform="translate(311.000000, 6181.000000)">
                <g id="Group">
                    <path d="M20.8342823,5.84615385 L14.9782894,13.672913 C12.1742589,11.2967403 9.37182803,8.6714155 6.57099668,5.84615385 L0,5.84615385 L0.622229238,6.50286954 C5.70403461,11.8657914 10.811433,16.5058645 15.9332273,20.4615385 L17.9918624,17.8623593 L22.4946267,12.1856903 L27.4580645,5.84615385 L20.8342823,5.84615385 Z" id="Fill-1"></path>
                    <path d="M106.254679,5.84615385 C105.070938,7.44559507 102.77281,10.3556895 99.4990017,13.7021395 L94.270681,5.84615385 L88.5316652,5.84615385 L96.0029465,17.0723906 C88.1281529,24.2175134 76.4231456,31.9703605 61.9282294,33.096951 C48.6816792,34.12675 35.2113058,29.4950348 21.7251703,19.3398524 L18.7870968,23.0988566 C31.9059732,33.0065064 45.1131179,38 58.2619424,38 C59.6064578,38 60.9509732,37.9476373 62.2939124,37.8444988 C92.1632753,35.5199141 110.374918,8.31671931 111.134655,7.15998056 L112,5.84615385 L106.254679,5.84615385 Z" id="Fill-3"></path>
                    <path d="M33.3893269,13.8222808 C33.3893269,13.1939481 33.4826226,12.602185 33.6723767,12.0469915 C33.8621307,11.4917981 34.1356927,11.0047571 34.494644,10.5842064 C34.8535954,10.1653179 35.2868671,9.83619125 35.794459,9.59516415 C36.3036323,9.35413705 36.8871259,9.23279237 37.5449398,9.23279237 C38.182197,9.23279237 38.7562029,9.35912382 39.2637949,9.61012445 C39.7729682,9.86278734 40.2157275,10.2018875 40.5952356,10.6324118 C40.9731623,11.0612738 41.2625372,11.5533015 41.4617789,12.108495 C41.6594393,12.6653507 41.7606415,13.2554515 41.7606415,13.8854465 L41.7606415,13.9486122 C41.7606415,14.5769449 41.6657644,15.168708 41.4760104,15.7239015 C41.2862564,16.2790949 41.0126944,16.7661359 40.6553243,17.1850244 C40.2947917,17.6039129 39.8631013,17.9347018 39.3539281,18.1757289 C38.8463361,18.416756 38.2628425,18.5364384 37.6050286,18.5364384 C36.9867468,18.5364384 36.419066,18.4117692 35.900405,18.1591063 C35.3817441,17.9081057 34.9342408,17.5673432 34.5547328,17.1384812 C34.1768061,16.707957 33.8858499,16.2159292 33.6866082,15.6607358 C33.4889478,15.1055423 33.3893269,14.5137792 33.3893269,13.8854465 L33.3893269,13.8222808 Z M29.562621,10.4744975 C29.1230242,11.5333545 28.9032258,12.6703375 28.9032258,13.8854465 L28.9032258,13.9486122 C28.9032258,15.1637213 29.1230242,16.3007043 29.562621,17.357899 C29.9990552,18.416756 30.6031055,19.3376457 31.3716093,20.1238927 C32.1385317,20.9101398 33.049351,21.5284989 34.1072296,21.9789703 C35.1619457,22.4294416 36.3083762,22.6538462 37.5449398,22.6538462 C38.8004789,22.6538462 39.9563971,22.4227926 41.0126944,21.9623477 C42.0689917,21.5019028 42.9861361,20.8735701 43.7641276,20.0773496 C44.542119,19.281129 45.1493319,18.3535903 45.5873474,17.2947333 C46.0269442,16.2375385 46.2451613,15.1005555 46.2451613,13.8854465 L46.2451613,13.8222808 C46.2451613,12.6071718 46.0269442,11.4701888 45.5873474,10.4113318 C45.1493319,9.35413705 44.5468629,8.43158505 43.7783591,7.64533803 C43.0920821,6.9422038 42.2729773,6.39532162 41.3558329,5.96147285 C41.2467243,5.90994291 41.1550099,5.83846591 41.0427388,5.79192275 C39.9864414,5.34145141 38.8400109,5.11538462 37.6050286,5.11538462 C36.3494895,5.11538462 35.1935713,5.34643818 34.1356927,5.80688305 C34.0360719,5.85176396 33.9538451,5.91492968 33.8573868,5.96147285 C32.9244296,6.40695742 32.0895119,6.97212441 31.3842595,7.69188119 C30.6078494,8.489764 29.9990552,9.41730277 29.562621,10.4744975 L29.562621,10.4744975 Z" id="Fill-6"></path>
                    <polygon id="Fill-8" points="56.3612903 22.6538462 56.3612903 6.54521035 56.3612903 0 52.0258065 0 52.0258065 6.54521035 52.0258065 22.6538462"></polygon>
                    <polygon id="Fill-10" points="65.7548387 22.6538462 65.7548387 6.54521035 65.7548387 0 61.4193548 0 61.4193548 6.54521035 61.4193548 22.6538462"></polygon>
                    <path d="M76.2219043,9.92429081 C76.7895062,9.27434877 77.5341021,8.95020888 78.4572179,8.95020888 C79.3803338,8.95020888 80.1203523,9.27933554 80.6787992,9.93925111 C81.2372461,10.6008289 81.5820795,11.465202 81.7178767,12.5323702 L75.1095879,12.5323702 C75.2835304,11.4435927 75.6527767,10.5742328 76.2219043,9.92429081 M71.3744018,10.4894578 C71.000578,11.5582883 70.8129032,12.6902846 70.8129032,13.8837843 L70.8129032,13.94695 C70.8129032,15.2252247 71.0127845,16.3987774 71.4186503,17.4676079 C71.8214645,18.5364384 72.3844889,19.4589904 73.1061976,20.2336016 C73.8263806,21.0082129 74.6823607,21.606625 75.6726123,22.0255134 C76.6643896,22.4444019 77.737035,22.6538462 78.8905483,22.6538462 C80.2942948,22.6538462 81.5149438,22.3762494 82.5540213,21.821056 C83.5930988,21.2658625 84.4765436,20.4962381 85.208933,19.5105203 L82.6989734,17.0902758 C82.0825456,17.6986614 81.4859534,18.137497 80.9091967,18.410107 C80.33244,18.6827169 79.6793928,18.8190219 78.9485292,18.8190219 C77.9674325,18.8190219 77.1450202,18.5414252 76.4797665,17.9862317 C75.8175643,17.4310383 75.3796565,16.6082216 75.1690945,15.519444 L85.9306418,15.519444 C85.9489515,15.2883905 85.9626838,15.0689727 85.9733645,14.8595284 C85.9825193,14.6500842 85.9870968,14.4506135 85.9870968,14.2611163 C85.9870968,13.0676166 85.8375673,11.9206601 85.5400341,10.8202467 C85.2425009,9.71983334 84.78018,8.74575141 84.1561232,7.89633866 C83.5625826,7.09180683 82.814935,6.45516284 81.9375935,5.96147285 C81.8887676,5.93487675 81.8521481,5.89498261 81.804848,5.87004877 C80.8618966,5.36638525 79.7465285,5.11538462 78.4572179,5.11538462 C77.3418499,5.11538462 76.3119272,5.34643818 75.3705016,5.80688305 C75.2820046,5.8501017 75.2087656,5.91492968 75.1233202,5.96147285 C74.291753,6.40695742 73.556312,6.97212441 72.9475133,7.69188119 C72.2731047,8.489764 71.7497514,9.42062728 71.3744018,10.4894578" id="Fill-12"></path>
                </g>
            </g>
        </g>
    </g>
</svg>