<?xml version="1.0" encoding="UTF-8"?>
<svg width="478px" height="183px" viewBox="0 0 478 183" version="1.1" xmlns="http://www.w3.org/2000/svg" xmlns:xlink="http://www.w3.org/1999/xlink">
    <title>Resync Digital Logo 1 Colour</title>
    <defs>
        <radialGradient cx="49.8150183%" cy="50.5031928%" fx="49.8150183%" fy="50.5031928%" r="103.448276%" gradientTransform="translate(0.498150,0.505032),scale(0.187861,1.000000),rotate(90.000000),translate(-0.498150,-0.505032)" id="radialGradient-1">
            <stop stop-color="#B44C4C" offset="0%"></stop>
            <stop stop-color="#B41515" offset="100%"></stop>
        </radialGradient>
    </defs>
    <g id="Page-1" stroke="none" stroke-width="1" fill="none" fill-rule="evenodd">
        <g id="Resync-Digital-Logo-1-Colour" fill-rule="nonzero">
            <path d="M39.576,78 L23.052,49.164 L18.84,49.164 L18.84,78 L0.372,78 L0.372,1.644 L31.908,1.644 C37.956,1.644 43.068,2.688 47.244,4.776 C51.42,6.864 54.552,9.744 56.64,13.416 C58.728,17.016 59.772,21.156 59.772,25.836 C59.772,31.38 58.224,36.096 55.128,39.984 C52.104,43.872 47.676,46.536 41.844,47.976 L59.988,78 L39.576,78 Z M18.84,36.528 L30.288,36.528 C33.96,36.528 36.66,35.736 38.388,34.152 C40.116,32.496 40.98,30.084 40.98,26.916 C40.98,23.892 40.08,21.516 38.28,19.788 C36.552,18.06 33.888,17.196 30.288,17.196 L18.84,17.196 L18.84,36.528 Z M87.5002,16.332 L87.5002,32.316 L113.312,32.316 L113.312,46.248 L87.5002,46.248 L87.5002,63.204 L116.552,63.204 L116.552,78 L69.0322,78 L69.0322,1.644 L116.552,1.644 L116.552,16.332 L87.5002,16.332 Z M181.904,56.508 C181.904,60.54 180.86,64.248 178.772,67.632 C176.756,71.016 173.732,73.716 169.7,75.732 C165.74,77.748 160.916,78.756 155.228,78.756 C146.66,78.756 139.604,76.668 134.06,72.492 C128.516,68.316 125.492,62.484 124.988,54.996 L144.644,54.996 C144.932,57.876 145.94,60.144 147.668,61.8 C149.468,63.456 151.736,64.284 154.472,64.284 C156.848,64.284 158.72,63.636 160.088,62.34 C161.456,61.044 162.14,59.316 162.14,57.156 C162.14,55.212 161.492,53.592 160.196,52.296 C158.972,51 157.424,49.956 155.552,49.164 C153.68,48.3 151.088,47.292 147.776,46.14 C142.952,44.484 138.992,42.9 135.896,41.388 C132.872,39.804 130.244,37.5 128.012,34.476 C125.852,31.38 124.772,27.384 124.772,22.488 C124.772,17.952 125.924,14.028 128.228,10.716 C130.532,7.404 133.7,4.884 137.732,3.156 C141.836,1.356 146.516,0.456 151.772,0.456 C160.268,0.456 167,2.472 171.968,6.504 C177.008,10.536 179.852,16.08 180.5,23.136 L160.52,23.136 C160.16,20.616 159.224,18.636 157.712,17.196 C156.272,15.684 154.292,14.928 151.772,14.928 C149.612,14.928 147.848,15.504 146.48,16.656 C145.184,17.808 144.536,19.5 144.536,21.732 C144.536,23.532 145.112,25.08 146.264,26.376 C147.488,27.6 149,28.608 150.8,29.4 C152.6,30.192 155.192,31.2 158.576,32.424 C163.472,34.08 167.468,35.736 170.564,37.392 C173.66,38.976 176.324,41.316 178.556,44.412 C180.788,47.508 181.904,51.54 181.904,56.508 Z M258.102,1.644 L231.642,52.62 L231.642,78 L213.066,78 L213.066,52.62 L186.606,1.644 L207.774,1.644 L222.462,32.748 L237.15,1.644 L258.102,1.644 Z M333.028,78 L314.56,78 L283.672,31.128 L283.672,78 L265.204,78 L265.204,1.644 L283.672,1.644 L314.56,48.948 L314.56,1.644 L333.028,1.644 L333.028,78 Z M380.666,0.888 C390.386,0.888 398.414,3.444 404.75,8.556 C411.158,13.668 415.298,20.58 417.17,29.292 L397.622,29.292 C396.182,25.764 393.95,22.992 390.926,20.976 C387.974,18.96 384.446,17.952 380.342,17.952 C374.942,17.952 370.586,19.932 367.274,23.892 C363.962,27.852 362.306,33.144 362.306,39.768 C362.306,46.392 363.962,51.684 367.274,55.644 C370.586,59.532 374.942,61.476 380.342,61.476 C384.446,61.476 387.974,60.468 390.926,58.452 C393.95,56.436 396.182,53.7 397.622,50.244 L417.17,50.244 C415.298,58.884 411.158,65.796 404.75,70.98 C398.414,76.092 390.386,78.648 380.666,78.648 C373.25,78.648 366.734,77.028 361.118,73.788 C355.502,70.476 351.146,65.868 348.05,59.964 C345.026,54.06 343.514,47.328 343.514,39.768 C343.514,32.208 345.026,25.476 348.05,19.572 C351.146,13.668 355.502,9.096 361.118,5.856 C366.734,2.544 373.25,0.888 380.666,0.888 Z" id="Shape" fill="url(#radialGradient-1)"></path>
            <path d="M138.06,143.66 C138.06,151.148 136.44,157.808 133.2,163.64 C130.032,169.4 125.424,173.9 119.376,177.14 C113.4,180.38 106.344,182 98.208,182 L69.372,182 L69.372,105.644 L98.208,105.644 C106.416,105.644 113.508,107.228 119.484,110.396 C125.46,113.564 130.032,118.028 133.2,123.788 C136.44,129.548 138.06,136.172 138.06,143.66 Z M96.588,165.476 C103.788,165.476 109.368,163.568 113.328,159.752 C117.36,155.936 119.376,150.572 119.376,143.66 C119.376,136.748 117.36,131.384 113.328,127.568 C109.368,123.752 103.788,121.844 96.588,121.844 L87.84,121.844 L87.84,165.476 L96.588,165.476 Z M167.047,105.644 L167.047,182 L148.579,182 L148.579,105.644 L167.047,105.644 Z M215.546,104.888 C225.122,104.888 233.006,107.228 239.198,111.908 C245.39,116.588 249.242,122.924 250.754,130.916 L231.206,130.916 C229.91,128.18 227.93,126.02 225.266,124.436 C222.602,122.78 219.398,121.952 215.654,121.952 C209.822,121.952 205.142,123.932 201.614,127.892 C198.086,131.78 196.322,137.072 196.322,143.768 C196.322,151.04 198.158,156.62 201.83,160.508 C205.574,164.396 210.866,166.34 217.706,166.34 C222.098,166.34 225.95,165.152 229.262,162.776 C232.574,160.328 234.914,156.872 236.282,152.408 L212.954,152.408 L212.954,139.124 L251.726,139.124 L251.726,157.376 C250.286,161.84 247.982,165.98 244.814,169.796 C241.646,173.612 237.578,176.708 232.61,179.084 C227.714,181.46 222.098,182.648 215.762,182.648 C208.058,182.648 201.326,181.028 195.566,177.788 C189.806,174.476 185.342,169.868 182.174,163.964 C179.078,158.06 177.53,151.328 177.53,143.768 C177.53,136.208 179.078,129.476 182.174,123.572 C185.342,117.668 189.77,113.096 195.458,109.856 C201.218,106.544 207.914,104.888 215.546,104.888 Z M280.531,105.644 L280.531,182 L262.063,182 L262.063,105.644 L280.531,105.644 Z M348.146,105.644 L348.146,120.332 L327.41,120.332 L327.41,182 L308.834,182 L308.834,120.332 L288.314,120.332 L288.314,105.644 L348.146,105.644 Z M403.235,168.068 L374.615,168.068 L369.863,182 L350.423,182 L378.395,106.184 L399.671,106.184 L427.643,182 L407.987,182 L403.235,168.068 Z M398.483,154.028 L388.979,125.948 L379.367,154.028 L398.483,154.028 Z M453.289,167.852 L477.913,167.852 L477.913,182 L434.821,182 L434.821,105.644 L453.289,105.644 L453.289,167.852 Z" id="Shape" fill="#353535"></path>
        </g>
    </g>
</svg>