<?xml version="1.0" encoding="UTF-8"?>
<svg width="137px" height="25px" viewBox="0 0 137 25" version="1.1" xmlns="http://www.w3.org/2000/svg" xmlns:xlink="http://www.w3.org/1999/xlink">
    <title>Group 40</title>
    <g id="Home---new" stroke="none" stroke-width="1" fill="none" fill-rule="evenodd">
        <g id="Home" transform="translate(-362.000000, -4561.000000)" fill="#FFAA00" fill-rule="nonzero">
            <g id="Group-44" transform="translate(0.000000, 3892.000000)">
                <g id="Group-40" transform="translate(362.000000, 669.000000)">
                    <polygon id="s" points="18.5664062 21.9375 16.8916016 14.7597656 22.4423828 9.92675781 15.1210938 9.3046875 12.25 2.55761719 9.37890625 9.3046875 2.05761719 9.92675781 7.60839844 14.7597656 5.93359375 21.9375 12.25 18.109375"></polygon>
                    <polygon id="s" points="46.5664062 21.9375 44.8916016 14.7597656 50.4423828 9.92675781 43.1210938 9.3046875 40.25 2.55761719 37.3789062 9.3046875 30.0576172 9.92675781 35.6083984 14.7597656 33.9335938 21.9375 40.25 18.109375"></polygon>
                    <polygon id="s" points="74.5664062 21.9375 72.8916016 14.7597656 78.4423828 9.92675781 71.1210938 9.3046875 68.25 2.55761719 65.3789062 9.3046875 58.0576172 9.92675781 63.6083984 14.7597656 61.9335938 21.9375 68.25 18.109375"></polygon>
                    <polygon id="s" points="102.566406 21.9375 100.891602 14.7597656 106.442383 9.92675781 99.1210938 9.3046875 96.25 2.55761719 93.3789062 9.3046875 86.0576172 9.92675781 91.6083984 14.7597656 89.9335938 21.9375 96.25 18.109375"></polygon>
                    <polygon id="s" points="130.566406 21.9375 128.891602 14.7597656 134.442383 9.92675781 127.121094 9.3046875 124.25 2.55761719 121.378906 9.3046875 114.057617 9.92675781 119.608398 14.7597656 117.933594 21.9375 124.25 18.109375"></polygon>
                </g>
            </g>
        </g>
    </g>
</svg>