<?xml version="1.0" encoding="UTF-8"?>
<svg width="674px" height="405px" viewBox="0 0 674 405" version="1.1" xmlns="http://www.w3.org/2000/svg" xmlns:xlink="http://www.w3.org/1999/xlink">
    <title>Group 56</title>
    <defs>
        <path d="M29.392,-1.13686838e-13 L562.3072,-1.13686838e-13 C566.124592,-1.1527626e-13 569.2192,3.09460781 569.2192,6.912 L569.2192,32.4864 L569.2192,32.4864 L22.48,32.4864 L22.48,6.912 C22.48,3.09460781 25.5746078,-1.15650129e-13 29.392,-1.13686838e-13 Z" id="path-1"></path>
        <filter x="-0.1%" y="-1.5%" width="100.2%" height="106.2%" filterUnits="objectBoundingBox" id="filter-2">
            <feOffset dx="0" dy="1" in="SourceAlpha" result="shadowOffsetOuter1"></feOffset>
            <feColorMatrix values="0 0 0 0 0.705882353   0 0 0 0 0.733333333   0 0 0 0 0.776470588  0 0 0 1 0" type="matrix" in="shadowOffsetOuter1"></feColorMatrix>
        </filter>
        <path d="M101.622218,0.558656 L106.328,4.815656 L206.122752,4.816448 C207.172535,4.816448 208.023552,5.66746515 208.023552,6.717248 L208.023552,119.7008 C208.023552,120.750583 207.172535,121.6016 206.122752,121.6016 L1.9008,121.6016 C0.851017148,121.6016 -1.00854905e-14,120.750583 0,119.7008 L0,6.717248 C9.34832839e-17,5.66746515 0.851017148,4.816448 1.9008,4.816448 L97.355,4.815656 L101.622218,0.558656 Z" id="path-3"></path>
        <filter x="-11.5%" y="-14.9%" width="123.1%" height="139.7%" filterUnits="objectBoundingBox" id="filter-4">
            <feOffset dx="0" dy="6" in="SourceAlpha" result="shadowOffsetOuter1"></feOffset>
            <feGaussianBlur stdDeviation="7" in="shadowOffsetOuter1" result="shadowBlurOuter1"></feGaussianBlur>
            <feComposite in="shadowBlurOuter1" in2="SourceAlpha" operator="out" result="shadowBlurOuter1"></feComposite>
            <feColorMatrix values="0 0 0 0 0   0 0 0 0 0   0 0 0 0 0  0 0 0 0.173978365 0" type="matrix" in="shadowBlurOuter1"></feColorMatrix>
        </filter>
        <filter x="-14.8%" y="-14.8%" width="129.6%" height="129.6%" filterUnits="objectBoundingBox" id="filter-5">
            <feOffset dx="0" dy="2" in="SourceAlpha" result="shadowOffsetOuter1"></feOffset>
            <feGaussianBlur stdDeviation="1" in="shadowOffsetOuter1" result="shadowBlurOuter1"></feGaussianBlur>
            <feColorMatrix values="0 0 0 0 0   0 0 0 0 0   0 0 0 0 0  0 0 0 0.286741395 0" type="matrix" in="shadowBlurOuter1" result="shadowMatrixOuter1"></feColorMatrix>
            <feMerge>
                <feMergeNode in="shadowMatrixOuter1"></feMergeNode>
                <feMergeNode in="SourceGraphic"></feMergeNode>
            </feMerge>
        </filter>
    </defs>
    <g id="Home---new" stroke="none" stroke-width="1" fill="none" fill-rule="evenodd">
        <g id="Group-56" transform="translate(0.000000, 6.000000)">
            <g id="Group-58" transform="translate(79.000000, 0.000000)">
                <ellipse id="Oval" fill-opacity="0.0669798951" fill="#000000" cx="297.5" cy="356" rx="297.5" ry="7"></ellipse>
                <path d="M563.8272,-2.916 C566.541127,-2.916 568.998127,-1.81596363 570.776645,-0.0374454455 C572.555164,1.74107274 573.6552,4.19807274 573.6552,6.912 L573.6552,6.912 L573.6552,357.156 L21.084,357.156 L21.084,6.912 C21.084,4.19807274 22.1840364,1.74107274 23.9625546,-0.0374454455 C25.7410727,-1.81596363 28.1980727,-2.916 30.912,-2.916 L30.912,-2.916 Z" id="Rectangle" stroke="#E6EEF1" stroke-width="5.832" fill="#FFFFFF"></path>
                <g id="Rectangle">
                    <use fill="black" fill-opacity="1" filter="url(#filter-2)" xlink:href="#path-1"></use>
                    <use fill="#FFFFFF" fill-rule="evenodd" xlink:href="#path-1"></use>
                </g>
                <rect id="Rectangle" fill="#F1F3F4" x="65.3344" y="5.8752" width="439.6032" height="20.736" rx="10.368"></rect>
                <path d="M82.140928,19.008 L82.7519488,16.671744 C82.8118528,16.46208 82.8657664,16.2539136 82.9136896,16.0472448 C82.9616128,15.840576 83.009536,15.6264192 83.0574592,15.4047744 L83.0574592,15.4047744 L83.0934016,15.4047744 C83.1473152,15.6264192 83.196736,15.8390784 83.241664,16.042752 C83.286592,16.2464256 83.3360128,16.4530944 83.3899264,16.6627584 L83.3899264,16.6627584 L84.0189184,19.008 L84.9174784,19.008 L86.0856064,14.6409984 L85.3847296,14.6409984 L84.746752,17.165952 C84.6988288,17.375616 84.6539008,17.5792896 84.611968,17.7769728 C84.5700352,17.974656 84.5251072,18.1753344 84.477184,18.379008 L84.477184,18.379008 L84.4412416,18.379008 C84.3933184,18.1753344 84.3438976,17.974656 84.2929792,17.7769728 C84.2420608,17.5792896 84.1896448,17.375616 84.1357312,17.165952 L84.1357312,17.165952 L83.4528256,14.6409984 L82.7339776,14.6409984 L82.0600576,17.165952 C82.006144,17.3696256 81.9552256,17.5718016 81.9073024,17.77248 C81.8593792,17.9731584 81.811456,18.1753344 81.7635328,18.379008 L81.7635328,18.379008 L81.7275904,18.379008 C81.6856576,18.1753344 81.6437248,17.974656 81.601792,17.7769728 C81.5598592,17.5792896 81.5149312,17.375616 81.467008,17.165952 L81.467008,17.165952 L80.8200448,14.6409984 L80.0652544,14.6409984 L81.2783104,19.008 L82.140928,19.008 Z M88.5925888,19.008 L89.2036096,16.671744 C89.2635136,16.46208 89.3174272,16.2539136 89.3653504,16.0472448 C89.4132736,15.840576 89.4611968,15.6264192 89.50912,15.4047744 L89.50912,15.4047744 L89.5450624,15.4047744 C89.598976,15.6264192 89.6483968,15.8390784 89.6933248,16.042752 C89.7382528,16.2464256 89.7876736,16.4530944 89.8415872,16.6627584 L89.8415872,16.6627584 L90.4705792,19.008 L91.3691392,19.008 L92.5372672,14.6409984 L91.8363904,14.6409984 L91.1984128,17.165952 C91.1504896,17.375616 91.1055616,17.5792896 91.0636288,17.7769728 C91.021696,17.974656 90.976768,18.1753344 90.9288448,18.379008 L90.9288448,18.379008 L90.8929024,18.379008 C90.8449792,18.1753344 90.7955584,17.974656 90.74464,17.7769728 C90.6937216,17.5792896 90.6413056,17.375616 90.587392,17.165952 L90.587392,17.165952 L89.9044864,14.6409984 L89.1856384,14.6409984 L88.5117184,17.165952 C88.4578048,17.3696256 88.4068864,17.5718016 88.3589632,17.77248 C88.31104,17.9731584 88.2631168,18.1753344 88.2151936,18.379008 L88.2151936,18.379008 L88.1792512,18.379008 C88.1373184,18.1753344 88.0953856,17.974656 88.0534528,17.7769728 C88.01152,17.5792896 87.966592,17.375616 87.9186688,17.165952 L87.9186688,17.165952 L87.2717056,14.6409984 L86.5169152,14.6409984 L87.7299712,19.008 L88.5925888,19.008 Z M95.0442496,19.008 L95.6552704,16.671744 C95.7151744,16.46208 95.769088,16.2539136 95.8170112,16.0472448 C95.8649344,15.840576 95.9128576,15.6264192 95.9607808,15.4047744 L95.9607808,15.4047744 L95.9967232,15.4047744 C96.0506368,15.6264192 96.1000576,15.8390784 96.1449856,16.042752 C96.1899136,16.2464256 96.2393344,16.4530944 96.293248,16.6627584 L96.293248,16.6627584 L96.92224,19.008 L97.8208,19.008 L98.988928,14.6409984 L98.2880512,14.6409984 L97.6500736,17.165952 C97.6021504,17.375616 97.5572224,17.5792896 97.5152896,17.7769728 C97.4733568,17.974656 97.4284288,18.1753344 97.3805056,18.379008 L97.3805056,18.379008 L97.3445632,18.379008 C97.29664,18.1753344 97.2472192,17.974656 97.1963008,17.7769728 C97.1453824,17.5792896 97.0929664,17.375616 97.0390528,17.165952 L97.0390528,17.165952 L96.3561472,14.6409984 L95.6372992,14.6409984 L94.9633792,17.165952 C94.9094656,17.3696256 94.8585472,17.5718016 94.810624,17.77248 C94.7627008,17.9731584 94.7147776,18.1753344 94.6668544,18.379008 L94.6668544,18.379008 L94.630912,18.379008 C94.5889792,18.1753344 94.5470464,17.974656 94.5051136,17.7769728 C94.4631808,17.5792896 94.4182528,17.375616 94.3703296,17.165952 L94.3703296,17.165952 L93.7233664,14.6409984 L92.968576,14.6409984 L94.181632,19.008 L95.0442496,19.008 Z M100.327782,19.1158272 C100.471552,19.1158272 100.595853,19.0634112 100.700685,18.9585792 C100.805517,18.8537472 100.857933,18.7204608 100.857933,18.55872 C100.857933,18.3849984 100.805517,18.2457216 100.700685,18.1408896 C100.595853,18.0360576 100.471552,17.9836416 100.327782,17.9836416 C100.178022,17.9836416 100.050726,18.0360576 99.9458944,18.1408896 C99.8410624,18.2457216 99.7886464,18.3849984 99.7886464,18.55872 C99.7886464,18.7204608 99.8410624,18.8537472 99.9458944,18.9585792 C100.050726,19.0634112 100.178022,19.1158272 100.327782,19.1158272 Z M102.250701,20.8859904 C102.472346,20.8859904 102.667034,20.8470528 102.834765,20.7691776 C103.002496,20.6913024 103.152256,20.5849728 103.284045,20.4501888 C103.415834,20.3154048 103.529651,20.1551616 103.625498,19.9694592 C103.721344,19.7837568 103.808205,19.5830784 103.88608,19.367424 L103.88608,19.367424 L105.530445,14.6409984 L104.811597,14.6409984 L104.02985,17.0581248 C103.969946,17.2498176 103.910042,17.4534912 103.850138,17.6691456 C103.790234,17.8848 103.727334,18.0914688 103.66144,18.289152 L103.66144,18.289152 L103.625498,18.289152 C103.559603,18.0854784 103.489216,17.877312 103.414336,17.6646528 C103.339456,17.4519936 103.269069,17.2498176 103.203174,17.0581248 L103.203174,17.0581248 L102.3136,14.6409984 L101.549824,14.6409984 L103.302016,19.0169856 L103.203174,19.3404672 C103.113318,19.6100352 102.989018,19.8331776 102.830272,20.0098944 C102.671526,20.1866112 102.466355,20.2749696 102.214758,20.2749696 C102.160845,20.2749696 102.103936,20.2674816 102.044032,20.2525056 C101.984128,20.2375296 101.930214,20.2240512 101.882291,20.2120704 L101.882291,20.2120704 L101.738522,20.7961344 C101.810406,20.8260864 101.888282,20.8485504 101.972147,20.8635264 C102.056013,20.8785024 102.148864,20.8859904 102.250701,20.8859904 Z M108.07337,19.1158272 C108.342938,19.1158272 108.599027,19.0649088 108.841638,18.963072 C109.08425,18.8612352 109.298406,18.7129728 109.484109,18.5182848 C109.669811,18.3235968 109.818074,18.0839808 109.928896,17.7994368 C110.039718,17.5148928 110.09513,17.1929088 110.09513,16.8334848 C110.09513,16.4680704 110.039718,16.1430912 109.928896,15.8585472 C109.818074,15.5740032 109.669811,15.3328896 109.484109,15.1352064 C109.298406,14.9375232 109.08425,14.7877632 108.841638,14.6859264 C108.599027,14.5840896 108.342938,14.5331712 108.07337,14.5331712 C107.803802,14.5331712 107.547712,14.5840896 107.305101,14.6859264 C107.06249,14.7877632 106.848333,14.9375232 106.66263,15.1352064 C106.476928,15.3328896 106.328666,15.5740032 106.217843,15.8585472 C106.107021,16.1430912 106.05161,16.4680704 106.05161,16.8334848 C106.05161,17.1929088 106.107021,17.5148928 106.217843,17.7994368 C106.328666,18.0839808 106.476928,18.3235968 106.66263,18.5182848 C106.848333,18.7129728 107.06249,18.8612352 107.305101,18.963072 C107.547712,19.0649088 107.803802,19.1158272 108.07337,19.1158272 Z M108.07337,18.5048064 C107.887667,18.5048064 107.716941,18.4643712 107.56119,18.3835008 C107.40544,18.3026304 107.272154,18.1888128 107.161331,18.042048 C107.050509,17.8952832 106.965146,17.720064 106.905242,17.5163904 C106.845338,17.3127168 106.815386,17.0850816 106.815386,16.8334848 C106.815386,16.581888 106.845338,16.3527552 106.905242,16.1460864 C106.965146,15.9394176 107.050509,15.7612032 107.161331,15.6114432 C107.272154,15.4616832 107.40544,15.346368 107.56119,15.2654976 C107.716941,15.1846272 107.887667,15.144192 108.07337,15.144192 C108.259072,15.144192 108.429798,15.1846272 108.585549,15.2654976 C108.741299,15.346368 108.874586,15.4616832 108.985408,15.6114432 C109.09623,15.7612032 109.181594,15.9394176 109.241498,16.1460864 C109.301402,16.3527552 109.331354,16.581888 109.331354,16.8334848 C109.331354,17.0850816 109.301402,17.3127168 109.241498,17.5163904 C109.181594,17.720064 109.09623,17.8952832 108.985408,18.042048 C108.874586,18.1888128 108.741299,18.3026304 108.585549,18.3835008 C108.429798,18.4643712 108.259072,18.5048064 108.07337,18.5048064 Z M112.521242,19.1158272 C112.826752,19.1158272 113.091827,19.0439424 113.316467,18.9001728 C113.541107,18.7564032 113.755264,18.5647104 113.958938,18.3250944 L113.958938,18.3250944 L113.985894,18.3250944 L114.048794,19.008 L114.659814,19.008 L114.659814,14.6409984 L113.922995,14.6409984 L113.922995,17.7410304 C113.713331,17.9986176 113.521638,18.1858176 113.347917,18.3026304 C113.174195,18.4194432 112.973517,18.4778496 112.745882,18.4778496 C112.458342,18.4778496 112.250176,18.386496 112.121382,18.2037888 C111.992589,18.0210816 111.928192,17.7230592 111.928192,17.3097216 L111.928192,17.3097216 L111.928192,14.6409984 L111.182387,14.6409984 L111.182387,17.4085632 C111.182387,17.9716608 111.288717,18.3969792 111.501376,18.6845184 C111.714035,18.9720576 112.05399,19.1158272 112.521242,19.1158272 Z M116.870272,19.008 L116.870272,16.2044928 C117.020032,15.833088 117.195251,15.5725056 117.39593,15.4227456 C117.596608,15.2729856 117.789798,15.1981056 117.975501,15.1981056 C118.065357,15.1981056 118.140237,15.204096 118.200141,15.2160768 C118.260045,15.2280576 118.325939,15.2460288 118.397824,15.2699904 L118.397824,15.2699904 L118.541594,14.6230272 C118.403814,14.5631232 118.248064,14.5331712 118.074342,14.5331712 C117.822746,14.5331712 117.590618,14.6140416 117.377958,14.7757824 C117.165299,14.9375232 116.98409,15.1561728 116.83433,15.4317312 L116.83433,15.4317312 L116.807373,15.4317312 L116.744474,14.6409984 L116.133453,14.6409984 L116.133453,19.008 L116.870272,19.008 Z M120.805965,19.008 L121.416986,16.671744 C121.47689,16.46208 121.530803,16.2539136 121.578726,16.0472448 C121.62665,15.840576 121.674573,15.6264192 121.722496,15.4047744 L121.722496,15.4047744 L121.758438,15.4047744 C121.812352,15.6264192 121.861773,15.8390784 121.906701,16.042752 C121.951629,16.2464256 122.00105,16.4530944 122.054963,16.6627584 L122.054963,16.6627584 L122.683955,19.008 L123.582515,19.008 L124.750643,14.6409984 L124.049766,14.6409984 L123.411789,17.165952 C123.363866,17.375616 123.318938,17.5792896 123.277005,17.7769728 C123.235072,17.974656 123.190144,18.1753344 123.142221,18.379008 L123.142221,18.379008 L123.106278,18.379008 C123.058355,18.1753344 123.008934,17.974656 122.958016,17.7769728 C122.907098,17.5792896 122.854682,17.375616 122.800768,17.165952 L122.800768,17.165952 L122.117862,14.6409984 L121.399014,14.6409984 L120.725094,17.165952 C120.671181,17.3696256 120.620262,17.5718016 120.572339,17.77248 C120.524416,17.9731584 120.476493,18.1753344 120.42857,18.379008 L120.42857,18.379008 L120.392627,18.379008 C120.350694,18.1753344 120.308762,17.974656 120.266829,17.7769728 C120.224896,17.5792896 120.179968,17.375616 120.132045,17.165952 L120.132045,17.165952 L119.485082,14.6409984 L118.730291,14.6409984 L119.943347,19.008 L120.805965,19.008 Z M127.47328,19.1158272 C127.7728,19.1158272 128.039373,19.0708992 128.272998,18.9810432 C128.506624,18.8911872 128.719283,18.7863552 128.910976,18.6665472 L128.910976,18.6665472 L128.650394,18.1813248 C128.488653,18.2831616 128.319424,18.3655296 128.142707,18.4284288 C127.96599,18.491328 127.7728,18.5227776 127.563136,18.5227776 C127.143808,18.5227776 126.803853,18.3849984 126.54327,18.10944 C126.282688,17.8338816 126.137421,17.4594816 126.107469,16.98624 L126.107469,16.98624 L129.054746,16.98624 C129.072717,16.8784128 129.081702,16.7436288 129.081702,16.581888 C129.081702,16.2703872 129.042765,15.9888384 128.96489,15.7372416 C128.887014,15.4856448 128.774694,15.2699904 128.62793,15.0902784 C128.481165,14.9105664 128.298458,14.7727872 128.079808,14.6769408 C127.861158,14.5810944 127.614054,14.5331712 127.338496,14.5331712 C127.086899,14.5331712 126.844288,14.5855872 126.610662,14.6904192 C126.377037,14.7952512 126.16887,14.9465088 125.986163,15.144192 C125.803456,15.3418752 125.656691,15.5829888 125.545869,15.8675328 C125.435046,16.1520768 125.379635,16.4740608 125.379635,16.8334848 C125.379635,17.1929088 125.433549,17.5133952 125.541376,17.794944 C125.649203,18.0764928 125.797466,18.3146112 125.986163,18.5092992 C126.174861,18.7039872 126.396506,18.8537472 126.651098,18.9585792 C126.90569,19.0634112 127.17975,19.1158272 127.47328,19.1158272 Z M128.434739,16.5010176 L126.098483,16.5010176 C126.122445,16.2793728 126.171866,16.0831872 126.246746,15.9124608 C126.321626,15.7417344 126.415974,15.5979648 126.529792,15.481152 C126.64361,15.3643392 126.770906,15.2744832 126.91168,15.211584 C127.052454,15.1486848 127.200717,15.1172352 127.356467,15.1172352 C127.69792,15.1172352 127.962995,15.2355456 128.151693,15.4721664 C128.34039,15.7087872 128.434739,16.0517376 128.434739,16.5010176 L128.434739,16.5010176 Z M132.091878,19.1158272 C132.343475,19.1158272 132.583091,19.0634112 132.810726,18.9585792 C133.038362,18.8537472 133.23904,18.6994944 133.412762,18.4958208 C133.586483,18.2921472 133.724262,18.0435456 133.826099,17.750016 C133.927936,17.4564864 133.978854,17.1240192 133.978854,16.7526144 C133.978854,16.417152 133.941414,16.1131392 133.866534,15.840576 C133.791654,15.5680128 133.680832,15.3343872 133.534067,15.1396992 C133.387302,14.9450112 133.206093,14.7952512 132.990438,14.6904192 C132.774784,14.5855872 132.526182,14.5331712 132.244634,14.5331712 C131.999027,14.5331712 131.759411,14.5915776 131.525786,14.7083904 C131.29216,14.8252032 131.076506,14.9704704 130.878822,15.144192 L130.878822,15.144192 L130.896794,14.3534592 L130.896794,12.6102528 L130.159974,12.6102528 L130.159974,19.008 L130.753024,19.008 L130.815923,18.5766912 L130.84288,18.5766912 C131.034573,18.7504128 131.239744,18.8836992 131.458394,18.9765504 C131.677043,19.0694016 131.888205,19.1158272 132.091878,19.1158272 Z M131.96608,18.4958208 C131.82231,18.4958208 131.656077,18.461376 131.467379,18.3924864 C131.278682,18.3235968 131.088486,18.2052864 130.896794,18.0375552 L130.896794,18.0375552 L130.896794,15.7462272 C131.322112,15.3508608 131.711488,15.1531776 132.064922,15.1531776 C132.268595,15.1531776 132.443814,15.1921152 132.590579,15.2699904 C132.737344,15.3478656 132.857152,15.4571904 132.950003,15.5979648 C133.042854,15.7387392 133.110246,15.907968 133.152179,16.1056512 C133.194112,16.3033344 133.215078,16.521984 133.215078,16.7616 C133.215078,17.031168 133.183629,17.2737792 133.12073,17.4894336 C133.05783,17.705088 132.97097,17.8862976 132.860147,18.0330624 C132.749325,18.1798272 132.617536,18.2936448 132.464781,18.3745152 C132.312026,18.4553856 132.145792,18.4958208 131.96608,18.4958208 Z M136.288154,19.1158272 C136.545741,19.1158272 136.774874,19.0813824 136.975552,19.0124928 C137.17623,18.9436032 137.343962,18.8492544 137.478746,18.7294464 C137.61353,18.6096384 137.715366,18.4718592 137.784256,18.3161088 C137.853146,18.1603584 137.88759,17.9926272 137.88759,17.8129152 C137.88759,17.6092416 137.847155,17.43552 137.766285,17.2917504 C137.685414,17.1479808 137.58208,17.0266752 137.456282,16.9278336 C137.330483,16.828992 137.188211,16.746624 137.029466,16.6807296 C136.87072,16.6148352 136.713472,16.551936 136.557722,16.492032 C136.431923,16.4441088 136.310618,16.3976832 136.193805,16.3527552 C136.076992,16.3078272 135.973658,16.2569088 135.883802,16.2 C135.793946,16.1430912 135.722061,16.0771968 135.668147,16.0023168 C135.614234,15.9274368 135.587277,15.8390784 135.587277,15.7372416 C135.587277,15.5695104 135.651674,15.4227456 135.780467,15.2969472 C135.909261,15.1711488 136.111437,15.1082496 136.386995,15.1082496 C136.578688,15.1082496 136.755405,15.144192 136.917146,15.2160768 C137.078886,15.2879616 137.234637,15.3808128 137.384397,15.4946304 L137.384397,15.4946304 L137.734835,15.0273792 C137.567104,14.8896 137.367923,14.7727872 137.137293,14.6769408 C136.906662,14.5810944 136.653568,14.5331712 136.37801,14.5331712 C136.144384,14.5331712 135.93472,14.5646208 135.749018,14.62752 C135.563315,14.6904192 135.406067,14.77728 135.277274,14.8881024 C135.14848,14.9989248 135.049638,15.1307136 134.980749,15.2834688 C134.911859,15.436224 134.877414,15.5994624 134.877414,15.773184 C134.877414,15.9588864 134.916352,16.117632 134.994227,16.2494208 C135.072102,16.3812096 135.172442,16.4965248 135.295245,16.5953664 C135.418048,16.694208 135.557325,16.7780736 135.713075,16.8469632 C135.868826,16.9158528 136.024576,16.9772544 136.180326,17.031168 L136.180326,17.031168 L136.53975,17.1749376 C136.659558,17.2228608 136.765888,17.278272 136.858739,17.3411712 C136.95159,17.4040704 137.027968,17.4774528 137.087872,17.5613184 C137.147776,17.645184 137.177728,17.7440256 137.177728,17.8578432 C137.177728,18.049536 137.105843,18.2112768 136.962074,18.3430656 C136.818304,18.4748544 136.60265,18.5407488 136.31511,18.5407488 C136.051533,18.5407488 135.819405,18.4928256 135.618726,18.3969792 C135.418048,18.3011328 135.221862,18.1753344 135.03017,18.019584 L135.03017,18.019584 L134.66176,18.513792 C134.871424,18.6875136 135.11703,18.8312832 135.398579,18.9451008 C135.680128,19.0589184 135.976653,19.1158272 136.288154,19.1158272 Z M139.289344,13.7424384 C139.433114,13.7424384 139.554419,13.6975104 139.653261,13.6076544 C139.752102,13.5177984 139.801523,13.4039808 139.801523,13.2662016 C139.801523,13.122432 139.752102,13.0071168 139.653261,12.920256 C139.554419,12.8333952 139.433114,12.7899648 139.289344,12.7899648 C139.145574,12.7899648 139.024269,12.8333952 138.925427,12.920256 C138.826586,13.0071168 138.777165,13.122432 138.777165,13.2662016 C138.777165,13.4039808 138.826586,13.5177984 138.925427,13.6076544 C139.024269,13.6975104 139.145574,13.7424384 139.289344,13.7424384 Z M139.648768,19.008 L139.648768,14.6409984 L138.911949,14.6409984 L138.911949,19.008 L139.648768,19.008 Z M142.497203,19.1158272 C142.634982,19.1158272 142.774259,19.0993536 142.915034,19.0664064 C143.055808,19.0334592 143.186099,18.9960192 143.305907,18.9540864 L143.305907,18.9540864 L143.162138,18.3969792 C143.090253,18.4269312 143.009382,18.453888 142.919526,18.4778496 C142.82967,18.5018112 142.745805,18.513792 142.66793,18.513792 C142.416333,18.513792 142.241114,18.4404096 142.142272,18.2936448 C142.04343,18.14688 141.99401,17.9387136 141.99401,17.6691456 L141.99401,17.6691456 L141.99401,15.2430336 L143.171123,15.2430336 L143.171123,14.6409984 L141.99401,14.6409984 L141.99401,13.4189568 L141.374003,13.4189568 L141.284147,14.6409984 L140.601242,14.6859264 L140.601242,15.2430336 L141.248205,15.2430336 L141.248205,17.66016 C141.248205,17.8758144 141.269171,18.0734976 141.311104,18.2532096 C141.353037,18.4329216 141.423424,18.5856768 141.522266,18.7114752 C141.621107,18.8372736 141.749901,18.9361152 141.908646,19.008 C142.067392,19.0798848 142.263578,19.1158272 142.497203,19.1158272 Z M145.929702,19.1158272 C146.229222,19.1158272 146.495795,19.0708992 146.729421,18.9810432 C146.963046,18.8911872 147.175706,18.7863552 147.367398,18.6665472 L147.367398,18.6665472 L147.106816,18.1813248 C146.945075,18.2831616 146.775846,18.3655296 146.59913,18.4284288 C146.422413,18.491328 146.229222,18.5227776 146.019558,18.5227776 C145.60023,18.5227776 145.260275,18.3849984 144.999693,18.10944 C144.73911,17.8338816 144.593843,17.4594816 144.563891,16.98624 L144.563891,16.98624 L147.511168,16.98624 C147.529139,16.8784128 147.538125,16.7436288 147.538125,16.581888 C147.538125,16.2703872 147.499187,15.9888384 147.421312,15.7372416 C147.343437,15.4856448 147.231117,15.2699904 147.084352,15.0902784 C146.937587,14.9105664 146.75488,14.7727872 146.53623,14.6769408 C146.317581,14.5810944 146.070477,14.5331712 145.794918,14.5331712 C145.543322,14.5331712 145.30071,14.5855872 145.067085,14.6904192 C144.833459,14.7952512 144.625293,14.9465088 144.442586,15.144192 C144.259878,15.3418752 144.113114,15.5829888 144.002291,15.8675328 C143.891469,16.1520768 143.836058,16.4740608 143.836058,16.8334848 C143.836058,17.1929088 143.889971,17.5133952 143.997798,17.794944 C144.105626,18.0764928 144.253888,18.3146112 144.442586,18.5092992 C144.631283,18.7039872 144.852928,18.8537472 145.10752,18.9585792 C145.362112,19.0634112 145.636173,19.1158272 145.929702,19.1158272 Z M146.891162,16.5010176 L144.554906,16.5010176 C144.578867,16.2793728 144.628288,16.0831872 144.703168,15.9124608 C144.778048,15.7417344 144.872397,15.5979648 144.986214,15.481152 C145.100032,15.3643392 145.227328,15.2744832 145.368102,15.211584 C145.508877,15.1486848 145.657139,15.1172352 145.81289,15.1172352 C146.154342,15.1172352 146.419418,15.2355456 146.608115,15.4721664 C146.796813,15.7087872 146.891162,16.0517376 146.891162,16.5010176 L146.891162,16.5010176 Z M149.002778,19.1158272 C149.146547,19.1158272 149.270848,19.0634112 149.37568,18.9585792 C149.480512,18.8537472 149.532928,18.7204608 149.532928,18.55872 C149.532928,18.3849984 149.480512,18.2457216 149.37568,18.1408896 C149.270848,18.0360576 149.146547,17.9836416 149.002778,17.9836416 C148.853018,17.9836416 148.725722,18.0360576 148.62089,18.1408896 C148.516058,18.2457216 148.463642,18.3849984 148.463642,18.55872 C148.463642,18.7204608 148.516058,18.8537472 148.62089,18.9585792 C148.725722,19.0634112 148.853018,19.1158272 149.002778,19.1158272 Z M152.579046,19.1158272 C152.842624,19.1158272 153.095718,19.0649088 153.33833,18.963072 C153.580941,18.8612352 153.801088,18.723456 153.998771,18.5497344 L153.998771,18.5497344 L153.666304,18.064512 C153.534515,18.18432 153.383258,18.2876544 153.212531,18.3745152 C153.041805,18.461376 152.85161,18.5048064 152.641946,18.5048064 C152.444262,18.5048064 152.261555,18.4643712 152.093824,18.3835008 C151.926093,18.3026304 151.783821,18.1888128 151.667008,18.042048 C151.550195,17.8952832 151.458842,17.720064 151.392947,17.5163904 C151.327053,17.3127168 151.294106,17.0850816 151.294106,16.8334848 C151.294106,16.581888 151.32855,16.3527552 151.39744,16.1460864 C151.46633,15.9394176 151.560678,15.7612032 151.680486,15.6114432 C151.800294,15.4616832 151.944064,15.346368 152.111795,15.2654976 C152.279526,15.1846272 152.462234,15.144192 152.659917,15.144192 C152.833638,15.144192 152.990886,15.1801344 153.131661,15.2520192 C153.272435,15.323904 153.408717,15.4167552 153.540506,15.5305728 L153.540506,15.5305728 L153.908915,15.054336 C153.759155,14.9165568 153.580941,14.7952512 153.374272,14.6904192 C153.167603,14.5855872 152.920499,14.5331712 152.63296,14.5331712 C152.351411,14.5331712 152.083341,14.5840896 151.828749,14.6859264 C151.574157,14.7877632 151.351014,14.9375232 151.159322,15.1352064 C150.967629,15.3328896 150.814874,15.5740032 150.701056,15.8585472 C150.587238,16.1430912 150.53033,16.4680704 150.53033,16.8334848 C150.53033,17.1929088 150.582746,17.5148928 150.687578,17.7994368 C150.79241,18.0839808 150.936179,18.3235968 151.118886,18.5182848 C151.301594,18.7129728 151.518746,18.8612352 151.770342,18.963072 C152.021939,19.0649088 152.291507,19.1158272 152.579046,19.1158272 Z M156.649523,19.1158272 C156.919091,19.1158272 157.175181,19.0649088 157.417792,18.963072 C157.660403,18.8612352 157.87456,18.7129728 158.060262,18.5182848 C158.245965,18.3235968 158.394227,18.0839808 158.50505,17.7994368 C158.615872,17.5148928 158.671283,17.1929088 158.671283,16.8334848 C158.671283,16.4680704 158.615872,16.1430912 158.50505,15.8585472 C158.394227,15.5740032 158.245965,15.3328896 158.060262,15.1352064 C157.87456,14.9375232 157.660403,14.7877632 157.417792,14.6859264 C157.175181,14.5840896 156.919091,14.5331712 156.649523,14.5331712 C156.379955,14.5331712 156.123866,14.5840896 155.881254,14.6859264 C155.638643,14.7877632 155.424486,14.9375232 155.238784,15.1352064 C155.053082,15.3328896 154.904819,15.5740032 154.793997,15.8585472 C154.683174,16.1430912 154.627763,16.4680704 154.627763,16.8334848 C154.627763,17.1929088 154.683174,17.5148928 154.793997,17.7994368 C154.904819,18.0839808 155.053082,18.3235968 155.238784,18.5182848 C155.424486,18.7129728 155.638643,18.8612352 155.881254,18.963072 C156.123866,19.0649088 156.379955,19.1158272 156.649523,19.1158272 Z M156.649523,18.5048064 C156.463821,18.5048064 156.293094,18.4643712 156.137344,18.3835008 C155.981594,18.3026304 155.848307,18.1888128 155.737485,18.042048 C155.626662,17.8952832 155.541299,17.720064 155.481395,17.5163904 C155.421491,17.3127168 155.391539,17.0850816 155.391539,16.8334848 C155.391539,16.581888 155.421491,16.3527552 155.481395,16.1460864 C155.541299,15.9394176 155.626662,15.7612032 155.737485,15.6114432 C155.848307,15.4616832 155.981594,15.346368 156.137344,15.2654976 C156.293094,15.1846272 156.463821,15.144192 156.649523,15.144192 C156.835226,15.144192 157.005952,15.1846272 157.161702,15.2654976 C157.317453,15.346368 157.450739,15.4616832 157.561562,15.6114432 C157.672384,15.7612032 157.757747,15.9394176 157.817651,16.1460864 C157.877555,16.3527552 157.907507,16.581888 157.907507,16.8334848 C157.907507,17.0850816 157.877555,17.3127168 157.817651,17.5163904 C157.757747,17.720064 157.672384,17.8952832 157.561562,18.042048 C157.450739,18.1888128 157.317453,18.3026304 157.161702,18.3835008 C157.005952,18.4643712 156.835226,18.5048064 156.649523,18.5048064 Z M160.558259,19.008 L160.558259,15.8450688 C160.959616,15.3957888 161.32503,15.1711488 161.654502,15.1711488 C161.936051,15.1711488 162.14272,15.2625024 162.274509,15.4452096 C162.406298,15.6279168 162.472192,15.9259392 162.472192,16.3392768 L162.472192,16.3392768 L162.472192,19.008 L163.209011,19.008 L163.209011,15.8450688 C163.610368,15.3957888 163.975782,15.1711488 164.305254,15.1711488 C164.580813,15.1711488 164.784486,15.2625024 164.916275,15.4452096 C165.048064,15.6279168 165.113958,15.9259392 165.113958,16.3392768 L165.113958,16.3392768 L165.113958,19.008 L165.850778,19.008 L165.850778,16.2404352 C165.850778,15.6773376 165.741453,15.2520192 165.522803,14.96448 C165.304154,14.6769408 164.970189,14.5331712 164.520909,14.5331712 C164.251341,14.5331712 164.001242,14.6095488 163.770611,14.762304 C163.539981,14.9150592 163.310848,15.1172352 163.083213,15.368832 C162.993357,15.1052544 162.85408,14.9000832 162.665382,14.7533184 C162.476685,14.6065536 162.214605,14.5331712 161.879142,14.5331712 C161.615565,14.5331712 161.371456,14.6035584 161.146816,14.7443328 C160.922176,14.8851072 160.71401,15.0603264 160.522317,15.2699904 L160.522317,15.2699904 L160.49536,15.2699904 L160.432461,14.6409984 L159.82144,14.6409984 L159.82144,19.008 L160.558259,19.008 Z" id="www.yourwebsite.com" fill="#1F2024" fill-rule="nonzero"></path>
                <rect id="Rectangle" fill="#AEB3B9" x="542.2624" y="12.4416" width="9.6768" height="2.304" rx="1.10592"></rect>
                <circle id="Oval" stroke="#0042FF" stroke-width="1.19808" fill-opacity="0" fill="#FFFFFF" cx="524.072" cy="17.072" r="7.072"></circle>
                <path d="M524.200837,21.1973333 C522.808013,21.1973333 521.503208,20.5654148 520.320575,19.3188085 L519.946667,18.924749 L520.688145,18.1283893 L521.062405,18.5228233 C522.04717,19.5611625 523.103055,20.0941916 524.225483,20.0765863 C526.155932,20.0634759 527.651564,18.4692582 527.666703,18.4527767 L528.034978,18.0542222 L528.786667,18.8359733 L528.4198,19.236026 C528.347272,19.3154372 526.615395,21.1756076 524.242735,21.1973333 C524.229004,21.1973333 524.214921,21.1973333 524.200837,21.1973333" id="Fill-1" fill="#0042FF"></path>
                <polygon id="Fill-4" fill="#0042FF" points="523.998333 18.0542222 523.998333 14.4223554 523.998333 12.9466667 522.893333 12.9466667 522.893333 14.4223554 522.893333 18.0542222"></polygon>
                <polygon id="Fill-6" fill="#0042FF" points="525.84 18.0542222 525.84 14.4223554 525.84 12.9466667 524.735 12.9466667 524.735 14.4223554 524.735 18.0542222"></polygon>
                <rect id="Rectangle" fill="#AEB3B9" x="542.2624" y="16.128" width="9.6768" height="2.304" rx="1.10592"></rect>
                <rect id="Rectangle" fill="#AEB3B9" x="542.2624" y="19.8144" width="9.6768" height="2.304" rx="1.10592"></rect>
                <circle id="Oval" fill="#F1F3F4" cx="53.2384" cy="17.6256" r="3.1104"></circle>
                <circle id="Oval" fill="#F1F3F4" cx="44.2528" cy="17.6256" r="3.1104"></circle>
                <circle id="Oval" fill="#F1F3F4" cx="35.2672" cy="17.6256" r="3.1104"></circle>
                <rect id="Rectangle" fill="#E6EEF1" x="36.9952" y="43.5456" width="70.5024" height="23.5008"></rect>
                <rect id="Rectangle" fill="#E6EEF1" x="40.4512" y="213.5808" width="158.2848" height="119.88"></rect>
                <rect id="Rectangle" fill="#E6EEF1" x="216.7072" y="213.5808" width="158.2848" height="119.88"></rect>
                <rect id="Rectangle" fill="#E6EEF1" x="392.9632" y="213.5808" width="158.2848" height="119.88"></rect>
                <rect id="Rectangle" fill="#E6EEF1" x="269.9296" y="110.592" width="70.5024" height="10.368"></rect>
                <rect id="Rectangle" fill="#E6EEF1" x="231.9136" y="136.8576" width="146.5344" height="10.368"></rect>
                <rect id="Rectangle" fill="#E6EEF1" x="400.5664" y="51.84" width="70.5024" height="6.912"></rect>
                <rect id="Rectangle" fill="#E6EEF1" x="480.0544" y="51.84" width="70.5024" height="6.912"></rect>
            </g>
            <g id="Group-57" transform="translate(0.000000, 16.000000)">
                <ellipse id="Oval" fill-opacity="0.0669798951" fill="#000000" cx="159.5" cy="374.66" rx="159.5" ry="7.7"></ellipse>
                <g id="Group-32" transform="translate(2.640000, 0.000000)">
                    <path d="M50.529547,148.896 C57.8418911,166.28997 62.9993002,174.986954 66.0017743,174.986954 C70.5054853,174.986954 99.0895111,164.257305 99.0895111,155.443036 C106.273158,159.771195 110.758778,162.35736 112.546372,163.201531 C90.7181783,179.925733 77.8466692,187.900035 73.9318451,187.124438 C68.0596089,185.961041 45.3805921,185.754803 43.623496,179.534409 C42.4520985,175.38748 39.8202665,167.865931 35.728,156.969764 L50.529547,148.896 Z" id="Path-35" fill="#D4A181"></path>
                    <polygon id="Path-32" fill="#27418B" points="68.6107614 225.521689 89.0167678 360.953689 75.1911904 360.038108 65.0751786 320.665123 29.788 225.521689"></polygon>
                    <polyline id="Path-31" fill="#27418B" points="67.4255853 225.521689 44.3399543 292.055214 13.2388796 360.953689 0.088 360.953689 23.2489395 292.055214 26.6451459 225.521689 71.368 225.521689"></polyline>
                    <g id="Group-31" transform="translate(32.748566, 100.892000)">
                        <path d="M18.9428388,34.9960033 C25.8320388,34.9960033 25.608,27.7497142 25.608,17.908 C25.608,8.06628576 20.0232,0.088 13.134,0.088 C6.24480003,0.088 0.66,8.06628576 0.66,17.908 C0.66,27.7497142 12.0536388,34.9960033 18.9428388,34.9960033 Z" id="Oval" fill="#DC9F7C"></path>
                        <path d="M24.6807136,27.1868849 C21.9737963,28.7058202 19.9737963,28.3461919 18.6807136,26.108" id="Path-20" stroke="#343333"></path>
                        <path d="M2.45867548,23.6703687 C2.71600267,34.0096887 2.1389465,40.1916955 0.727506971,42.2163891 C-0.683932562,44.2410826 4.38724033,44.5391787 15.9410256,43.1106771 L9.76152592,26.8490161 L2.45867548,23.6703687 Z" id="Path-27" fill="#DC9F7C"></path>
                    </g>
                    <path d="M31.9126379,143.381743 C42.7173499,139.339929 48.9529575,139.339929 50.6194607,143.381743 C53.1192154,149.444464 56.7657598,155.782766 62.0786446,164.591727 C65.6205678,170.464367 69.6400817,200.010841 74.1371862,253.231147 L22.5770681,253.231147 L31.9126379,143.381743 Z" id="Path-30" fill="#000000"></path>
                    <g id="Group-16" transform="translate(195.966384, 99.836239) rotate(-10.000000) translate(-195.966384, -99.836239) translate(91.466384, 17.836239)">
                        <g id="Group-20" transform="translate(0.000000, 0.000000)">
                            <g id="Group-10" transform="translate(0.000000, 0.000000)">
                                <g id="Group-11" transform="translate(0.000000, 41.620096)">
                                    <g id="Combined-Shape">
                                        <use fill="black" fill-opacity="1" filter="url(#filter-4)" xlink:href="#path-3"></use>
                                        <path stroke="#D0D0D0" stroke-width="0.66" d="M101.63333,1.01370222 L106.200882,5.14565499 L206.122752,5.146448 C206.556516,5.146448 206.949216,5.32226578 207.233475,5.60652467 C207.517734,5.89078356 207.693552,6.28348356 207.693552,6.717248 L207.693552,6.717248 L207.693552,119.7008 C207.693552,120.134564 207.517734,120.527264 207.233475,120.811523 C206.949216,121.095782 206.556516,121.2716 206.122752,121.2716 L206.122752,121.2716 L1.9008,121.2716 C1.46703556,121.2716 1.07433556,121.095782 0.790076668,120.811523 C0.505817779,120.527264 0.33,120.134564 0.33,119.7008 L0.33,119.7008 L0.33,6.717248 C0.33,6.28348356 0.505817779,5.89078356 0.790076668,5.60652467 C1.07433556,5.32226578 1.46703556,5.146448 1.90080274,5.146448 L1.90080274,5.146448 L97.49146,5.14565487 L101.63333,1.01370222 Z" stroke-linejoin="square" fill="#FFFFFF" fill-rule="evenodd"></path>
                                    </g>
                                    <path d="M138.43764,103.476416 L138.43764,102.352568 L133.132032,102.352568 C132.591888,102.352568 132.130152,102.16526 131.746824,101.790644 C131.363496,101.416028 131.171832,100.958648 131.171832,100.418504 C131.171832,99.87836 131.363496,99.416624 131.746824,99.033296 C132.130152,98.649968 132.591888,98.458304 133.132032,98.458304 L138.986496,98.458304 C139.282704,98.458304 139.544064,98.57156 139.770576,98.798072 C139.997088,99.024584 140.110344,99.285944 140.110344,99.582152 C140.110344,99.87836 139.997088,100.135364 139.770576,100.353164 C139.544064,100.570964 139.282704,100.679864 138.986496,100.679864 L134.203608,100.679864 C134.046792,100.679864 133.968384,100.588388 133.968384,100.405436 C133.968384,100.222484 134.046792,100.131008 134.203608,100.131008 L138.43764,100.131008 L138.43764,99.00716 L134.25588,99.00716 C133.872552,99.00716 133.541496,99.146552 133.262712,99.425336 C132.983928,99.70412 132.844536,100.035176 132.844536,100.418504 C132.844536,100.801832 132.983928,101.128532 133.262712,101.398604 C133.541496,101.668676 133.872552,101.803712 134.25588,101.803712 L138.986496,101.803712 C139.596336,101.803712 140.119056,101.585912 140.554656,101.150312 C140.990256,100.714712 141.208056,100.191992 141.208056,99.582152 C141.208056,98.972312 140.990256,98.445236 140.554656,98.000924 C140.119056,97.556612 139.596336,97.334456 138.986496,97.334456 L133.132032,97.334456 C132.278256,97.334456 131.55516,97.63502 130.962744,98.236148 C130.370328,98.837276 130.07412,99.564728 130.07412,100.418504 C130.07412,101.27228 130.370328,101.995376 130.962744,102.587792 C131.55516,103.180208 132.278256,103.476416 133.132032,103.476416 L138.43764,103.476416 Z" id="a" fill="#7F8FA4" fill-rule="nonzero"></path>
                                    <g id="Group-42" transform="translate(78.717760, 6.527904) scale(1, -1) rotate(90.000000) translate(-78.717760, -6.527904) translate(72.217760, -4.472096)">
                                        <g id="Group-7" transform="translate(6.386688, 10.644480) scale(-1, 1) translate(-6.386688, -10.644480) "></g>
                                    </g>
                                    <g id="Dynamic-group" transform="translate(150.239232, 89.972288)">
                                        <rect id="BG" fill="#0042FF" x="0" y="0" width="45.010944" height="20.072448" rx="2.433024"></rect>
                                        <path d="M9.73087949,13.174304 L10.0228424,12.0429478 L11.4753577,12.0429478 L11.7673206,13.174304 L12.9059758,13.174304 L11.4169651,8.41530906 L10.1250294,8.41530906 L8.63601869,13.174304 L9.73087949,13.174304 Z M11.2563855,11.2035546 L10.2418145,11.2035546 L10.3585997,10.7656102 C10.4267244,10.5271739 10.4911995,10.2753559 10.5520251,10.0101563 C10.6128507,9.74495667 10.6724598,9.48583962 10.7308524,9.23280512 L10.7600486,9.23280512 C10.8233073,9.48097357 10.8865659,9.73887411 10.9498245,10.0065068 C11.0130831,10.2741394 11.0787748,10.5271739 11.1468995,10.7656102 L11.2563855,11.2035546 Z M14.6285568,13.2618929 C14.8037345,13.2618929 14.9764792,13.2193149 15.1467909,13.1341591 C15.3171026,13.0490033 15.4655171,12.9431667 15.5920343,12.8166495 L15.6212306,12.8166495 L15.6942213,13.174304 L16.57011,13.174304 L16.57011,8.05765453 L15.4971464,8.05765453 L15.4971464,9.2911977 L15.5409408,9.84592717 C15.4144236,9.72914202 15.2854733,9.6366871 15.15409,9.56856243 C15.0227067,9.50043776 14.854828,9.46637542 14.650454,9.46637542 C14.4606781,9.46637542 14.2745518,9.51016986 14.092075,9.59775872 C13.9095982,9.68534758 13.7490186,9.81064832 13.6103363,9.97366093 C13.4716539,10.1366735 13.3597348,10.334965 13.2745789,10.5685353 C13.1894231,10.8021056 13.1468452,11.0673052 13.1468452,11.3641341 C13.1468452,11.6609631 13.182124,11.9261627 13.2526817,12.159733 C13.3232394,12.3933033 13.4229934,12.5915948 13.5519437,12.7546074 C13.680894,12.91762 13.8366075,13.0429207 14.0190843,13.1305096 C14.2015611,13.2180984 14.4047186,13.2618929 14.6285568,13.2618929 Z M14.9059215,12.3860042 C14.6966815,12.3860042 14.5348854,12.3032814 14.4205332,12.1378358 C14.3061811,11.9723901 14.2490051,11.7096236 14.2490051,11.349536 C14.2490051,11.0040466 14.3146967,10.7497956 14.44608,10.586783 C14.5774633,10.4237704 14.7283108,10.3422641 14.8986225,10.3422641 C14.9959434,10.3422641 15.0956974,10.3592952 15.1978844,10.3933576 C15.3000714,10.4274199 15.3998254,10.4882455 15.4971464,10.5758344 L15.4971464,12.057546 C15.4095575,12.1791972 15.3183191,12.264353 15.2234312,12.3130135 C15.1285432,12.361674 15.0227067,12.3860042 14.9059215,12.3860042 Z M18.8109251,13.2618929 C18.9861028,13.2618929 19.1588475,13.2193149 19.3291592,13.1341591 C19.4994708,13.0490033 19.6478853,12.9431667 19.7744026,12.8166495 L19.8035988,12.8166495 L19.8765896,13.174304 L20.7524782,13.174304 L20.7524782,8.05765453 L19.6795146,8.05765453 L19.6795146,9.2911977 L19.7233091,9.84592717 C19.5967918,9.72914202 19.4678415,9.6366871 19.3364582,9.56856243 C19.2050749,9.50043776 19.0371963,9.46637542 18.8328223,9.46637542 C18.6430464,9.46637542 18.4569201,9.51016986 18.2744433,9.59775872 C18.0919665,9.68534758 17.9313869,9.81064832 17.7927045,9.97366093 C17.6540221,10.1366735 17.542103,10.334965 17.4569472,10.5685353 C17.3717914,10.8021056 17.3292134,11.0673052 17.3292134,11.3641341 C17.3292134,11.6609631 17.3644923,11.9261627 17.43505,12.159733 C17.5056077,12.3933033 17.6053617,12.5915948 17.7343119,12.7546074 C17.8632622,12.91762 18.0189757,13.0429207 18.2014525,13.1305096 C18.3839293,13.2180984 18.5870868,13.2618929 18.8109251,13.2618929 Z M19.0882898,12.3860042 C18.8790497,12.3860042 18.7172536,12.3032814 18.6029015,12.1378358 C18.4885494,11.9723901 18.4313733,11.7096236 18.4313733,11.349536 C18.4313733,11.0040466 18.497065,10.7497956 18.6284483,10.586783 C18.7598316,10.4237704 18.910679,10.3422641 19.0809907,10.3422641 C19.1783117,10.3422641 19.2780657,10.3592952 19.3802527,10.3933576 C19.4824397,10.4274199 19.5821937,10.4882455 19.6795146,10.5758344 L19.6795146,12.057546 C19.5919258,12.1791972 19.5006874,12.264353 19.4057994,12.3130135 C19.3109115,12.361674 19.2050749,12.3860042 19.0882898,12.3860042 Z M24.2925281,13.174304 L24.2925281,10.7291149 C24.4093133,10.6171958 24.5163663,10.5308234 24.6136873,10.4699978 C24.7110083,10.4091722 24.8277934,10.3787594 24.9640428,10.3787594 C25.1197563,10.3787594 25.2328919,10.4274199 25.3034496,10.5247409 C25.3740073,10.6220618 25.4092861,10.8021056 25.4092861,11.0648722 L25.4092861,13.174304 L26.4822497,13.174304 L26.4822497,10.9261898 C26.4822497,10.4687813 26.3934444,10.1111268 26.2158336,9.85322624 C26.0382228,9.5953257 25.7523425,9.46637542 25.3581926,9.46637542 C25.1100242,9.46637542 24.8934851,9.52111846 24.7085752,9.63060454 C24.5236654,9.74009062 24.3533537,9.86782438 24.1976402,10.0138058 L24.1684439,10.0138058 L24.0954532,9.55396429 L23.2195645,9.55396429 L23.2195645,13.174304 L24.2925281,13.174304 Z M28.9493361,13.2618929 C29.1780403,13.2618929 29.398229,13.2193149 29.6099021,13.1341591 C29.8215752,13.0490033 30.008918,12.9261356 30.1719306,12.765556 C30.3349432,12.6049764 30.46511,12.4066849 30.562431,12.1706816 C30.6597519,11.9346783 30.7084124,11.6658291 30.7084124,11.3641341 C30.7084124,11.0624392 30.6597519,10.79359 30.562431,10.5575867 C30.46511,10.3215834 30.3349432,10.1232919 30.1719306,9.96271232 C30.008918,9.80213274 29.8215752,9.67926502 29.6099021,9.59410918 C29.398229,9.50895334 29.1780403,9.46637542 28.9493361,9.46637542 C28.7206318,9.46637542 28.4992266,9.50895334 28.2851205,9.59410918 C28.0710144,9.67926502 27.882455,9.80213274 27.7194424,9.96271232 C27.5564298,10.1232919 27.426263,10.3215834 27.3289421,10.5575867 C27.2316211,10.79359 27.1829606,11.0624392 27.1829606,11.3641341 C27.1829606,11.6658291 27.2316211,11.9346783 27.3289421,12.1706816 C27.426263,12.4066849 27.5564298,12.6049764 27.7194424,12.765556 C27.882455,12.9261356 28.0710144,13.0490033 28.2851205,13.1341591 C28.4992266,13.2193149 28.7206318,13.2618929 28.9493361,13.2618929 Z M28.9493361,12.3933033 C28.7254979,12.3933033 28.5588357,12.3008484 28.4493496,12.1159386 C28.3398636,11.9310287 28.2851205,11.6804273 28.2851205,11.3641341 C28.2851205,11.047841 28.3398636,10.7972396 28.4493496,10.6123297 C28.5588357,10.4274199 28.7254979,10.334965 28.9493361,10.334965 C29.1683082,10.334965 29.3337539,10.4274199 29.445673,10.6123297 C29.5575921,10.7972396 29.6135516,11.047841 29.6135516,11.3641341 C29.6135516,11.6804273 29.5575921,11.9310287 29.445673,12.1159386 C29.3337539,12.3008484 29.1683082,12.3933033 28.9493361,12.3933033 Z M32.8397414,13.2618929 C33.0149192,13.2618929 33.1681997,13.2472947 33.299583,13.2180984 C33.4309663,13.1889021 33.5453184,13.1597059 33.6426394,13.1305096 L33.4747607,12.3495089 C33.4261002,12.3689731 33.3713572,12.3860042 33.3105316,12.4006024 C33.249706,12.4152005 33.1900969,12.4224996 33.1317043,12.4224996 C32.9905889,12.4224996 32.8774533,12.3774886 32.7922975,12.2874668 C32.7071416,12.1974449 32.6645637,12.0502469 32.6645637,11.8458729 L32.6645637,10.3933576 L33.5331533,10.3933576 L33.5331533,9.55396429 L32.6645637,9.55396429 L32.6645637,8.59048678 L31.7740769,8.59048678 L31.6499927,9.55396429 L31.0952632,9.59775872 L31.0952632,10.3933576 L31.5916001,10.3933576 L31.5916001,11.860471 C31.5916001,12.0697111 31.6147139,12.2607035 31.6609413,12.4334482 C31.7071688,12.6061929 31.7801595,12.7533908 31.8799135,12.875042 C31.9796675,12.9966932 32.1086177,13.0915812 32.2667643,13.1597059 C32.4249108,13.2278305 32.6159032,13.2618929 32.8397414,13.2618929 Z M35.8615572,13.2618929 C36.0805294,13.2618929 36.3031511,13.2253975 36.5294223,13.1524068 C36.7556936,13.0794161 36.9612841,12.9796621 37.1461939,12.8531448 L36.7885394,12.2035274 C36.5257728,12.364107 36.2654392,12.4443968 36.0075387,12.4443968 C35.7642363,12.4443968 35.5586458,12.3823547 35.3907671,12.2582705 C35.2228884,12.1341862 35.1146189,11.9334618 35.0659584,11.656097 L37.2337828,11.656097 C37.2435149,11.6123026 37.253247,11.5502605 37.2629791,11.4699707 C37.2727112,11.3896809 37.2775772,11.3008755 37.2775772,11.2035546 C37.2775772,10.9553861 37.2459479,10.7254653 37.1826893,10.5137923 C37.1194307,10.3021192 37.0233262,10.1184259 36.8943759,9.96271232 C36.7654257,9.80699878 36.6048461,9.68534758 36.4126372,9.59775872 C36.2204283,9.51016986 35.9953736,9.46637542 35.737473,9.46637542 C35.5185009,9.46637542 35.3068278,9.51016986 35.1024538,9.59775872 C34.8980797,9.68534758 34.7168195,9.81064832 34.5586729,9.97366093 C34.4005263,10.1366735 34.2727926,10.3361815 34.1754716,10.5721848 C34.0781507,10.8081882 34.0294902,11.0721713 34.0294902,11.3641341 C34.0294902,11.6658291 34.0757176,11.9334618 34.1681725,12.1670321 C34.2606275,12.4006024 34.3895777,12.5988938 34.5550234,12.7619064 C34.720469,12.924919 34.9151109,13.0490033 35.1389491,13.1341591 C35.3627873,13.2193149 35.6036567,13.2618929 35.8615572,13.2618929 Z M35.0586593,10.9918815 C35.0975877,10.7485791 35.181527,10.5697518 35.3104773,10.4553997 C35.4394276,10.3410476 35.5890586,10.2838715 35.7593702,10.2838715 C35.9783424,10.2838715 36.1340559,10.3495631 36.2265108,10.4809464 C36.3189658,10.6123297 36.3651932,10.7826414 36.3651932,10.9918815 L35.0586593,10.9918815 Z" id="Addnote" fill="#FFFFFF" fill-rule="nonzero"></path>
                                    </g>
                                </g>
                                <g id="Group-12" filter="url(#filter-5)" transform="translate(73.389888, 0.000000)" fill="#26C164">
                                    <circle id="Oval-2" cx="26.972352" cy="26.972352" r="10.340352"></circle>
                                    <circle id="Oval-2" fill-opacity="0.088013549" cx="26.972352" cy="26.972352" r="26.136"></circle>
                                </g>
                            </g>
                        </g>
                        <rect id="Rectangle" fill="#DDE2E9" x="20.680704" y="71.983296" width="69.94944" height="8.515584"></rect>
                        <rect id="Rectangle" fill="#DDE2E9" x="20.680704" y="85.973184" width="101.578752" height="8.515584"></rect>
                    </g>
                    <path d="M53.3123328,154.479225 C66.9955316,152.117237 79.4663499,147.98312 85.7423775,139.251378 C87.8459183,136.324754 87.9100923,131.913656 92.2633701,129.519088 C92.7009807,129.278376 93.147036,130.202429 93.7128509,130.126159 L92.3257612,133.534553 C93.8067913,133.334915 104.239601,126.788205 109.882194,128.630466 C113.889989,129.938979 112.621313,136.725199 109.449912,138.203897 C106.559194,139.551723 102.463126,139.611466 99.6634098,141.035005 C89.1989085,146.355767 78.9746115,158.317443 71.5082752,163.656924 C57.7127645,173.522657 40.6113511,167.963874 50.1582358,155.104735 L53.3123328,154.479225 Z" id="Path-8" fill="#D4A181" transform="translate(79.891680, 148.500000) rotate(-10.000000) translate(-79.891680, -148.500000) "></path>
                </g>
                <path d="M28.0303097,111.077756 L25.3,102.792815 C26.4348458,96.228924 31.2229504,92.0798152 39.6643139,90.3454882 C48.1056774,88.6111611 53.6442287,90.7298884 56.279968,96.70167 C56.7438894,101.930159 57.2439018,104.717152 57.780005,105.062647 C58.58416,105.58089 70.4548962,105.427978 68.6792223,109.942659 C67.4954397,112.952447 60.2956989,112.952447 47.08,109.942659 L28.0303097,111.077756 Z" id="Path-10" fill="#000000" transform="translate(47.080000, 100.980000) rotate(-34.000000) translate(-47.080000, -100.980000) "></path>
                <g id="Group-53" transform="translate(0.000000, 353.760000)">
                    <path d="M45.7482562,22.1193687 C45.4046056,20.5042322 44.7223272,19.5434241 43.7014212,19.2369443 C42.6805151,18.9304646 39.2887586,18.0396513 33.5261517,16.5645046 L24.4786148,12.4859332 L20.5797353,9.78274576 L17.7776846,-8.53010294e-15 L14.1820509,1.36534603 L3.10289048,3.52808935 L1.56155067,10.7274413 C0.0870100701,20.3186257 -0.281625079,25.5200355 0.455645219,26.3316706 C1.56155067,27.5491232 52.1453253,30.3206243 45.7482562,22.4917319" id="Path-21" fill="#6A86D6"></path>
                    <path d="M46.8089685,22.3296876 C20.0241788,24.3946565 4.61895485,24.3946565 0.593296683,22.3296876 C0.0445486426,22.0511029 -0.123541094,23.5722701 0.0890274726,26.8931893 C29.9366716,29.4737851 45.5747893,28.7395052 47.0033806,24.6903495 C47.5511179,23.9750596 47.4863138,23.1881723 46.8089685,22.3296876 Z" id="Path-23" fill="#DFDFDF"></path>
                    <path d="M43.7014212,19.2369443 C43.9025527,19.7865396 42.9362009,20.0613372 40.8023657,20.0613372 C38.6685305,20.0613372 36.8994874,20.0613372 35.4952366,20.0613372 L33.4607123,20.9704197 C32.9860169,20.9704197 32.569208,20.6815072 32.2102854,20.103682 C31.8513628,19.5258569 32.2899849,18.3461311 33.5261517,16.5645046 L20.5214859,9.2087062 L19.6867885,6.74128356 L9.54553903,13.5233895 L11.3189674,13.5233895 L15.8292479,11.8122471 C17.0908742,12.9530087 18.5412723,13.5233895 20.180442,13.5233895 C21.8196117,13.5233895 23.1350765,14.3857429 24.1268362,16.1104497 L26.2261285,17.1922742 C24.8849171,21.5495496 23.8752725,23.7281872 23.1971948,23.7281872 C22.1800781,23.7281872 44.9063178,24.1350553 45.7482562,22.1193687 C46.3095485,20.7755776 45.6272701,19.8147695 43.7014212,19.2369443 Z" id="Path-22" fill="#000000"></path>
                    <path d="M1.60717025,12.5755454 C10.6533987,16.0965417 15.5817778,17.6686184 16.3923077,17.2917753 C17.6081025,16.7265107 18.6095241,16.6954167 18.6095241,14.1958508 C19.3069597,13.8994069 22.0883063,17.2020879 21.4433987,18.1207102 C20.7984911,19.0393326 20.493112,21.6375203 13.9943313,18.654701 C9.66181076,16.6661548 5.42411033,14.9577796 1.28122997,13.5295755 L1.60717025,12.5755454 Z" id="Path-24" fill="#000000"></path>
                </g>
                <g id="Group-53" transform="translate(73.700000, 353.760000)">
                    <path d="M45.7482562,22.1193687 C45.4046056,20.5042322 44.7223272,19.5434241 43.7014212,19.2369443 C42.6805151,18.9304646 39.2887586,18.0396513 33.5261517,16.5645046 L24.4786148,12.4859332 L20.5797353,9.78274576 L17.7776846,-8.53010294e-15 L14.1820509,1.36534603 L3.10289048,3.52808935 L1.56155067,10.7274413 C0.0870100701,20.3186257 -0.281625079,25.5200355 0.455645219,26.3316706 C1.56155067,27.5491232 52.1453253,30.3206243 45.7482562,22.4917319" id="Path-21" fill="#6A86D6"></path>
                    <path d="M46.8089685,22.3296876 C20.0241788,24.3946565 4.61895485,24.3946565 0.593296683,22.3296876 C0.0445486426,22.0511029 -0.123541094,23.5722701 0.0890274726,26.8931893 C29.9366716,29.4737851 45.5747893,28.7395052 47.0033806,24.6903495 C47.5511179,23.9750596 47.4863138,23.1881723 46.8089685,22.3296876 Z" id="Path-23" fill="#DFDFDF"></path>
                    <path d="M43.7014212,19.2369443 C43.9025527,19.7865396 42.9362009,20.0613372 40.8023657,20.0613372 C38.6685305,20.0613372 36.8994874,20.0613372 35.4952366,20.0613372 L33.4607123,20.9704197 C32.9860169,20.9704197 32.569208,20.6815072 32.2102854,20.103682 C31.8513628,19.5258569 32.2899849,18.3461311 33.5261517,16.5645046 L20.5214859,9.2087062 L19.6867885,6.74128356 L9.54553903,13.5233895 L11.3189674,13.5233895 L15.8292479,11.8122471 C17.0908742,12.9530087 18.5412723,13.5233895 20.180442,13.5233895 C21.8196117,13.5233895 23.1350765,14.3857429 24.1268362,16.1104497 L26.2261285,17.1922742 C24.8849171,21.5495496 23.8752725,23.7281872 23.1971948,23.7281872 C22.1800781,23.7281872 44.9063178,24.1350553 45.7482562,22.1193687 C46.3095485,20.7755776 45.6272701,19.8147695 43.7014212,19.2369443 Z" id="Path-22" fill="#000000"></path>
                    <path d="M1.60717025,12.5755454 C10.6533987,16.0965417 15.5817778,17.6686184 16.3923077,17.2917753 C17.6081025,16.7265107 18.6095241,16.6954167 18.6095241,14.1958508 C19.3069597,13.8994069 22.0883063,17.2020879 21.4433987,18.1207102 C20.7984911,19.0393326 20.493112,21.6375203 13.9943313,18.654701 C9.66181076,16.6661548 5.42411033,14.9577796 1.28122997,13.5295755 L1.60717025,12.5755454 Z" id="Path-24" fill="#000000"></path>
                </g>
            </g>
        </g>
    </g>
</svg>